Junicode-BoldItalic.ufo
<glyph name="exclam" format="1">
  <advance width="277"/>
  <unicode hex="0021"/>
  <outline>
    <contour>
      <point x="334" y="581"/>
      <point x="194" y="252"/>
      <point x="180" y="216" type="qcurve" smooth="yes"/>
      <point x="176" y="206"/>
      <point x="134" y="206"/>
      <point x="133" y="218" type="qcurve" smooth="yes"/>
      <point x="201" y="569" type="line" smooth="yes"/>
      <point x="208" y="607"/>
      <point x="223" y="648"/>
      <point x="269" y="683"/>
      <point x="292" y="683" type="qcurve" smooth="yes"/>
      <point x="349" y="683"/>
      <point x="349" y="638" type="qcurve" smooth="yes"/>
      <point x="349" y="621"/>
    </contour>
    <contour>
      <point x="188" y="60" type="qcurve" smooth="yes"/>
      <point x="188" y="28"/>
      <point x="139" y="-13"/>
      <point x="76" y="-13"/>
      <point x="33" y="35"/>
      <point x="33" y="98"/>
      <point x="82" y="141"/>
      <point x="146" y="141"/>
      <point x="188" y="92"/>
    </contour>
  </outline>
</glyph>
<glyph name="quotedbl" format="1">
  <advance width="387"/>
  <unicode hex="0022"/>
  <outline>
    <contour>
      <point x="418" y="461" type="qcurve"/>
      <point x="375" y="461" type="line"/>
      <point x="377" y="475"/>
      <point x="393" y="663"/>
      <point x="397" y="674" type="qcurve" smooth="yes"/>
      <point x="415" y="723"/>
      <point x="528" y="723"/>
      <point x="528" y="689" type="qcurve" smooth="yes"/>
      <point x="528" y="679"/>
      <point x="520" y="655"/>
      <point x="431" y="489"/>
    </contour>
    <contour>
      <point x="222" y="461" type="qcurve"/>
      <point x="179" y="461" type="line"/>
      <point x="181" y="475"/>
      <point x="197" y="663"/>
      <point x="201" y="674" type="qcurve" smooth="yes"/>
      <point x="219" y="723"/>
      <point x="332" y="723"/>
      <point x="332" y="689" type="qcurve" smooth="yes"/>
      <point x="332" y="679"/>
      <point x="324" y="655"/>
      <point x="235" y="489"/>
    </contour>
  </outline>
</glyph>
<glyph name="numbersign" format="1">
  <advance width="495"/>
  <unicode hex="0023"/>
  <outline>
    <contour>
      <point x="269" y="5" type="line"/>
      <point x="203" y="5" type="line"/>
      <point x="283" y="186" type="line"/>
      <point x="195" y="186" type="line"/>
      <point x="115" y="5" type="line"/>
      <point x="49" y="5" type="line"/>
      <point x="129" y="186" type="line"/>
      <point x="35" y="186" type="line"/>
      <point x="46" y="251" type="line"/>
      <point x="158" y="251" type="line"/>
      <point x="220" y="392" type="line"/>
      <point x="125" y="392" type="line"/>
      <point x="137" y="456" type="line"/>
      <point x="249" y="456" type="line"/>
      <point x="316" y="610" type="line"/>
      <point x="382" y="610" type="line"/>
      <point x="314" y="456" type="line"/>
      <point x="402" y="456" type="line"/>
      <point x="470" y="610" type="line"/>
      <point x="536" y="610" type="line"/>
      <point x="468" y="456" type="line"/>
      <point x="555" y="456" type="line"/>
      <point x="544" y="392" type="line"/>
      <point x="440" y="392" type="line"/>
      <point x="378" y="251" type="line"/>
      <point x="465" y="251" type="line"/>
      <point x="454" y="186" type="line"/>
      <point x="349" y="186" type="line"/>
    </contour>
    <contour>
      <point x="312" y="251" type="line"/>
      <point x="374" y="392" type="line"/>
      <point x="286" y="392" type="line"/>
      <point x="224" y="251" type="line"/>
    </contour>
  </outline>
</glyph>
<glyph name="dollar" format="1">
  <advance width="485"/>
  <unicode hex="0024"/>
  <outline>
    <contour>
      <point x="511" y="636" type="qcurve"/>
      <point x="511" y="573"/>
      <point x="500" y="509" type="qcurve" smooth="yes"/>
      <point x="498" y="495"/>
      <point x="454" y="495"/>
      <point x="453" y="502" type="qcurve" smooth="yes"/>
      <point x="452" y="522" type="line" smooth="yes"/>
      <point x="449" y="588"/>
      <point x="387" y="606" type="qcurve"/>
      <point x="329" y="389" type="line"/>
      <point x="405" y="365"/>
      <point x="467" y="302"/>
      <point x="467" y="251" type="qcurve" smooth="yes"/>
      <point x="467" y="205"/>
      <point x="426" y="104"/>
      <point x="312" y="0"/>
      <point x="223" y="-8" type="qcurve"/>
      <point x="205" y="-73" type="line" smooth="yes"/>
      <point x="203" y="-80"/>
      <point x="142" y="-81"/>
      <point x="144" y="-73" type="qcurve" smooth="yes"/>
      <point x="162" y="-7" type="line"/>
      <point x="113" y="-3"/>
      <point x="69" y="21" type="qcurve" smooth="yes"/>
      <point x="37" y="37" type="line"/>
      <point x="36" y="66" type="line"/>
      <point x="36" y="75" type="line" smooth="yes"/>
      <point x="36" y="121"/>
      <point x="51" y="183" type="qcurve" smooth="yes"/>
      <point x="54" y="195"/>
      <point x="99" y="195"/>
      <point x="97" y="185" type="qcurve" smooth="yes"/>
      <point x="95" y="170"/>
      <point x="95" y="159" type="qcurve" smooth="yes"/>
      <point x="95" y="113"/>
      <point x="140" y="54"/>
      <point x="175" y="43" type="qcurve"/>
      <point x="240" y="283" type="line"/>
      <point x="161" y="317"/>
      <point x="119" y="377"/>
      <point x="119" y="422" type="qcurve" smooth="yes"/>
      <point x="119" y="507"/>
      <point x="245" y="638"/>
      <point x="338" y="649" type="qcurve"/>
      <point x="356" y="716" type="line" smooth="yes"/>
      <point x="358" y="724"/>
      <point x="419" y="724"/>
      <point x="417" y="716" type="qcurve" smooth="yes"/>
      <point x="399" y="649" type="line"/>
      <point x="446" y="647"/>
      <point x="480" y="635"/>
      <point x="503" y="635"/>
    </contour>
    <contour>
      <point x="327" y="608" type="line"/>
      <point x="283" y="598"/>
      <point x="225" y="513"/>
      <point x="225" y="475" type="qcurve" smooth="yes"/>
      <point x="225" y="433"/>
      <point x="274" y="410" type="qcurve"/>
    </contour>
    <contour>
      <point x="235" y="36" type="line"/>
      <point x="287" y="42"/>
      <point x="354" y="135"/>
      <point x="354" y="183" type="qcurve" smooth="yes"/>
      <point x="354" y="231"/>
      <point x="295" y="260" type="qcurve"/>
    </contour>
  </outline>
</glyph>
<glyph name="percent" format="1">
  <advance width="886"/>
  <unicode hex="0025"/>
  <outline>
    <contour>
      <point x="868" y="256" type="qcurve" smooth="yes"/>
      <point x="868" y="200"/>
      <point x="839" y="137" type="qcurve" smooth="yes"/>
      <point x="811" y="74"/>
      <point x="697" y="-22"/>
      <point x="630" y="-22" type="qcurve" smooth="yes"/>
      <point x="557" y="-22"/>
      <point x="482" y="63"/>
      <point x="482" y="130" type="qcurve" smooth="yes"/>
      <point x="482" y="213"/>
      <point x="650" y="374"/>
      <point x="742" y="374" type="qcurve" smooth="yes"/>
      <point x="805" y="374"/>
      <point x="836" y="341" type="qcurve" smooth="yes"/>
      <point x="868" y="308"/>
    </contour>
    <contour>
      <point x="831" y="694" type="line"/>
      <point x="217" y="-59" type="line"/>
      <point x="136" y="-59" type="line"/>
      <point x="639" y="554" type="line"/>
      <point x="622" y="545"/>
      <point x="556" y="533"/>
      <point x="533" y="533" type="qcurve" smooth="yes"/>
      <point x="509" y="533"/>
      <point x="481" y="538" type="qcurve"/>
      <point x="480" y="482"/>
      <point x="422" y="357"/>
      <point x="309" y="263"/>
      <point x="243" y="263" type="qcurve" smooth="yes"/>
      <point x="170" y="263"/>
      <point x="95" y="348"/>
      <point x="95" y="414" type="qcurve" smooth="yes"/>
      <point x="95" y="497"/>
      <point x="262" y="659"/>
      <point x="354" y="659" type="qcurve" smooth="yes"/>
      <point x="453" y="659"/>
      <point x="475" y="581" type="qcurve"/>
      <point x="499" y="575"/>
      <point x="526" y="575" type="qcurve" smooth="yes"/>
      <point x="655" y="575"/>
      <point x="764" y="694" type="qcurve"/>
    </contour>
    <contour>
      <point x="813" y="260" type="qcurve" smooth="yes"/>
      <point x="813" y="292"/>
      <point x="798" y="312" type="qcurve" smooth="yes"/>
      <point x="784" y="332"/>
      <point x="757" y="332" type="qcurve" smooth="yes"/>
      <point x="712" y="332"/>
      <point x="583" y="146"/>
      <point x="583" y="93" type="qcurve" smooth="yes"/>
      <point x="583" y="62"/>
      <point x="613" y="20"/>
      <point x="639" y="20" type="qcurve" smooth="yes"/>
      <point x="704" y="20"/>
      <point x="758" y="105" type="qcurve" smooth="yes"/>
      <point x="813" y="190"/>
    </contour>
    <contour>
      <point x="426" y="545" type="qcurve" smooth="yes"/>
      <point x="426" y="547"/>
      <point x="425" y="556"/>
      <point x="425" y="558" type="qcurve" smooth="yes"/>
      <point x="381" y="579"/>
      <point x="358" y="614" type="qcurve"/>
      <point x="311" y="601"/>
      <point x="196" y="427"/>
      <point x="196" y="378" type="qcurve" smooth="yes"/>
      <point x="196" y="347"/>
      <point x="225" y="305"/>
      <point x="251" y="305" type="qcurve" smooth="yes"/>
      <point x="317" y="305"/>
      <point x="426" y="474"/>
    </contour>
  </outline>
</glyph>
<glyph name="ampersand" format="1">
  <advance width="809"/>
  <unicode hex="0026"/>
  <outline>
    <contour>
      <point x="51" y="196" type="qcurve" smooth="yes"/>
      <point x="51" y="246"/>
      <point x="99" y="370"/>
      <point x="241" y="496"/>
      <point x="314" y="496" type="qcurve" smooth="yes"/>
      <point x="339" y="496"/>
      <point x="375" y="465"/>
      <point x="380" y="445" type="qcurve"/>
      <point x="433" y="487"/>
      <point x="536" y="620"/>
      <point x="536" y="661" type="qcurve" smooth="yes"/>
      <point x="536" y="670"/>
      <point x="513" y="696"/>
      <point x="513" y="715" type="qcurve" smooth="yes"/>
      <point x="513" y="734"/>
      <point x="546" y="768"/>
      <point x="575" y="768" type="qcurve" smooth="yes"/>
      <point x="603" y="768"/>
      <point x="635" y="726"/>
      <point x="635" y="699" type="qcurve" smooth="yes"/>
      <point x="635" y="656"/>
      <point x="556" y="541"/>
      <point x="451" y="441"/>
      <point x="301" y="323"/>
      <point x="253" y="290" type="qcurve" smooth="yes"/>
      <point x="154" y="222" type="line"/>
      <point x="154" y="155"/>
      <point x="243" y="75"/>
      <point x="318" y="75" type="qcurve" smooth="yes"/>
      <point x="437" y="75"/>
      <point x="605" y="278"/>
      <point x="609" y="400" type="qcurve"/>
      <point x="596" y="411"/>
      <point x="568" y="411" type="qcurve" smooth="yes"/>
      <point x="541" y="411"/>
      <point x="494" y="382"/>
      <point x="494" y="370" type="qcurve" smooth="yes"/>
      <point x="494" y="357"/>
      <point x="516" y="342"/>
      <point x="538" y="323"/>
      <point x="538" y="304" type="qcurve" smooth="yes"/>
      <point x="538" y="285"/>
      <point x="507" y="262"/>
      <point x="484" y="262" type="qcurve" smooth="yes"/>
      <point x="462" y="262"/>
      <point x="426" y="293"/>
      <point x="426" y="318" type="qcurve" smooth="yes"/>
      <point x="426" y="376"/>
      <point x="545" y="481"/>
      <point x="612" y="481" type="qcurve" smooth="yes"/>
      <point x="690" y="481"/>
      <point x="747" y="392" type="qcurve" smooth="yes"/>
      <point x="768" y="360"/>
      <point x="777" y="360" type="qcurve" smooth="yes"/>
      <point x="787" y="360"/>
      <point x="787" y="398"/>
      <point x="772" y="423"/>
      <point x="772" y="433" type="qcurve" smooth="yes"/>
      <point x="772" y="453"/>
      <point x="805" y="475"/>
      <point x="827" y="475" type="qcurve" smooth="yes"/>
      <point x="849" y="475"/>
      <point x="877" y="430"/>
      <point x="877" y="407" type="qcurve" smooth="yes"/>
      <point x="877" y="384"/>
      <point x="868" y="357"/>
      <point x="845" y="342"/>
      <point x="829" y="335"/>
      <point x="789" y="326"/>
      <point x="778" y="322"/>
      <point x="737" y="305"/>
      <point x="725" y="305" type="qcurve" smooth="yes"/>
      <point x="713" y="305"/>
      <point x="700" y="320" type="qcurve" smooth="yes"/>
      <point x="682" y="343"/>
      <point x="641" y="381" type="qcurve"/>
      <point x="646" y="353"/>
      <point x="646" y="331" type="qcurve" smooth="yes"/>
      <point x="646" y="257"/>
      <point x="568" y="104"/>
      <point x="404" y="-14"/>
      <point x="297" y="-14" type="qcurve" smooth="yes"/>
      <point x="187" y="-14"/>
      <point x="51" y="95"/>
    </contour>
    <contour>
      <point x="279" y="360" type="qcurve"/>
      <point x="288" y="383"/>
      <point x="288" y="399" type="qcurve" smooth="yes"/>
      <point x="288" y="416"/>
      <point x="267" y="435"/>
      <point x="257" y="435" type="qcurve" smooth="yes"/>
      <point x="218" y="435"/>
      <point x="156" y="306"/>
      <point x="154" y="260" type="qcurve"/>
      <point x="186" y="282"/>
    </contour>
  </outline>
</glyph>
<glyph name="quotesingle" format="1">
  <advance width="214"/>
  <unicode hex="0027"/>
  <outline>
    <contour>
      <point x="326" y="667" type="qcurve" smooth="yes"/>
      <point x="322" y="656"/>
      <point x="277" y="574" type="qcurve" smooth="yes"/>
      <point x="233" y="491"/>
      <point x="221" y="461" type="qcurve"/>
      <point x="175" y="461" type="line"/>
      <point x="182" y="496"/>
      <point x="195" y="662"/>
      <point x="199" y="674" type="qcurve" smooth="yes"/>
      <point x="216" y="723"/>
      <point x="275" y="723" type="qcurve" smooth="yes"/>
      <point x="330" y="723"/>
      <point x="330" y="688" type="qcurve" smooth="yes"/>
      <point x="330" y="679"/>
    </contour>
  </outline>
</glyph>
<glyph name="parenleft" format="1">
  <advance width="338"/>
  <unicode hex="0028"/>
  <outline>
    <contour>
      <point x="455" y="722" type="qcurve" smooth="yes"/>
      <point x="356" y="654"/>
      <point x="238" y="469"/>
      <point x="174" y="261"/>
      <point x="174" y="142" type="qcurve" smooth="yes"/>
      <point x="174" y="70"/>
      <point x="206" y="-75"/>
      <point x="247" y="-150" type="qcurve" smooth="yes"/>
      <point x="251" y="-158"/>
      <point x="241" y="-167" type="qcurve" smooth="yes"/>
      <point x="233" y="-173"/>
      <point x="228" y="-172" type="qcurve" smooth="yes"/>
      <point x="226" y="-172"/>
      <point x="224" y="-171" type="qcurve" smooth="yes"/>
      <point x="153" y="-108"/>
      <point x="78" y="94"/>
      <point x="78" y="205" type="qcurve" smooth="yes"/>
      <point x="78" y="306"/>
      <point x="153" y="515"/>
      <point x="319" y="691"/>
      <point x="436" y="744" type="qcurve" smooth="yes"/>
      <point x="438" y="745"/>
      <point x="440" y="745" type="qcurve" smooth="yes"/>
      <point x="446" y="745"/>
      <point x="453" y="737" type="qcurve" smooth="yes"/>
      <point x="458" y="731"/>
      <point x="458" y="727" type="qcurve" smooth="yes"/>
      <point x="458" y="724"/>
    </contour>
  </outline>
</glyph>
<glyph name="parenright" format="1">
  <advance width="338"/>
  <unicode hex="0029"/>
  <outline>
    <contour>
      <point x="173" y="743" type="qcurve" smooth="yes"/>
      <point x="237" y="685"/>
      <point x="318" y="491"/>
      <point x="318" y="380" type="qcurve" smooth="yes"/>
      <point x="318" y="268"/>
      <point x="281" y="162" type="qcurve" smooth="yes"/>
      <point x="228" y="10"/>
      <point x="88" y="-99" type="qcurve" smooth="yes"/>
      <point x="51" y="-127"/>
      <point x="-4" y="-155"/>
      <point x="-40" y="-174"/>
      <point x="-44" y="-174" type="qcurve" smooth="yes"/>
      <point x="-48" y="-174"/>
      <point x="-62" y="-159"/>
      <point x="-62" y="-155" type="qcurve" smooth="yes"/>
      <point x="-62" y="-151"/>
      <point x="-59" y="-150" type="qcurve" smooth="yes"/>
      <point x="41" y="-93"/>
      <point x="117" y="38" type="qcurve" smooth="yes"/>
      <point x="224" y="223"/>
      <point x="224" y="430" type="qcurve" smooth="yes"/>
      <point x="224" y="605"/>
      <point x="150" y="722" type="qcurve" smooth="yes"/>
      <point x="146" y="729"/>
      <point x="164" y="745"/>
      <point x="167" y="745" type="qcurve" smooth="yes"/>
      <point x="171" y="745"/>
    </contour>
  </outline>
</glyph>
<glyph name="asterisk" format="1">
  <advance width="404"/>
  <unicode hex="002A"/>
  <outline>
    <contour>
      <point x="358" y="426" type="line"/>
      <point x="321" y="379" type="line"/>
      <point x="218" y="447" type="line"/>
      <point x="189" y="313" type="line"/>
      <point x="135" y="313" type="line"/>
      <point x="164" y="447" type="line"/>
      <point x="34" y="380" type="line"/>
      <point x="17" y="427" type="line"/>
      <point x="147" y="494" type="line"/>
      <point x="46" y="560" type="line"/>
      <point x="83" y="607" type="line"/>
      <point x="184" y="541" type="line"/>
      <point x="213" y="676" type="line"/>
      <point x="267" y="676" type="line"/>
      <point x="238" y="541" type="line"/>
      <point x="370" y="609" type="line"/>
      <point x="387" y="562" type="line"/>
      <point x="255" y="494" type="line"/>
    </contour>
  </outline>
</glyph>
<glyph name="comma" format="1">
  <advance width="271"/>
  <unicode hex="002C"/>
  <outline>
    <contour>
      <point x="209" y="82" type="qcurve" smooth="yes"/>
      <point x="209" y="45"/>
      <point x="158" y="-36"/>
      <point x="85" y="-98"/>
      <point x="19" y="-140"/>
      <point x="-1" y="-148" type="qcurve" smooth="yes"/>
      <point x="-9" y="-153"/>
      <point x="-24" y="-125"/>
      <point x="-17" y="-119" type="qcurve" smooth="yes"/>
      <point x="75" y="-46"/>
      <point x="92" y="7" type="qcurve" smooth="yes"/>
      <point x="96" y="23"/>
      <point x="85" y="27" type="qcurve" smooth="yes"/>
      <point x="47" y="48"/>
      <point x="47" y="88" type="qcurve" smooth="yes"/>
      <point x="47" y="117"/>
      <point x="97" y="162"/>
      <point x="165" y="162"/>
      <point x="209" y="120"/>
    </contour>
  </outline>
</glyph>
<glyph name="hyphen" format="1">
  <advance width="421"/>
  <unicode hex="002D"/>
  <outline>
    <contour>
      <point x="398" y="298" type="line" smooth="yes"/>
      <point x="406" y="298"/>
      <point x="406" y="285" type="qcurve" smooth="yes"/>
      <point x="406" y="278"/>
      <point x="404" y="266" type="qcurve" smooth="yes"/>
      <point x="396" y="234"/>
      <point x="381" y="234" type="qcurve" smooth="yes"/>
      <point x="84" y="234" type="line" smooth="yes"/>
      <point x="74" y="234"/>
      <point x="74" y="249" type="qcurve" smooth="yes"/>
      <point x="74" y="256"/>
      <point x="76" y="266" type="qcurve" smooth="yes"/>
      <point x="83" y="298"/>
      <point x="100" y="298" type="qcurve" smooth="yes"/>
    </contour>
  </outline>
</glyph>
<glyph name="period" format="1">
  <advance width="271"/>
  <unicode hex="002E"/>
  <outline>
    <contour>
      <point x="198" y="58" type="qcurve" smooth="yes"/>
      <point x="198" y="27"/>
      <point x="156" y="-13"/>
      <point x="125" y="-13" type="qcurve" smooth="yes"/>
      <point x="96" y="-13"/>
      <point x="70" y="5" type="qcurve" smooth="yes"/>
      <point x="45" y="24"/>
      <point x="45" y="65" type="qcurve" smooth="yes"/>
      <point x="45" y="88"/>
      <point x="63" y="112" type="qcurve" smooth="yes"/>
      <point x="82" y="136"/>
      <point x="125" y="136" type="qcurve" smooth="yes"/>
      <point x="155" y="136"/>
      <point x="176" y="114" type="qcurve" smooth="yes"/>
      <point x="198" y="93"/>
    </contour>
  </outline>
</glyph>
<glyph name="slash" format="1">
  <advance width="258"/>
  <unicode hex="002F"/>
  <outline>
    <contour>
      <point x="387" y="696" type="qcurve" smooth="yes"/>
      <point x="87" y="-8" type="line" smooth="yes"/>
      <point x="84" y="-12"/>
      <point x="76" y="-12" type="qcurve" smooth="yes"/>
      <point x="72" y="-12"/>
      <point x="66" y="-11" type="qcurve" smooth="yes"/>
      <point x="50" y="-7"/>
      <point x="36" y="2" type="qcurve" smooth="yes"/>
      <point x="23" y="10"/>
      <point x="23" y="16" type="qcurve" smooth="yes"/>
      <point x="23" y="17"/>
      <point x="24" y="19" type="qcurve" smooth="yes"/>
      <point x="324" y="723" type="line" smooth="yes"/>
      <point x="326" y="729"/>
      <point x="335" y="729" type="qcurve" smooth="yes"/>
      <point x="344" y="729"/>
      <point x="361" y="723" type="qcurve" smooth="yes"/>
      <point x="388" y="712"/>
      <point x="388" y="700" type="qcurve" smooth="yes"/>
      <point x="388" y="698"/>
    </contour>
  </outline>
</glyph>
<glyph name="zero" format="1">
  <advance width="466"/>
  <unicode hex="0030"/>
  <outline>
    <contour>
      <point x="41" y="168" type="qcurve" smooth="yes"/>
      <point x="41" y="275"/>
      <point x="133" y="514"/>
      <point x="272" y="651"/>
      <point x="368" y="651" type="qcurve" smooth="yes"/>
      <point x="448" y="651"/>
      <point x="517" y="548"/>
      <point x="517" y="468" type="qcurve" smooth="yes"/>
      <point x="517" y="367"/>
      <point x="434" y="141"/>
      <point x="283" y="-8"/>
      <point x="191" y="-8" type="qcurve" smooth="yes"/>
      <point x="110" y="-8"/>
      <point x="41" y="92"/>
    </contour>
    <contour>
      <point x="150" y="129" type="qcurve" smooth="yes"/>
      <point x="150" y="37"/>
      <point x="198" y="37" type="qcurve" smooth="yes"/>
      <point x="261" y="37"/>
      <point x="344" y="195"/>
      <point x="409" y="459"/>
      <point x="409" y="527" type="qcurve" smooth="yes"/>
      <point x="409" y="606"/>
      <point x="357" y="607" type="qcurve" smooth="yes"/>
      <point x="305" y="607"/>
      <point x="218" y="455"/>
      <point x="150" y="194"/>
    </contour>
  </outline>
</glyph>
<glyph name="one" format="1">
  <advance width="466"/>
  <unicode hex="0031"/>
  <outline>
    <contour>
      <point x="338" y="-4" type="qcurve" smooth="yes"/>
      <point x="298" y="0"/>
      <point x="201" y="0" type="qcurve" smooth="yes"/>
      <point x="101" y="0"/>
      <point x="61" y="-4" type="qcurve" smooth="yes"/>
      <point x="57" y="-4"/>
      <point x="57" y="2" type="qcurve" smooth="yes"/>
      <point x="57" y="7"/>
      <point x="59" y="15" type="qcurve" smooth="yes"/>
      <point x="64" y="34"/>
      <point x="71" y="33" type="qcurve" smooth="yes"/>
      <point x="122" y="33"/>
      <point x="169" y="77"/>
      <point x="186" y="137" type="qcurve" smooth="yes"/>
      <point x="291" y="531" type="line" smooth="yes"/>
      <point x="296" y="547"/>
      <point x="292" y="561"/>
      <point x="281" y="557" type="qcurve" smooth="yes"/>
      <point x="218" y="534"/>
      <point x="201" y="528" type="qcurve" smooth="yes"/>
      <point x="192" y="525"/>
      <point x="187" y="553"/>
      <point x="198" y="557" type="qcurve" smooth="yes"/>
      <point x="290" y="592"/>
      <point x="396" y="661" type="qcurve" smooth="yes"/>
      <point x="412" y="671"/>
      <point x="419" y="671" type="qcurve" smooth="yes"/>
      <point x="429" y="671"/>
      <point x="435" y="664" type="qcurve" smooth="yes"/>
      <point x="438" y="660"/>
      <point x="438" y="655" type="qcurve" smooth="yes"/>
      <point x="438" y="651"/>
      <point x="436" y="645" type="qcurve" smooth="yes"/>
      <point x="422" y="609"/>
      <point x="412" y="567" type="qcurve" smooth="yes"/>
      <point x="297" y="138" type="line" smooth="yes"/>
      <point x="286" y="105"/>
      <point x="286" y="83" type="qcurve" smooth="yes"/>
      <point x="286" y="70"/>
      <point x="290" y="60" type="qcurve" smooth="yes"/>
      <point x="300" y="33"/>
      <point x="348" y="33" type="qcurve" smooth="yes"/>
      <point x="356" y="33"/>
      <point x="346" y="-4"/>
    </contour>
  </outline>
</glyph>
<glyph name="two" format="1">
  <advance width="466"/>
  <unicode hex="0032"/>
  <outline>
    <contour>
      <point x="432" y="127" type="qcurve" smooth="yes"/>
      <point x="354" y="15" type="line" smooth="yes"/>
      <point x="340" y="-4"/>
      <point x="310" y="-4" type="qcurve" smooth="yes"/>
      <point x="295" y="-4"/>
      <point x="217" y="0"/>
      <point x="152" y="0" type="qcurve" smooth="yes"/>
      <point x="89" y="0"/>
      <point x="-8" y="-4"/>
      <point x="-16" y="-4" type="qcurve" smooth="yes"/>
      <point x="-36" y="-4"/>
      <point x="-37" y="13" type="qcurve" smooth="yes"/>
      <point x="-37" y="25"/>
      <point x="-21" y="39" type="qcurve" smooth="yes"/>
      <point x="38" y="85"/>
      <point x="120" y="160" type="qcurve" smooth="yes"/>
      <point x="207" y="240"/>
      <point x="265" y="308" type="qcurve" smooth="yes"/>
      <point x="380" y="442"/>
      <point x="380" y="512" type="qcurve" smooth="yes"/>
      <point x="380" y="542"/>
      <point x="348" y="578"/>
      <point x="318" y="578" type="qcurve" smooth="yes"/>
      <point x="246" y="578"/>
      <point x="178" y="498" type="qcurve" smooth="yes"/>
      <point x="171" y="488"/>
      <point x="143" y="506"/>
      <point x="151" y="515" type="qcurve" smooth="yes"/>
      <point x="197" y="573"/>
      <point x="315" y="651"/>
      <point x="377" y="651" type="qcurve" smooth="yes"/>
      <point x="438" y="651"/>
      <point x="508" y="584"/>
      <point x="508" y="531" type="qcurve" smooth="yes"/>
      <point x="508" y="470"/>
      <point x="430" y="358"/>
      <point x="367" y="298" type="qcurve" smooth="yes"/>
      <point x="331" y="263"/>
      <point x="245" y="191"/>
      <point x="136" y="105"/>
      <point x="122" y="94" type="qcurve"/>
      <point x="266" y="94" type="line" smooth="yes"/>
      <point x="317" y="94"/>
      <point x="370" y="110"/>
      <point x="394" y="142" type="qcurve" smooth="yes"/>
      <point x="401" y="152"/>
      <point x="439" y="137"/>
    </contour>
  </outline>
</glyph>
<glyph name="three" format="1">
  <advance width="466"/>
  <unicode hex="0033"/>
  <outline>
    <contour>
      <point x="138" y="-11" type="qcurve" smooth="yes"/>
      <point x="89" y="-11"/>
      <point x="6" y="20"/>
      <point x="6" y="57" type="qcurve" smooth="yes"/>
      <point x="6" y="83"/>
      <point x="50" y="117"/>
      <point x="77" y="117" type="qcurve" smooth="yes"/>
      <point x="95" y="117"/>
      <point x="119" y="92"/>
      <point x="130" y="63"/>
      <point x="157" y="38"/>
      <point x="177" y="38" type="qcurve" smooth="yes"/>
      <point x="229" y="38"/>
      <point x="317" y="179"/>
      <point x="317" y="237" type="qcurve" smooth="yes"/>
      <point x="317" y="279"/>
      <point x="272" y="329"/>
      <point x="227" y="329" type="qcurve" smooth="yes"/>
      <point x="200" y="329"/>
      <point x="173" y="321" type="qcurve" smooth="yes"/>
      <point x="160" y="321"/>
      <point x="172" y="373"/>
      <point x="184" y="373" type="qcurve" smooth="yes"/>
      <point x="279" y="373"/>
      <point x="334" y="433" type="qcurve" smooth="yes"/>
      <point x="372" y="474"/>
      <point x="372" y="527" type="qcurve" smooth="yes"/>
      <point x="372" y="554"/>
      <point x="345" y="588"/>
      <point x="319" y="588" type="qcurve" smooth="yes"/>
      <point x="286" y="588"/>
      <point x="228" y="553"/>
      <point x="189" y="512" type="qcurve" smooth="yes"/>
      <point x="180" y="502"/>
      <point x="155" y="526"/>
      <point x="163" y="534" type="qcurve" smooth="yes"/>
      <point x="219" y="592"/>
      <point x="313" y="651"/>
      <point x="368" y="651" type="qcurve" smooth="yes"/>
      <point x="422" y="651"/>
      <point x="485" y="589"/>
      <point x="485" y="541" type="qcurve" smooth="yes"/>
      <point x="485" y="486"/>
      <point x="415" y="399"/>
      <point x="360" y="371" type="qcurve"/>
      <point x="441" y="345"/>
      <point x="441" y="259" type="qcurve" smooth="yes"/>
      <point x="441" y="187"/>
      <point x="348" y="60"/>
      <point x="208" y="-11"/>
    </contour>
  </outline>
</glyph>
<glyph name="four" format="1">
  <advance width="466"/>
  <unicode hex="0034"/>
  <outline>
    <contour>
      <point x="401" y="246" type="line"/>
      <point x="461" y="246" type="line" smooth="yes"/>
      <point x="464" y="246"/>
      <point x="464" y="239" type="qcurve" smooth="yes"/>
      <point x="464" y="231"/>
      <point x="460" y="214" type="qcurve" smooth="yes"/>
      <point x="452" y="182"/>
      <point x="444" y="181" type="qcurve" smooth="yes"/>
      <point x="384" y="181" type="line"/>
      <point x="355" y="76" type="line" smooth="yes"/>
      <point x="352" y="65"/>
      <point x="352" y="57" type="qcurve" smooth="yes"/>
      <point x="352" y="46"/>
      <point x="358" y="41" type="qcurve" smooth="yes"/>
      <point x="368" y="33"/>
      <point x="394" y="33" type="qcurve" smooth="yes"/>
      <point x="402" y="33"/>
      <point x="392" y="-4"/>
      <point x="384" y="-4" type="qcurve" smooth="yes"/>
      <point x="344" y="0"/>
      <point x="269" y="0" type="qcurve" smooth="yes"/>
      <point x="194" y="0"/>
      <point x="154" y="-4" type="qcurve" smooth="yes"/>
      <point x="146" y="-4"/>
      <point x="156" y="33"/>
      <point x="164" y="33" type="qcurve" smooth="yes"/>
      <point x="200" y="33"/>
      <point x="237" y="52"/>
      <point x="244" y="76" type="qcurve" smooth="yes"/>
      <point x="273" y="181" type="line"/>
      <point x="48" y="181" type="line"/>
      <point x="46" y="181" type="line" smooth="yes"/>
      <point x="11" y="181"/>
      <point x="11" y="202" type="qcurve" smooth="yes"/>
      <point x="11" y="227"/>
      <point x="54" y="269" type="qcurve" smooth="yes"/>
      <point x="246" y="456" type="line" smooth="yes"/>
      <point x="382" y="589"/>
      <point x="469" y="690" type="qcurve" smooth="yes"/>
      <point x="480" y="699"/>
      <point x="493" y="699" type="qcurve" smooth="yes"/>
      <point x="501" y="699"/>
      <point x="510" y="695" type="qcurve" smooth="yes"/>
      <point x="526" y="688"/>
      <point x="527" y="675" type="qcurve" smooth="yes"/>
      <point x="527" y="670"/>
      <point x="524" y="664" type="qcurve" smooth="yes"/>
      <point x="117" y="266" type="line" smooth="yes"/>
      <point x="97" y="246"/>
      <point x="116" y="246" type="qcurve" smooth="yes"/>
      <point x="290" y="246" type="line"/>
      <point x="342" y="441" type="line" smooth="yes"/>
      <point x="345" y="452"/>
      <point x="456" y="452"/>
      <point x="453" y="441" type="qcurve" smooth="yes"/>
    </contour>
  </outline>
</glyph>
<glyph name="five" format="1">
  <advance width="466"/>
  <unicode hex="0035"/>
  <outline>
    <contour>
      <point x="530" y="643" type="line" smooth="yes"/>
      <point x="532" y="643"/>
      <point x="532" y="640" type="qcurve" smooth="yes"/>
      <point x="532" y="631"/>
      <point x="517" y="597" type="qcurve" smooth="yes"/>
      <point x="496" y="551"/>
      <point x="489" y="552" type="qcurve" smooth="yes"/>
      <point x="286" y="552" type="line" smooth="yes"/>
      <point x="270" y="552"/>
      <point x="262" y="537" type="qcurve" smooth="yes"/>
      <point x="228" y="462" type="line" smooth="yes"/>
      <point x="224" y="452"/>
      <point x="228" y="445"/>
      <point x="235" y="446" type="qcurve" smooth="yes"/>
      <point x="261" y="448"/>
      <point x="267" y="448" type="qcurve" smooth="yes"/>
      <point x="359" y="448"/>
      <point x="450" y="369"/>
      <point x="450" y="308" type="qcurve" smooth="yes"/>
      <point x="450" y="215"/>
      <point x="380" y="125" type="qcurve" smooth="yes"/>
      <point x="333" y="64"/>
      <point x="197" y="-8"/>
      <point x="121" y="-8" type="qcurve" smooth="yes"/>
      <point x="2" y="-8"/>
      <point x="2" y="52" type="qcurve" smooth="yes"/>
      <point x="2" y="79"/>
      <point x="48" y="114"/>
      <point x="75" y="113" type="qcurve" smooth="yes"/>
      <point x="99" y="113"/>
      <point x="149" y="45"/>
      <point x="176" y="45" type="qcurve" smooth="yes"/>
      <point x="237" y="45"/>
      <point x="340" y="175"/>
      <point x="340" y="239" type="qcurve" smooth="yes"/>
      <point x="340" y="287"/>
      <point x="276" y="343"/>
      <point x="220" y="343" type="qcurve" smooth="yes"/>
      <point x="188" y="343"/>
      <point x="150" y="333" type="qcurve" smooth="yes"/>
      <point x="129" y="327"/>
      <point x="121" y="346"/>
      <point x="129" y="358" type="qcurve" smooth="yes"/>
      <point x="244" y="616" type="line" smooth="yes"/>
      <point x="257" y="643"/>
      <point x="285" y="643" type="qcurve" smooth="yes"/>
    </contour>
  </outline>
</glyph>
<glyph name="six" format="1">
  <advance width="466"/>
  <unicode hex="0036"/>
  <outline>
    <contour>
      <point x="520" y="645" type="qcurve" smooth="yes"/>
      <point x="416" y="595"/>
      <point x="256" y="427"/>
      <point x="211" y="335" type="qcurve"/>
      <point x="268" y="389"/>
      <point x="396" y="389"/>
      <point x="460" y="310"/>
      <point x="460" y="252" type="qcurve" smooth="yes"/>
      <point x="460" y="150"/>
      <point x="292" y="-8"/>
      <point x="189" y="-8" type="qcurve" smooth="yes"/>
      <point x="111" y="-8"/>
      <point x="41" y="79"/>
      <point x="41" y="149" type="qcurve" smooth="yes"/>
      <point x="41" y="186"/>
      <point x="53" y="232" type="qcurve" smooth="yes"/>
      <point x="89" y="368"/>
      <point x="357" y="620"/>
      <point x="509" y="675" type="qcurve" smooth="yes"/>
      <point x="520" y="679"/>
      <point x="529" y="650"/>
    </contour>
    <contour>
      <point x="345" y="220" type="qcurve" smooth="yes"/>
      <point x="345" y="258"/>
      <point x="307" y="314"/>
      <point x="273" y="314" type="qcurve" smooth="yes"/>
      <point x="227" y="314"/>
      <point x="184" y="276" type="qcurve"/>
      <point x="152" y="197"/>
      <point x="152" y="127" type="qcurve" smooth="yes"/>
      <point x="152" y="43"/>
      <point x="214" y="43" type="qcurve" smooth="yes"/>
      <point x="271" y="43"/>
      <point x="345" y="159"/>
    </contour>
  </outline>
</glyph>
<glyph name="seven" format="1">
  <advance width="466"/>
  <unicode hex="0037"/>
  <outline>
    <contour>
      <point x="554" y="595" type="qcurve" smooth="yes"/>
      <point x="158" y="0" type="line" smooth="yes"/>
      <point x="154" y="-5"/>
      <point x="129" y="-11"/>
      <point x="117" y="-11" type="qcurve" smooth="yes"/>
      <point x="98" y="-11"/>
      <point x="59" y="-6"/>
      <point x="51" y="-1" type="qcurve" smooth="yes"/>
      <point x="46" y="2"/>
      <point x="46" y="5" type="qcurve" smooth="yes"/>
      <point x="46" y="7"/>
      <point x="48" y="10" type="qcurve" smooth="yes"/>
      <point x="111" y="86"/>
      <point x="146" y="134" type="qcurve" smooth="yes"/>
      <point x="462" y="557" type="line"/>
      <point x="317" y="557" type="line" smooth="yes"/>
      <point x="288" y="557"/>
      <point x="251" y="553"/>
      <point x="190" y="523"/>
      <point x="170" y="494" type="qcurve" smooth="yes"/>
      <point x="166" y="488"/>
      <point x="143" y="485"/>
      <point x="125" y="491"/>
      <point x="127" y="497" type="qcurve" smooth="yes"/>
      <point x="184" y="615" type="line" smooth="yes"/>
      <point x="188" y="625"/>
      <point x="192" y="632"/>
      <point x="200" y="641"/>
      <point x="210" y="643"/>
      <point x="218" y="643" type="qcurve" smooth="yes"/>
      <point x="551" y="643" type="line" smooth="yes"/>
      <point x="571" y="643"/>
      <point x="577" y="626"/>
      <point x="560" y="605"/>
    </contour>
  </outline>
</glyph>
<glyph name="eight" format="1">
  <advance width="466"/>
  <unicode hex="0038"/>
  <outline>
    <contour>
      <point x="512" y="537" type="qcurve" smooth="yes"/>
      <point x="512" y="476"/>
      <point x="427" y="380"/>
      <point x="364" y="351" type="qcurve"/>
      <point x="445" y="293"/>
      <point x="445" y="211" type="qcurve" smooth="yes"/>
      <point x="445" y="121"/>
      <point x="284" y="-8"/>
      <point x="191" y="-8" type="qcurve" smooth="yes"/>
      <point x="121" y="-8"/>
      <point x="30" y="59"/>
      <point x="30" y="120" type="qcurve" smooth="yes"/>
      <point x="30" y="192"/>
      <point x="126" y="286"/>
      <point x="206" y="320" type="qcurve"/>
      <point x="135" y="374"/>
      <point x="135" y="443" type="qcurve" smooth="yes"/>
      <point x="135" y="527"/>
      <point x="281" y="651"/>
      <point x="367" y="651" type="qcurve" smooth="yes"/>
      <point x="433" y="651"/>
      <point x="512" y="594"/>
    </contour>
    <contour>
      <point x="405" y="529" type="qcurve" smooth="yes"/>
      <point x="405" y="602"/>
      <point x="342" y="602" type="qcurve" smooth="yes"/>
      <point x="303" y="602"/>
      <point x="239" y="534"/>
      <point x="239" y="495" type="qcurve" smooth="yes"/>
      <point x="239" y="438"/>
      <point x="327" y="382" type="qcurve"/>
      <point x="405" y="435"/>
    </contour>
    <contour>
      <point x="329" y="167" type="qcurve" smooth="yes"/>
      <point x="329" y="230"/>
      <point x="243" y="291" type="qcurve"/>
      <point x="198" y="267"/>
      <point x="145" y="176"/>
      <point x="145" y="124" type="qcurve" smooth="yes"/>
      <point x="145" y="87"/>
      <point x="182" y="37"/>
      <point x="218" y="37" type="qcurve" smooth="yes"/>
      <point x="262" y="37"/>
      <point x="329" y="121"/>
    </contour>
  </outline>
</glyph>
<glyph name="nine" format="1">
  <advance width="466"/>
  <unicode hex="0039"/>
  <outline>
    <contour>
      <point x="367" y="184" type="qcurve" smooth="yes"/>
      <point x="244" y="58"/>
      <point x="60" y="-20" type="qcurve" smooth="yes"/>
      <point x="53" y="-23"/>
      <point x="44" y="-5"/>
      <point x="44" y="18"/>
      <point x="50" y="21" type="qcurve" smooth="yes"/>
      <point x="159" y="74"/>
      <point x="287" y="200"/>
      <point x="347" y="306" type="qcurve"/>
      <point x="326" y="290"/>
      <point x="258" y="261"/>
      <point x="233" y="261" type="qcurve" smooth="yes"/>
      <point x="170" y="261"/>
      <point x="98" y="335"/>
      <point x="98" y="389" type="qcurve" smooth="yes"/>
      <point x="98" y="440"/>
      <point x="153" y="546"/>
      <point x="193" y="582" type="qcurve" smooth="yes"/>
      <point x="270" y="651"/>
      <point x="370" y="651" type="qcurve" smooth="yes"/>
      <point x="445" y="651"/>
      <point x="518" y="563"/>
      <point x="518" y="495" type="qcurve" smooth="yes"/>
      <point x="518" y="339"/>
    </contour>
    <contour>
      <point x="407" y="519" type="qcurve" smooth="yes"/>
      <point x="407" y="599"/>
      <point x="342" y="599" type="qcurve" smooth="yes"/>
      <point x="289" y="599"/>
      <point x="218" y="478"/>
      <point x="218" y="420" type="qcurve" smooth="yes"/>
      <point x="218" y="382"/>
      <point x="252" y="329"/>
      <point x="283" y="329" type="qcurve" smooth="yes"/>
      <point x="330" y="329"/>
      <point x="369" y="358" type="qcurve"/>
      <point x="385" y="389"/>
      <point x="407" y="484"/>
    </contour>
  </outline>
</glyph>
<glyph name="colon" format="1">
  <advance width="289"/>
  <unicode hex="003A"/>
  <outline>
    <contour>
      <point x="309" y="345" type="qcurve" smooth="yes"/>
      <point x="309" y="314"/>
      <point x="264" y="269"/>
      <point x="202" y="269"/>
      <point x="179" y="292" type="qcurve" smooth="yes"/>
      <point x="156" y="314"/>
      <point x="156" y="376"/>
      <point x="202" y="422"/>
      <point x="264" y="422"/>
      <point x="309" y="377"/>
    </contour>
    <contour>
      <point x="226" y="64" type="qcurve" smooth="yes"/>
      <point x="226" y="32"/>
      <point x="204" y="9" type="qcurve" smooth="yes"/>
      <point x="182" y="-13"/>
      <point x="150" y="-13" type="qcurve" smooth="yes"/>
      <point x="119" y="-13"/>
      <point x="97" y="9" type="qcurve" smooth="yes"/>
      <point x="75" y="32"/>
      <point x="74" y="64" type="qcurve" smooth="yes"/>
      <point x="74" y="95"/>
      <point x="119" y="140"/>
      <point x="181" y="140"/>
      <point x="226" y="95"/>
    </contour>
  </outline>
</glyph>
<glyph name="semicolon" format="1">
  <advance width="289"/>
  <unicode hex="003B"/>
  <outline>
    <contour>
      <point x="293" y="316"/>
      <point x="249" y="274"/>
      <point x="187" y="274"/>
      <point x="144" y="316"/>
      <point x="144" y="378"/>
      <point x="187" y="422"/>
      <point x="249" y="422"/>
      <point x="293" y="378"/>
    </contour>
    <contour>
      <point x="236" y="86" type="qcurve" smooth="yes"/>
      <point x="236" y="37"/>
      <point x="148" y="-69"/>
      <point x="103" y="-101" type="qcurve" smooth="yes"/>
      <point x="58" y="-132"/>
      <point x="26" y="-144" type="qcurve" smooth="yes"/>
      <point x="18" y="-148"/>
      <point x="11" y="-134" type="qcurve" smooth="yes"/>
      <point x="3" y="-121"/>
      <point x="10" y="-115" type="qcurve" smooth="yes"/>
      <point x="22" y="-104"/>
      <point x="63" y="-72"/>
      <point x="111" y="-14"/>
      <point x="119" y="12" type="qcurve" smooth="yes"/>
      <point x="124" y="27"/>
      <point x="113" y="32" type="qcurve" smooth="yes"/>
      <point x="100" y="37"/>
      <point x="87" y="53" type="qcurve" smooth="yes"/>
      <point x="75" y="69"/>
      <point x="75" y="93" type="qcurve" smooth="yes"/>
      <point x="75" y="122"/>
      <point x="124" y="166"/>
      <point x="192" y="166"/>
      <point x="236" y="124"/>
    </contour>
  </outline>
</glyph>
<glyph name="less" format="1">
  <advance width="500"/>
  <unicode hex="003C"/>
  <outline>
    <contour>
      <point x="168" y="206" type="line"/>
      <point x="463" y="79" type="line"/>
      <point x="463" y="-11" type="line"/>
      <point x="38" y="174" type="line"/>
      <point x="38" y="237" type="line"/>
      <point x="463" y="423" type="line"/>
      <point x="463" y="333" type="line"/>
    </contour>
  </outline>
</glyph>
<glyph name="equal" format="1">
  <advance width="519"/>
  <unicode hex="003D"/>
  <outline>
    <contour>
      <point x="463" y="281" type="line"/>
      <point x="58" y="281" type="line"/>
      <point x="58" y="350" type="line"/>
      <point x="463" y="350" type="line"/>
    </contour>
    <contour>
      <point x="463" y="131" type="line"/>
      <point x="58" y="131" type="line"/>
      <point x="58" y="200" type="line"/>
      <point x="463" y="200" type="line"/>
    </contour>
  </outline>
</glyph>
<glyph name="question" format="1">
  <advance width="338"/>
  <unicode hex="003F"/>
  <outline>
    <contour>
      <point x="124" y="285" type="qcurve" smooth="yes"/>
      <point x="124" y="328"/>
      <point x="164" y="380"/>
      <point x="204" y="397" type="qcurve" smooth="yes"/>
      <point x="263" y="423" type="line" smooth="yes"/>
      <point x="348" y="460"/>
      <point x="348" y="509" type="qcurve" smooth="yes"/>
      <point x="348" y="559"/>
      <point x="236" y="559" type="qcurve" smooth="yes"/>
      <point x="224" y="559"/>
      <point x="194" y="586"/>
      <point x="194" y="607" type="qcurve" smooth="yes"/>
      <point x="194" y="629"/>
      <point x="237" y="672"/>
      <point x="267" y="672" type="qcurve" smooth="yes"/>
      <point x="323" y="672"/>
      <point x="395" y="571"/>
      <point x="395" y="501" type="qcurve" smooth="yes"/>
      <point x="395" y="445"/>
      <point x="349" y="355"/>
      <point x="316" y="341" type="qcurve" smooth="yes"/>
      <point x="230" y="304" type="line" smooth="yes"/>
      <point x="187" y="286"/>
      <point x="171" y="249"/>
      <point x="171" y="216" type="qcurve" smooth="yes"/>
      <point x="171" y="208"/>
      <point x="140" y="200"/>
      <point x="138" y="208" type="qcurve" smooth="yes"/>
      <point x="124" y="262"/>
    </contour>
    <contour>
      <point x="183" y="62" type="qcurve" smooth="yes"/>
      <point x="183" y="29"/>
      <point x="141" y="-13"/>
      <point x="77" y="-13"/>
      <point x="33" y="28"/>
      <point x="33" y="95"/>
      <point x="76" y="141"/>
      <point x="142" y="141"/>
      <point x="183" y="95"/>
    </contour>
  </outline>
</glyph>
<glyph name="at" format="1">
  <advance width="779"/>
  <unicode hex="0040"/>
  <outline>
    <contour>
      <point x="484" y="480" type="qcurve"/>
      <point x="494" y="505" type="line" smooth="yes"/>
      <point x="497" y="514"/>
      <point x="520" y="514" type="qcurve" smooth="yes"/>
      <point x="528" y="514"/>
      <point x="554" y="501"/>
      <point x="551" y="493" type="qcurve" smooth="yes"/>
      <point x="482" y="260" type="line" smooth="yes"/>
      <point x="468" y="210"/>
      <point x="489" y="210" type="qcurve" smooth="yes"/>
      <point x="570" y="210"/>
      <point x="682" y="323"/>
      <point x="682" y="410" type="qcurve" smooth="yes"/>
      <point x="682" y="507"/>
      <point x="539" y="634"/>
      <point x="431" y="634" type="qcurve" smooth="yes"/>
      <point x="339" y="634"/>
      <point x="196" y="537"/>
      <point x="124" y="384"/>
      <point x="124" y="295" type="qcurve" smooth="yes"/>
      <point x="124" y="259"/>
      <point x="141" y="189"/>
      <point x="183" y="117"/>
      <point x="246" y="62"/>
      <point x="348" y="27"/>
      <point x="412" y="27" type="qcurve" smooth="yes"/>
      <point x="478" y="27"/>
      <point x="570" y="62" type="qcurve" smooth="yes"/>
      <point x="578" y="66"/>
      <point x="591" y="41"/>
      <point x="583" y="37" type="qcurve" smooth="yes"/>
      <point x="497" y="-16"/>
      <point x="382" y="-16" type="qcurve" smooth="yes"/>
      <point x="317" y="-16"/>
      <point x="196" y="22"/>
      <point x="96" y="96"/>
      <point x="35" y="218"/>
      <point x="35" y="294" type="qcurve" smooth="yes"/>
      <point x="35" y="408"/>
      <point x="150" y="585"/>
      <point x="333" y="676"/>
      <point x="440" y="676" type="qcurve" smooth="yes"/>
      <point x="580" y="676"/>
      <point x="745" y="521"/>
      <point x="745" y="414" type="qcurve" smooth="yes"/>
      <point x="745" y="316"/>
      <point x="597" y="172"/>
      <point x="476" y="172" type="qcurve" smooth="yes"/>
      <point x="406" y="172"/>
      <point x="406" y="213" type="qcurve" smooth="yes"/>
      <point x="406" y="228"/>
      <point x="415" y="253" type="qcurve"/>
      <point x="410" y="256" type="line"/>
      <point x="338" y="175"/>
      <point x="288" y="175" type="qcurve" smooth="yes"/>
      <point x="259" y="175"/>
      <point x="233" y="215"/>
      <point x="233" y="241" type="qcurve" smooth="yes"/>
      <point x="233" y="288"/>
      <point x="287" y="405"/>
      <point x="386" y="495"/>
      <point x="439" y="495" type="qcurve" smooth="yes"/>
      <point x="469" y="495"/>
    </contour>
    <contour>
      <point x="431" y="472" type="qcurve" smooth="yes"/>
      <point x="401" y="472"/>
      <point x="341" y="387"/>
      <point x="307" y="285"/>
      <point x="307" y="253" type="qcurve" smooth="yes"/>
      <point x="307" y="219"/>
      <point x="322" y="219" type="qcurve" smooth="yes"/>
      <point x="347" y="219"/>
      <point x="403" y="283" type="qcurve" smooth="yes"/>
      <point x="433" y="317"/>
      <point x="451" y="377" type="qcurve" smooth="yes"/>
      <point x="472" y="449" type="line"/>
      <point x="463" y="472"/>
    </contour>
  </outline>
</glyph>
<glyph name="A" format="1">
  <advance width="568"/>
  <unicode hex="0041"/>
  <outline>
    <contour>
      <point x="463" y="691" type="move" name="Anchor-0"/>
    </contour>
    <contour>
      <point x="453" y="99" type="line" smooth="yes"/>
      <point x="452" y="92"/>
      <point x="452" y="84" type="qcurve" smooth="yes"/>
      <point x="452" y="42"/>
      <point x="514" y="42" type="qcurve" smooth="yes"/>
      <point x="518" y="42"/>
      <point x="518" y="23"/>
      <point x="509" y="-4"/>
      <point x="503" y="-4" type="qcurve" smooth="yes"/>
      <point x="466" y="0"/>
      <point x="315" y="0"/>
      <point x="278" y="-4" type="qcurve" smooth="yes"/>
      <point x="274" y="-4"/>
      <point x="274" y="13"/>
      <point x="283" y="42"/>
      <point x="288" y="42" type="qcurve" smooth="yes"/>
      <point x="318" y="42"/>
      <point x="345" y="63"/>
      <point x="350" y="99" type="qcurve" smooth="yes"/>
      <point x="368" y="237" type="line" smooth="yes"/>
      <point x="370" y="256"/>
      <point x="350" y="255" type="qcurve" smooth="yes"/>
      <point x="229" y="255" type="line" smooth="yes"/>
      <point x="214" y="255"/>
      <point x="206" y="242" type="qcurve" smooth="yes"/>
      <point x="114" y="98" type="line" smooth="yes"/>
      <point x="102" y="79"/>
      <point x="102" y="69" type="qcurve" smooth="yes"/>
      <point x="102" y="42"/>
      <point x="161" y="42" type="qcurve" smooth="yes"/>
      <point x="165" y="42"/>
      <point x="165" y="24"/>
      <point x="157" y="-4"/>
      <point x="151" y="-4" type="qcurve" smooth="yes"/>
      <point x="114" y="0"/>
      <point x="-36" y="0"/>
      <point x="-74" y="-4" type="qcurve" smooth="yes"/>
      <point x="-78" y="-4"/>
      <point x="-78" y="9"/>
      <point x="-71" y="42"/>
      <point x="-63" y="42" type="qcurve" smooth="yes"/>
      <point x="-10" y="42"/>
      <point x="37" y="76"/>
      <point x="57" y="106" type="qcurve" smooth="yes"/>
      <point x="377" y="582" type="line" smooth="yes"/>
      <point x="381" y="588"/>
      <point x="381" y="598"/>
      <point x="372" y="610"/>
      <point x="372" y="615" type="qcurve" smooth="yes"/>
      <point x="372" y="625"/>
      <point x="405" y="636" type="qcurve" smooth="yes"/>
      <point x="439" y="648"/>
      <point x="493" y="677"/>
      <point x="506" y="677" type="qcurve" smooth="yes"/>
      <point x="527" y="677"/>
      <point x="527" y="652" type="qcurve" smooth="yes"/>
      <point x="527" y="641"/>
      <point x="513" y="585"/>
      <point x="510" y="562" type="qcurve" smooth="yes"/>
    </contour>
    <contour>
      <point x="378" y="317" type="qcurve" smooth="yes"/>
      <point x="401" y="519" type="line" smooth="yes"/>
      <point x="402" y="526"/>
      <point x="398" y="526" type="qcurve" smooth="yes"/>
      <point x="394" y="526"/>
      <point x="390" y="520" type="qcurve" smooth="yes"/>
      <point x="251" y="311" type="line" smooth="yes"/>
      <point x="248" y="307"/>
      <point x="249" y="296"/>
      <point x="258" y="296" type="qcurve" smooth="yes"/>
      <point x="357" y="296" type="line" smooth="yes"/>
      <point x="376" y="296"/>
    </contour>
  </outline>
</glyph>
<glyph name="B" format="1">
  <advance width="607"/>
  <unicode hex="0042"/>
  <outline>
    <contour>
      <point x="579" y="221" type="qcurve" smooth="yes"/>
      <point x="579" y="141"/>
      <point x="441" y="-3"/>
      <point x="266" y="-3" type="qcurve" smooth="yes"/>
      <point x="237" y="-3"/>
      <point x="164" y="0"/>
      <point x="101" y="0"/>
      <point x="-8" y="-4" type="qcurve" smooth="yes"/>
      <point x="-12" y="-4"/>
      <point x="-12" y="8"/>
      <point x="-4" y="42"/>
      <point x="4" y="42" type="qcurve" smooth="yes"/>
      <point x="58" y="42"/>
      <point x="91" y="74"/>
      <point x="98" y="99" type="qcurve" smooth="yes"/>
      <point x="238" y="564" type="line" smooth="yes"/>
      <point x="242" y="577"/>
      <point x="242" y="590" type="qcurve" smooth="yes"/>
      <point x="242" y="602"/>
      <point x="213" y="617"/>
      <point x="169" y="617" type="qcurve" smooth="yes"/>
      <point x="166" y="617"/>
      <point x="166" y="629"/>
      <point x="175" y="663"/>
      <point x="182" y="663" type="qcurve" smooth="yes"/>
      <point x="250" y="661"/>
      <point x="338" y="661"/>
      <point x="417" y="663"/>
      <point x="453" y="663" type="qcurve" smooth="yes"/>
      <point x="535" y="663"/>
      <point x="627" y="593"/>
      <point x="627" y="536" type="qcurve" smooth="yes"/>
      <point x="627" y="480"/>
      <point x="554" y="392"/>
      <point x="501" y="367" type="qcurve" smooth="yes"/>
      <point x="491" y="362"/>
      <point x="491" y="353"/>
      <point x="500" y="347" type="qcurve" smooth="yes"/>
      <point x="579" y="296"/>
    </contour>
    <contour>
      <point x="513" y="534" type="qcurve" smooth="yes"/>
      <point x="513" y="581"/>
      <point x="461" y="625"/>
      <point x="388" y="625" type="qcurve" smooth="yes"/>
      <point x="370" y="625"/>
      <point x="365" y="605" type="qcurve" smooth="yes"/>
      <point x="299" y="389" type="line" smooth="yes"/>
      <point x="298" y="385"/>
      <point x="298" y="379" type="qcurve" smooth="yes"/>
      <point x="298" y="371"/>
      <point x="323" y="371" type="qcurve" smooth="yes"/>
      <point x="408" y="371"/>
      <point x="513" y="459"/>
    </contour>
    <contour>
      <point x="456" y="234" type="qcurve" smooth="yes"/>
      <point x="456" y="286"/>
      <point x="381" y="333"/>
      <point x="295" y="333" type="qcurve" smooth="yes"/>
      <point x="282" y="333"/>
      <point x="278" y="320" type="qcurve" smooth="yes"/>
      <point x="216" y="112" type="line" smooth="yes"/>
      <point x="212" y="97"/>
      <point x="211" y="80" type="qcurve" smooth="yes"/>
      <point x="211" y="36"/>
      <point x="260" y="36" type="qcurve" smooth="yes"/>
      <point x="356" y="36"/>
      <point x="456" y="138"/>
    </contour>
  </outline>
</glyph>
<glyph name="C" format="1">
  <advance width="717"/>
  <unicode hex="0043"/>
  <outline>
    <contour>
      <point x="585" y="18" type="qcurve"/>
      <point x="559" y="15"/>
      <point x="542" y="8" type="qcurve" smooth="yes"/>
      <point x="456" y="-13"/>
      <point x="346" y="-13" type="qcurve" smooth="yes"/>
      <point x="236" y="-13"/>
      <point x="87" y="117"/>
      <point x="87" y="229" type="qcurve" smooth="yes"/>
      <point x="87" y="400"/>
      <point x="379" y="676"/>
      <point x="561" y="676" type="qcurve" smooth="yes"/>
      <point x="614" y="676"/>
      <point x="744" y="649"/>
      <point x="773" y="649" type="qcurve"/>
      <point x="767" y="561"/>
      <point x="743" y="486" type="qcurve" smooth="yes"/>
      <point x="740" y="478"/>
      <point x="694" y="478"/>
      <point x="696" y="488" type="qcurve" smooth="yes"/>
      <point x="700" y="514"/>
      <point x="700" y="524" type="qcurve" smooth="yes"/>
      <point x="700" y="575"/>
      <point x="655" y="604" type="qcurve" smooth="yes"/>
      <point x="610" y="634"/>
      <point x="541" y="634" type="qcurve" smooth="yes"/>
      <point x="407" y="634"/>
      <point x="204" y="381"/>
      <point x="204" y="222" type="qcurve" smooth="yes"/>
      <point x="204" y="148"/>
      <point x="288" y="31"/>
      <point x="375" y="31" type="qcurve" smooth="yes"/>
      <point x="432" y="31"/>
      <point x="522" y="63"/>
      <point x="597" y="133"/>
      <point x="621" y="169" type="qcurve" smooth="yes"/>
      <point x="626" y="176"/>
      <point x="668" y="174"/>
      <point x="668" y="167" type="qcurve" smooth="yes"/>
      <point x="668" y="148"/>
      <point x="601" y="35"/>
    </contour>
  </outline>
</glyph>
<glyph name="D" format="1">
  <advance width="758"/>
  <unicode hex="0044"/>
  <outline>
    <contour>
      <point x="785" y="436" type="qcurve" smooth="yes"/>
      <point x="785" y="280"/>
      <point x="514" y="-4"/>
      <point x="325" y="-4" type="qcurve" smooth="yes"/>
      <point x="304" y="-4"/>
      <point x="155" y="0"/>
      <point x="85" y="0"/>
      <point x="-7" y="-4" type="qcurve" smooth="yes"/>
      <point x="-11" y="-4"/>
      <point x="-12" y="9"/>
      <point x="-4" y="42"/>
      <point x="3" y="42" type="qcurve" smooth="yes"/>
      <point x="42" y="42"/>
      <point x="75" y="54"/>
      <point x="92" y="80"/>
      <point x="98" y="99" type="qcurve" smooth="yes"/>
      <point x="238" y="563" type="line" smooth="yes"/>
      <point x="242" y="577"/>
      <point x="242" y="588" type="qcurve" smooth="yes"/>
      <point x="242" y="600"/>
      <point x="217" y="617"/>
      <point x="170" y="617" type="qcurve" smooth="yes"/>
      <point x="162" y="617"/>
      <point x="173" y="663"/>
      <point x="180" y="663" type="qcurve" smooth="yes"/>
      <point x="224" y="661"/>
      <point x="362" y="661"/>
      <point x="468" y="663"/>
      <point x="492" y="663" type="qcurve" smooth="yes"/>
      <point x="626" y="663"/>
      <point x="785" y="544"/>
    </contour>
    <contour>
      <point x="658" y="424" type="qcurve" smooth="yes"/>
      <point x="658" y="516"/>
      <point x="544" y="625"/>
      <point x="451" y="625" type="qcurve" smooth="yes"/>
      <point x="419" y="625"/>
      <point x="381" y="621"/>
      <point x="364" y="601"/>
      <point x="358" y="581" type="qcurve" smooth="yes"/>
      <point x="220" y="129" type="line" smooth="yes"/>
      <point x="214" y="108"/>
      <point x="214" y="92" type="qcurve" smooth="yes"/>
      <point x="214" y="34"/>
      <point x="300" y="35" type="qcurve" smooth="yes"/>
      <point x="433" y="35"/>
      <point x="658" y="286"/>
    </contour>
  </outline>
</glyph>
<glyph name="E" format="1">
  <advance width="613"/>
  <unicode hex="0045"/>
  <outline>
    <contour>
      <point x="448" y="691" type="move" name="Anchor-0"/>
    </contour>
    <contour>
      <point x="527" y="10" type="line" smooth="yes"/>
      <point x="523" y="-4"/>
      <point x="499" y="-4" type="qcurve" smooth="yes"/>
      <point x="450" y="-4"/>
      <point x="188" y="0"/>
      <point x="79" y="0"/>
      <point x="-7" y="-4" type="qcurve" smooth="yes"/>
      <point x="-11" y="-4"/>
      <point x="-12" y="9"/>
      <point x="-4" y="42"/>
      <point x="3" y="42" type="qcurve" smooth="yes"/>
      <point x="51" y="42"/>
      <point x="88" y="67"/>
      <point x="100" y="106" type="qcurve" smooth="yes"/>
      <point x="238" y="565" type="line" smooth="yes"/>
      <point x="240" y="571"/>
      <point x="240" y="584" type="qcurve" smooth="yes"/>
      <point x="240" y="617"/>
      <point x="169" y="617" type="qcurve" smooth="yes"/>
      <point x="165" y="617"/>
      <point x="165" y="631"/>
      <point x="174" y="663"/>
      <point x="180" y="663" type="qcurve" smooth="yes"/>
      <point x="230" y="661"/>
      <point x="365" y="661"/>
      <point x="607" y="663"/>
      <point x="656" y="663" type="qcurve" smooth="yes"/>
      <point x="687" y="663"/>
      <point x="687" y="648" type="qcurve" smooth="yes"/>
      <point x="687" y="642"/>
      <point x="685" y="635" type="qcurve" smooth="yes"/>
      <point x="644" y="494" type="line" smooth="yes"/>
      <point x="641" y="485"/>
      <point x="596" y="485"/>
      <point x="598" y="493" type="qcurve" smooth="yes"/>
      <point x="601" y="509"/>
      <point x="601" y="534" type="qcurve" smooth="yes"/>
      <point x="601" y="558"/>
      <point x="561" y="611"/>
      <point x="520" y="614" type="qcurve" smooth="yes"/>
      <point x="448" y="618"/>
      <point x="388" y="617" type="qcurve" smooth="yes"/>
      <point x="369" y="617"/>
      <point x="365" y="602" type="qcurve" smooth="yes"/>
      <point x="287" y="354" type="line" smooth="yes"/>
      <point x="286" y="350"/>
      <point x="286" y="347" type="qcurve" smooth="yes"/>
      <point x="286" y="338"/>
      <point x="297" y="338" type="qcurve" smooth="yes"/>
      <point x="385" y="338" type="line" smooth="yes"/>
      <point x="408" y="338"/>
      <point x="419" y="343" type="qcurve" smooth="yes"/>
      <point x="430" y="347"/>
      <point x="435" y="361" type="qcurve" smooth="yes"/>
      <point x="458" y="432" type="line" smooth="yes"/>
      <point x="461" y="441"/>
      <point x="505" y="441"/>
      <point x="502" y="432" type="qcurve" smooth="yes"/>
      <point x="466" y="329"/>
      <point x="435" y="204" type="qcurve" smooth="yes"/>
      <point x="433" y="196"/>
      <point x="391" y="196"/>
      <point x="394" y="204" type="qcurve" smooth="yes"/>
      <point x="410" y="267" type="line" smooth="yes"/>
      <point x="414" y="281"/>
      <point x="396" y="292"/>
      <point x="377" y="292" type="qcurve" smooth="yes"/>
      <point x="279" y="292" type="line" smooth="yes"/>
      <point x="269" y="292"/>
      <point x="265" y="279" type="qcurve" smooth="yes"/>
      <point x="214" y="109" type="line" smooth="yes"/>
      <point x="209" y="93"/>
      <point x="209" y="76" type="qcurve" smooth="yes"/>
      <point x="209" y="36"/>
      <point x="257" y="38" type="qcurve" smooth="yes"/>
      <point x="399" y="44" type="line" smooth="yes"/>
      <point x="480" y="47"/>
      <point x="530" y="187" type="qcurve" smooth="yes"/>
      <point x="532" y="195"/>
      <point x="579" y="195"/>
      <point x="576" y="187" type="qcurve" smooth="yes"/>
    </contour>
  </outline>
</glyph>
<glyph name="F" format="1">
  <advance width="603"/>
  <unicode hex="0046"/>
  <outline>
    <contour>
      <point x="212" y="99" type="line" smooth="yes"/>
      <point x="208" y="85"/>
      <point x="208" y="72" type="qcurve" smooth="yes"/>
      <point x="208" y="42"/>
      <point x="280" y="42" type="qcurve" smooth="yes"/>
      <point x="284" y="42"/>
      <point x="284" y="28"/>
      <point x="275" y="-4"/>
      <point x="270" y="-4" type="qcurve" smooth="yes"/>
      <point x="233" y="0"/>
      <point x="30" y="0"/>
      <point x="-7" y="-4" type="qcurve" smooth="yes"/>
      <point x="-11" y="-4"/>
      <point x="-12" y="9"/>
      <point x="-4" y="42"/>
      <point x="3" y="42" type="qcurve" smooth="yes"/>
      <point x="45" y="42"/>
      <point x="66" y="52" type="qcurve" smooth="yes"/>
      <point x="87" y="62"/>
      <point x="98" y="99" type="qcurve" smooth="yes"/>
      <point x="238" y="564" type="line" smooth="yes"/>
      <point x="242" y="577"/>
      <point x="242" y="589" type="qcurve" smooth="yes"/>
      <point x="242" y="617"/>
      <point x="170" y="617" type="qcurve" smooth="yes"/>
      <point x="166" y="617"/>
      <point x="166" y="632"/>
      <point x="174" y="663"/>
      <point x="180" y="663" type="qcurve" smooth="yes"/>
      <point x="250" y="660"/>
      <point x="364" y="660"/>
      <point x="606" y="663"/>
      <point x="655" y="663" type="qcurve" smooth="yes"/>
      <point x="687" y="663"/>
      <point x="687" y="651" type="qcurve" smooth="yes"/>
      <point x="687" y="643"/>
      <point x="685" y="634" type="qcurve" smooth="yes"/>
      <point x="643" y="494" type="line" smooth="yes"/>
      <point x="638" y="486"/>
      <point x="595" y="486"/>
      <point x="598" y="494" type="qcurve" smooth="yes"/>
      <point x="603" y="512"/>
      <point x="603" y="558"/>
      <point x="554" y="613"/>
      <point x="520" y="614" type="qcurve" smooth="yes"/>
      <point x="423" y="617"/>
      <point x="378" y="617" type="qcurve" smooth="yes"/>
      <point x="368" y="617"/>
      <point x="363" y="601" type="qcurve" smooth="yes"/>
      <point x="294" y="374" type="line" smooth="yes"/>
      <point x="293" y="368"/>
      <point x="293" y="364" type="qcurve" smooth="yes"/>
      <point x="293" y="354"/>
      <point x="303" y="354" type="qcurve" smooth="yes"/>
      <point x="364" y="354" type="line" smooth="yes"/>
      <point x="419" y="354"/>
      <point x="437" y="417" type="qcurve" smooth="yes"/>
      <point x="452" y="472" type="line" smooth="yes"/>
      <point x="454" y="480"/>
      <point x="500" y="479"/>
      <point x="498" y="472" type="qcurve" smooth="yes"/>
      <point x="485" y="441"/>
      <point x="419" y="215"/>
      <point x="414" y="191" type="qcurve" smooth="yes"/>
      <point x="412" y="184"/>
      <point x="370" y="185"/>
      <point x="372" y="191" type="qcurve" smooth="yes"/>
      <point x="382" y="224" type="line" smooth="yes"/>
      <point x="394" y="265"/>
      <point x="394" y="276" type="qcurve" smooth="yes"/>
      <point x="394" y="309"/>
      <point x="354" y="309" type="qcurve" smooth="yes"/>
      <point x="287" y="309" type="line" smooth="yes"/>
      <point x="275" y="309"/>
      <point x="271" y="292" type="qcurve" smooth="yes"/>
    </contour>
  </outline>
</glyph>
<glyph name="G" format="1">
  <advance width="720"/>
  <unicode hex="0047"/>
  <outline>
    <contour>
      <point x="622" y="65" type="line" smooth="yes"/>
      <point x="620" y="58"/>
      <point x="620" y="44"/>
      <point x="635" y="41"/>
      <point x="635" y="35" type="qcurve" smooth="yes"/>
      <point x="635" y="14"/>
      <point x="622" y="14" type="qcurve" smooth="yes"/>
      <point x="591" y="14"/>
      <point x="461" y="-4"/>
      <point x="375" y="-13"/>
      <point x="352" y="-13" type="qcurve" smooth="yes"/>
      <point x="232" y="-13"/>
      <point x="87" y="119"/>
      <point x="87" y="219" type="qcurve" smooth="yes"/>
      <point x="87" y="391"/>
      <point x="376" y="676"/>
      <point x="551" y="676" type="qcurve" smooth="yes"/>
      <point x="609" y="676"/>
      <point x="742" y="649"/>
      <point x="772" y="649" type="qcurve"/>
      <point x="772" y="571"/>
      <point x="743" y="485" type="qcurve" smooth="yes"/>
      <point x="741" y="478"/>
      <point x="696" y="479"/>
      <point x="697" y="488" type="qcurve" smooth="yes"/>
      <point x="699" y="516"/>
      <point x="699" y="517" type="qcurve" smooth="yes"/>
      <point x="699" y="578"/>
      <point x="606" y="634"/>
      <point x="539" y="634" type="qcurve" smooth="yes"/>
      <point x="409" y="634"/>
      <point x="205" y="380"/>
      <point x="205" y="238" type="qcurve" smooth="yes"/>
      <point x="205" y="138"/>
      <point x="295" y="31"/>
      <point x="367" y="31" type="qcurve" smooth="yes"/>
      <point x="503" y="31"/>
      <point x="525" y="107" type="qcurve" smooth="yes"/>
      <point x="548" y="188" type="line" smooth="yes"/>
      <point x="551" y="197"/>
      <point x="551" y="204" type="qcurve" smooth="yes"/>
      <point x="551" y="213"/>
      <point x="536" y="224"/>
      <point x="465" y="224" type="qcurve" smooth="yes"/>
      <point x="461" y="224"/>
      <point x="461" y="239"/>
      <point x="469" y="271"/>
      <point x="476" y="271" type="qcurve" smooth="yes"/>
      <point x="504" y="268"/>
      <point x="707" y="268"/>
      <point x="735" y="271" type="qcurve" smooth="yes"/>
      <point x="739" y="271"/>
      <point x="739" y="255"/>
      <point x="730" y="224"/>
      <point x="725" y="224" type="qcurve" smooth="yes"/>
      <point x="688" y="224"/>
      <point x="664" y="207"/>
      <point x="656" y="180" type="qcurve" smooth="yes"/>
    </contour>
  </outline>
</glyph>
<glyph name="H" format="1">
  <advance width="752"/>
  <unicode hex="0048"/>
  <outline>
    <contour>
      <point x="598" y="99" type="line" smooth="yes"/>
      <point x="595" y="87"/>
      <point x="594" y="75" type="qcurve" smooth="yes"/>
      <point x="594" y="42"/>
      <point x="667" y="42" type="qcurve" smooth="yes"/>
      <point x="670" y="42"/>
      <point x="670" y="28"/>
      <point x="661" y="-4"/>
      <point x="656" y="-4" type="qcurve" smooth="yes"/>
      <point x="618" y="0"/>
      <point x="411" y="0"/>
      <point x="374" y="-4" type="qcurve" smooth="yes"/>
      <point x="371" y="-4"/>
      <point x="371" y="10"/>
      <point x="379" y="42"/>
      <point x="386" y="42" type="qcurve" smooth="yes"/>
      <point x="429" y="42"/>
      <point x="473" y="65"/>
      <point x="483" y="99" type="qcurve" smooth="yes"/>
      <point x="540" y="300" type="line" smooth="yes"/>
      <point x="542" y="307"/>
      <point x="542" y="319"/>
      <point x="529" y="319" type="qcurve" smooth="yes"/>
      <point x="295" y="319" type="line" smooth="yes"/>
      <point x="278" y="319"/>
      <point x="274" y="303" type="qcurve" smooth="yes"/>
      <point x="215" y="99" type="line" smooth="yes"/>
      <point x="212" y="87"/>
      <point x="212" y="75" type="qcurve" smooth="yes"/>
      <point x="212" y="42"/>
      <point x="285" y="42" type="qcurve" smooth="yes"/>
      <point x="288" y="42"/>
      <point x="288" y="28"/>
      <point x="279" y="-4"/>
      <point x="273" y="-4" type="qcurve" smooth="yes"/>
      <point x="235" y="0"/>
      <point x="29" y="0"/>
      <point x="-8" y="-4" type="qcurve" smooth="yes"/>
      <point x="-12" y="-4"/>
      <point x="-12" y="9"/>
      <point x="-4" y="42"/>
      <point x="4" y="42" type="qcurve" smooth="yes"/>
      <point x="47" y="42"/>
      <point x="91" y="65"/>
      <point x="101" y="99" type="qcurve" smooth="yes"/>
      <point x="233" y="563" type="line" smooth="yes"/>
      <point x="237" y="576"/>
      <point x="237" y="590" type="qcurve" smooth="yes"/>
      <point x="237" y="620"/>
      <point x="169" y="620" type="qcurve" smooth="yes"/>
      <point x="166" y="620"/>
      <point x="166" y="633"/>
      <point x="176" y="666"/>
      <point x="182" y="666" type="qcurve" smooth="yes"/>
      <point x="210" y="663"/>
      <point x="433" y="663"/>
      <point x="461" y="666" type="qcurve" smooth="yes"/>
      <point x="465" y="666"/>
      <point x="465" y="653"/>
      <point x="454" y="620"/>
      <point x="448" y="620" type="qcurve" smooth="yes"/>
      <point x="396" y="620"/>
      <point x="357" y="594"/>
      <point x="349" y="563" type="qcurve" smooth="yes"/>
      <point x="297" y="383" type="line" smooth="yes"/>
      <point x="295" y="376"/>
      <point x="295" y="366"/>
      <point x="309" y="366" type="qcurve" smooth="yes"/>
      <point x="542" y="366" type="line" smooth="yes"/>
      <point x="560" y="366"/>
      <point x="564" y="383" type="qcurve" smooth="yes"/>
      <point x="616" y="563" type="line" smooth="yes"/>
      <point x="620" y="576"/>
      <point x="620" y="590" type="qcurve" smooth="yes"/>
      <point x="620" y="620"/>
      <point x="551" y="620" type="qcurve" smooth="yes"/>
      <point x="548" y="620"/>
      <point x="548" y="633"/>
      <point x="559" y="666"/>
      <point x="564" y="666" type="qcurve" smooth="yes"/>
      <point x="592" y="663"/>
      <point x="815" y="663"/>
      <point x="843" y="666" type="qcurve" smooth="yes"/>
      <point x="847" y="666"/>
      <point x="847" y="654"/>
      <point x="837" y="620"/>
      <point x="830" y="620" type="qcurve" smooth="yes"/>
      <point x="774" y="620"/>
      <point x="739" y="592"/>
      <point x="731" y="563" type="qcurve" smooth="yes"/>
    </contour>
  </outline>
</glyph>
<glyph name="I" format="1">
  <advance width="368"/>
  <unicode hex="0049"/>
  <outline>
    <contour>
      <point x="327" y="691" type="move" name="Anchor-0"/>
    </contour>
    <contour>
      <point x="215" y="99" type="line" smooth="yes"/>
      <point x="212" y="87"/>
      <point x="212" y="73" type="qcurve" smooth="yes"/>
      <point x="212" y="42"/>
      <point x="285" y="42" type="qcurve" smooth="yes"/>
      <point x="288" y="42"/>
      <point x="288" y="28"/>
      <point x="279" y="-4"/>
      <point x="273" y="-4" type="qcurve" smooth="yes"/>
      <point x="235" y="0"/>
      <point x="29" y="0"/>
      <point x="-8" y="-4" type="qcurve" smooth="yes"/>
      <point x="-12" y="-4"/>
      <point x="-12" y="9"/>
      <point x="-4" y="42"/>
      <point x="4" y="42" type="qcurve" smooth="yes"/>
      <point x="47" y="42"/>
      <point x="91" y="65"/>
      <point x="101" y="99" type="qcurve" smooth="yes"/>
      <point x="233" y="563" type="line" smooth="yes"/>
      <point x="237" y="576"/>
      <point x="237" y="594" type="qcurve" smooth="yes"/>
      <point x="237" y="620"/>
      <point x="169" y="620" type="qcurve" smooth="yes"/>
      <point x="166" y="620"/>
      <point x="166" y="633"/>
      <point x="176" y="666"/>
      <point x="182" y="666" type="qcurve" smooth="yes"/>
      <point x="210" y="663"/>
      <point x="433" y="663"/>
      <point x="461" y="666" type="qcurve" smooth="yes"/>
      <point x="465" y="666"/>
      <point x="465" y="654"/>
      <point x="455" y="620"/>
      <point x="448" y="620" type="qcurve" smooth="yes"/>
      <point x="394" y="620"/>
      <point x="356" y="591"/>
      <point x="349" y="563" type="qcurve" smooth="yes"/>
    </contour>
  </outline>
</glyph>
<glyph name="J" format="1">
  <advance width="321"/>
  <unicode hex="004A"/>
  <outline>
    <contour>
      <point x="216" y="133" type="line" smooth="yes"/>
      <point x="167" y="-37"/>
      <point x="79" y="-121" type="qcurve" smooth="yes"/>
      <point x="-8" y="-204"/>
      <point x="-87" y="-204" type="qcurve" smooth="yes"/>
      <point x="-122" y="-204"/>
      <point x="-165" y="-176"/>
      <point x="-165" y="-120"/>
      <point x="-117" y="-88"/>
      <point x="-90" y="-88" type="qcurve" smooth="yes"/>
      <point x="-62" y="-88"/>
      <point x="-23" y="-123"/>
      <point x="-21" y="-148" type="qcurve"/>
      <point x="20" y="-121"/>
      <point x="60" y="-13"/>
      <point x="154" y="312" type="qcurve" smooth="yes"/>
      <point x="227" y="563" type="line" smooth="yes"/>
      <point x="230" y="574"/>
      <point x="230" y="583" type="qcurve" smooth="yes"/>
      <point x="230" y="620"/>
      <point x="169" y="620" type="qcurve" smooth="yes"/>
      <point x="165" y="620"/>
      <point x="165" y="635"/>
      <point x="174" y="666"/>
      <point x="181" y="666" type="qcurve" smooth="yes"/>
      <point x="209" y="663"/>
      <point x="416" y="663"/>
      <point x="444" y="666" type="qcurve" smooth="yes"/>
      <point x="448" y="666"/>
      <point x="448" y="653"/>
      <point x="440" y="620"/>
      <point x="433" y="620" type="qcurve" smooth="yes"/>
      <point x="393" y="620"/>
      <point x="352" y="600"/>
      <point x="341" y="563" type="qcurve" smooth="yes"/>
    </contour>
  </outline>
</glyph>
<glyph name="K" format="1">
  <advance width="655"/>
  <unicode hex="004B"/>
  <outline>
    <contour>
      <point x="528" y="93" type="line" smooth="yes"/>
      <point x="545" y="61"/>
      <point x="591" y="42"/>
      <point x="623" y="42" type="qcurve" smooth="yes"/>
      <point x="628" y="42"/>
      <point x="628" y="22"/>
      <point x="622" y="-4"/>
      <point x="616" y="-4" type="qcurve" smooth="yes"/>
      <point x="571" y="0"/>
      <point x="401" y="0"/>
      <point x="356" y="-4" type="qcurve" smooth="yes"/>
      <point x="351" y="-4"/>
      <point x="352" y="12"/>
      <point x="361" y="42"/>
      <point x="367" y="42" type="qcurve" smooth="yes"/>
      <point x="408" y="42"/>
      <point x="408" y="66" type="qcurve" smooth="yes"/>
      <point x="408" y="76"/>
      <point x="396" y="100" type="qcurve" smooth="yes"/>
      <point x="311" y="275" type="line" smooth="yes"/>
      <point x="303" y="293"/>
      <point x="287" y="306"/>
      <point x="275" y="306"/>
      <point x="271" y="294" type="qcurve" smooth="yes"/>
      <point x="214" y="99" type="line" smooth="yes"/>
      <point x="211" y="87"/>
      <point x="211" y="73" type="qcurve" smooth="yes"/>
      <point x="211" y="42"/>
      <point x="275" y="42" type="qcurve" smooth="yes"/>
      <point x="278" y="42"/>
      <point x="278" y="27"/>
      <point x="270" y="-4"/>
      <point x="263" y="-4" type="qcurve" smooth="yes"/>
      <point x="208" y="0"/>
      <point x="51" y="0"/>
      <point x="-7" y="-3" type="qcurve" smooth="yes"/>
      <point x="-11" y="-3"/>
      <point x="-12" y="7"/>
      <point x="-4" y="42"/>
      <point x="4" y="42" type="qcurve" smooth="yes"/>
      <point x="49" y="42"/>
      <point x="90" y="65"/>
      <point x="100" y="99" type="qcurve" smooth="yes"/>
      <point x="235" y="563" type="line" smooth="yes"/>
      <point x="238" y="575"/>
      <point x="238" y="588" type="qcurve" smooth="yes"/>
      <point x="238" y="620"/>
      <point x="170" y="620" type="qcurve" smooth="yes"/>
      <point x="166" y="620"/>
      <point x="166" y="634"/>
      <point x="176" y="666"/>
      <point x="182" y="666" type="qcurve" smooth="yes"/>
      <point x="217" y="663"/>
      <point x="414" y="663"/>
      <point x="450" y="666" type="qcurve" smooth="yes"/>
      <point x="454" y="666"/>
      <point x="454" y="653"/>
      <point x="443" y="620"/>
      <point x="437" y="620" type="qcurve" smooth="yes"/>
      <point x="396" y="620"/>
      <point x="359" y="601"/>
      <point x="349" y="563" type="qcurve" smooth="yes"/>
      <point x="293" y="370" type="line" smooth="yes"/>
      <point x="292" y="367"/>
      <point x="292" y="361"/>
      <point x="295" y="361" type="qcurve" smooth="yes"/>
      <point x="306" y="361"/>
      <point x="335" y="388" type="qcurve" smooth="yes"/>
      <point x="529" y="565" type="line" smooth="yes"/>
      <point x="560" y="593"/>
      <point x="560" y="607" type="qcurve" smooth="yes"/>
      <point x="560" y="620"/>
      <point x="535" y="620" type="qcurve" smooth="yes"/>
      <point x="531" y="620"/>
      <point x="531" y="632"/>
      <point x="543" y="666"/>
      <point x="549" y="666" type="qcurve" smooth="yes"/>
      <point x="583" y="663"/>
      <point x="724" y="663"/>
      <point x="751" y="666" type="qcurve" smooth="yes"/>
      <point x="755" y="666"/>
      <point x="756" y="654"/>
      <point x="746" y="620"/>
      <point x="739" y="620" type="qcurve" smooth="yes"/>
      <point x="693" y="620"/>
      <point x="664" y="605" type="qcurve" smooth="yes"/>
      <point x="634" y="590"/>
      <point x="585" y="547" type="qcurve" smooth="yes"/>
      <point x="393" y="379" type="line" smooth="yes"/>
      <point x="385" y="372"/>
      <point x="385" y="367" type="qcurve" smooth="yes"/>
      <point x="385" y="362"/>
      <point x="391" y="351" type="qcurve" smooth="yes"/>
    </contour>
  </outline>
</glyph>
<glyph name="L" format="1">
  <advance width="643"/>
  <unicode hex="004C"/>
  <outline>
    <contour>
      <point x="589" y="23" type="line" smooth="yes"/>
      <point x="584" y="2"/>
      <point x="573" y="-4"/>
      <point x="537" y="-4" type="qcurve" smooth="yes"/>
      <point x="488" y="-4"/>
      <point x="202" y="0"/>
      <point x="84" y="0"/>
      <point x="-9" y="-4" type="qcurve" smooth="yes"/>
      <point x="-13" y="-4"/>
      <point x="-13" y="8"/>
      <point x="-2" y="42"/>
      <point x="5" y="42" type="qcurve" smooth="yes"/>
      <point x="66" y="42"/>
      <point x="94" y="74"/>
      <point x="101" y="96" type="qcurve" smooth="yes"/>
      <point x="235" y="563" type="line" smooth="yes"/>
      <point x="239" y="576"/>
      <point x="239" y="589" type="qcurve" smooth="yes"/>
      <point x="239" y="620"/>
      <point x="169" y="620" type="qcurve" smooth="yes"/>
      <point x="166" y="620"/>
      <point x="166" y="634"/>
      <point x="176" y="666"/>
      <point x="182" y="666" type="qcurve" smooth="yes"/>
      <point x="210" y="663"/>
      <point x="439" y="663"/>
      <point x="467" y="666" type="qcurve" smooth="yes"/>
      <point x="470" y="666"/>
      <point x="470" y="653"/>
      <point x="460" y="620"/>
      <point x="454" y="620" type="qcurve" smooth="yes"/>
      <point x="394" y="620"/>
      <point x="362" y="594"/>
      <point x="352" y="563" type="qcurve" smooth="yes"/>
      <point x="222" y="118" type="line" smooth="yes"/>
      <point x="215" y="95"/>
      <point x="215" y="78" type="qcurve" smooth="yes"/>
      <point x="215" y="36"/>
      <point x="269" y="38" type="qcurve" smooth="yes"/>
      <point x="423" y="45" type="line" smooth="yes"/>
      <point x="548" y="50"/>
      <point x="588" y="187" type="qcurve" smooth="yes"/>
      <point x="590" y="195"/>
      <point x="639" y="195"/>
      <point x="636" y="187" type="qcurve" smooth="yes"/>
    </contour>
  </outline>
</glyph>
<glyph name="M" format="1">
  <advance width="941"/>
  <unicode hex="004D"/>
  <outline>
    <contour>
      <point x="787" y="97" type="line" smooth="yes"/>
      <point x="783" y="85"/>
      <point x="783" y="73" type="qcurve" smooth="yes"/>
      <point x="783" y="42"/>
      <point x="855" y="42" type="qcurve" smooth="yes"/>
      <point x="859" y="42"/>
      <point x="859" y="28"/>
      <point x="850" y="-4"/>
      <point x="844" y="-4" type="qcurve" smooth="yes"/>
      <point x="806" y="0"/>
      <point x="614" y="0"/>
      <point x="576" y="-4" type="qcurve" smooth="yes"/>
      <point x="572" y="-4"/>
      <point x="572" y="9"/>
      <point x="583" y="42"/>
      <point x="589" y="42" type="qcurve" smooth="yes"/>
      <point x="627" y="42"/>
      <point x="666" y="72"/>
      <point x="676" y="106" type="qcurve" smooth="yes"/>
      <point x="771" y="420" type="line" smooth="yes"/>
      <point x="772" y="425"/>
      <point x="772" y="429" type="qcurve" smooth="yes"/>
      <point x="772" y="435"/>
      <point x="763" y="435"/>
      <point x="751" y="421" type="qcurve" smooth="yes"/>
      <point x="418" y="11" type="line" smooth="yes"/>
      <point x="403" y="-8"/>
      <point x="379" y="-8"/>
      <point x="375" y="12" type="qcurve" smooth="yes"/>
      <point x="293" y="438" type="line" smooth="yes"/>
      <point x="291" y="452"/>
      <point x="280" y="452"/>
      <point x="276" y="439" type="qcurve" smooth="yes"/>
      <point x="151" y="97" type="line" smooth="yes"/>
      <point x="146" y="84"/>
      <point x="146" y="72" type="qcurve" smooth="yes"/>
      <point x="146" y="42"/>
      <point x="204" y="42" type="qcurve" smooth="yes"/>
      <point x="208" y="42"/>
      <point x="208" y="27"/>
      <point x="198" y="-4"/>
      <point x="192" y="-4" type="qcurve" smooth="yes"/>
      <point x="155" y="0"/>
      <point x="27" y="0"/>
      <point x="-10" y="-4" type="qcurve" smooth="yes"/>
      <point x="-13" y="-4"/>
      <point x="-14" y="8"/>
      <point x="-5" y="42"/>
      <point x="2" y="42" type="qcurve" smooth="yes"/>
      <point x="44" y="42"/>
      <point x="86" y="66"/>
      <point x="102" y="107" type="qcurve" smooth="yes"/>
      <point x="260" y="537" type="line" smooth="yes"/>
      <point x="269" y="560"/>
      <point x="269" y="578" type="qcurve" smooth="yes"/>
      <point x="269" y="620"/>
      <point x="203" y="620" type="qcurve" smooth="yes"/>
      <point x="200" y="620"/>
      <point x="200" y="633"/>
      <point x="212" y="666"/>
      <point x="217" y="666" type="qcurve" smooth="yes"/>
      <point x="263" y="663"/>
      <point x="346" y="663"/>
      <point x="354" y="653" type="qcurve" smooth="yes"/>
      <point x="365" y="642"/>
      <point x="371" y="617" type="qcurve" smooth="yes"/>
      <point x="459" y="176" type="line" smooth="yes"/>
      <point x="461" y="163"/>
      <point x="468" y="164" type="qcurve" smooth="yes"/>
      <point x="474" y="164"/>
      <point x="482" y="173" type="qcurve" smooth="yes"/>
      <point x="848" y="626" type="line" smooth="yes"/>
      <point x="865" y="647"/>
      <point x="881" y="655" type="qcurve" smooth="yes"/>
      <point x="898" y="663"/>
      <point x="979" y="663"/>
      <point x="1031" y="666" type="qcurve" smooth="yes"/>
      <point x="1034" y="666"/>
      <point x="1034" y="654"/>
      <point x="1024" y="620"/>
      <point x="1018" y="620" type="qcurve" smooth="yes"/>
      <point x="964" y="620"/>
      <point x="934" y="588"/>
      <point x="915" y="526" type="qcurve" smooth="yes"/>
    </contour>
  </outline>
</glyph>
<glyph name="N" format="1">
  <advance width="721"/>
  <unicode hex="004E"/>
  <outline>
    <contour>
      <point x="582" y="13" type="line" smooth="yes"/>
      <point x="574" y="-13"/>
      <point x="533" y="-13"/>
      <point x="526" y="1" type="qcurve" smooth="yes"/>
      <point x="280" y="492" type="line" smooth="yes"/>
      <point x="274" y="503"/>
      <point x="264" y="503"/>
      <point x="260" y="492" type="qcurve" smooth="yes"/>
      <point x="148" y="99" type="line" smooth="yes"/>
      <point x="144" y="83"/>
      <point x="144" y="71" type="qcurve" smooth="yes"/>
      <point x="144" y="42"/>
      <point x="204" y="42" type="qcurve" smooth="yes"/>
      <point x="208" y="42"/>
      <point x="208" y="28"/>
      <point x="198" y="-4"/>
      <point x="192" y="-4" type="qcurve" smooth="yes"/>
      <point x="155" y="0"/>
      <point x="27" y="0"/>
      <point x="-10" y="-4" type="qcurve" smooth="yes"/>
      <point x="-13" y="-4"/>
      <point x="-14" y="8"/>
      <point x="-5" y="42"/>
      <point x="2" y="42" type="qcurve" smooth="yes"/>
      <point x="49" y="42"/>
      <point x="88" y="67"/>
      <point x="97" y="99" type="qcurve" smooth="yes"/>
      <point x="221" y="535" type="line" smooth="yes"/>
      <point x="229" y="562"/>
      <point x="229" y="609"/>
      <point x="207" y="616" type="qcurve" smooth="yes"/>
      <point x="191" y="620"/>
      <point x="165" y="620" type="qcurve" smooth="yes"/>
      <point x="162" y="620"/>
      <point x="162" y="633"/>
      <point x="172" y="666"/>
      <point x="179" y="666" type="qcurve" smooth="yes"/>
      <point x="216" y="664"/>
      <point x="304" y="664"/>
      <point x="329" y="649"/>
      <point x="337" y="633" type="qcurve" smooth="yes"/>
      <point x="554" y="193" type="line" smooth="yes"/>
      <point x="561" y="178"/>
      <point x="577" y="178"/>
      <point x="582" y="195" type="qcurve" smooth="yes"/>
      <point x="690" y="563" type="line" smooth="yes"/>
      <point x="694" y="576"/>
      <point x="694" y="585" type="qcurve" smooth="yes"/>
      <point x="694" y="620"/>
      <point x="631" y="620" type="qcurve" smooth="yes"/>
      <point x="628" y="620"/>
      <point x="628" y="633"/>
      <point x="639" y="666"/>
      <point x="646" y="666" type="qcurve" smooth="yes"/>
      <point x="674" y="663"/>
      <point x="817" y="663"/>
      <point x="845" y="666" type="qcurve" smooth="yes"/>
      <point x="849" y="666"/>
      <point x="849" y="654"/>
      <point x="839" y="620"/>
      <point x="832" y="620" type="qcurve" smooth="yes"/>
      <point x="781" y="620"/>
      <point x="749" y="593"/>
      <point x="743" y="571" type="qcurve" smooth="yes"/>
    </contour>
  </outline>
</glyph>
<glyph name="O" format="1">
  <advance width="738"/>
  <unicode hex="004F"/>
  <outline>
    <contour>
      <point x="529" y="698" type="move" name="Anchor-0"/>
    </contour>
    <contour>
      <point x="766" y="427" type="qcurve" smooth="yes"/>
      <point x="766" y="260"/>
      <point x="511" y="-13"/>
      <point x="328" y="-13" type="qcurve" smooth="yes"/>
      <point x="227" y="-13"/>
      <point x="87" y="117"/>
      <point x="87" y="220" type="qcurve" smooth="yes"/>
      <point x="87" y="388"/>
      <point x="344" y="676"/>
      <point x="527" y="676" type="qcurve" smooth="yes"/>
      <point x="645" y="676"/>
      <point x="766" y="531"/>
    </contour>
    <contour>
      <point x="650" y="427" type="qcurve" smooth="yes"/>
      <point x="650" y="513"/>
      <point x="608" y="574" type="qcurve" smooth="yes"/>
      <point x="567" y="635"/>
      <point x="509" y="635" type="qcurve" smooth="yes"/>
      <point x="437" y="635"/>
      <point x="304" y="531"/>
      <point x="206" y="343"/>
      <point x="206" y="231" type="qcurve" smooth="yes"/>
      <point x="206" y="139"/>
      <point x="289" y="31"/>
      <point x="349" y="31" type="qcurve" smooth="yes"/>
      <point x="436" y="31"/>
      <point x="566" y="145"/>
      <point x="650" y="332"/>
    </contour>
  </outline>
</glyph>
<glyph name="P" format="1">
  <advance width="595"/>
  <unicode hex="0050"/>
  <outline>
    <contour>
      <point x="668" y="519" type="qcurve" smooth="yes"/>
      <point x="668" y="423"/>
      <point x="484" y="287"/>
      <point x="355" y="287" type="qcurve" smooth="yes"/>
      <point x="320" y="287"/>
      <point x="285" y="292" type="qcurve" smooth="yes"/>
      <point x="270" y="294"/>
      <point x="266" y="277" type="qcurve" smooth="yes"/>
      <point x="213" y="99" type="line" smooth="yes"/>
      <point x="210" y="88"/>
      <point x="210" y="78" type="qcurve" smooth="yes"/>
      <point x="210" y="42"/>
      <point x="287" y="42" type="qcurve" smooth="yes"/>
      <point x="291" y="42"/>
      <point x="292" y="27"/>
      <point x="281" y="-4"/>
      <point x="275" y="-4" type="qcurve" smooth="yes"/>
      <point x="238" y="0"/>
      <point x="29" y="0"/>
      <point x="-8" y="-4" type="qcurve" smooth="yes"/>
      <point x="-12" y="-4"/>
      <point x="-12" y="8"/>
      <point x="-4" y="42"/>
      <point x="4" y="42" type="qcurve" smooth="yes"/>
      <point x="51" y="42"/>
      <point x="88" y="65"/>
      <point x="99" y="99" type="qcurve" smooth="yes"/>
      <point x="238" y="565" type="line" smooth="yes"/>
      <point x="241" y="576"/>
      <point x="241" y="587" type="qcurve" smooth="yes"/>
      <point x="241" y="617"/>
      <point x="169" y="617" type="qcurve" smooth="yes"/>
      <point x="165" y="617"/>
      <point x="165" y="632"/>
      <point x="174" y="663"/>
      <point x="181" y="663" type="qcurve" smooth="yes"/>
      <point x="251" y="660"/>
      <point x="342" y="660"/>
      <point x="440" y="663"/>
      <point x="464" y="663" type="qcurve" smooth="yes"/>
      <point x="554" y="663"/>
      <point x="668" y="587"/>
    </contour>
    <contour>
      <point x="540" y="507" type="qcurve" smooth="yes"/>
      <point x="540" y="556"/>
      <point x="480" y="624"/>
      <point x="425" y="624" type="qcurve" smooth="yes"/>
      <point x="369" y="624"/>
      <point x="367" y="615" type="qcurve" smooth="yes"/>
      <point x="290" y="355" type="line" smooth="yes"/>
      <point x="284" y="335"/>
      <point x="302" y="331" type="qcurve" smooth="yes"/>
      <point x="310" y="329"/>
      <point x="334" y="329" type="qcurve" smooth="yes"/>
      <point x="424" y="329"/>
      <point x="540" y="440"/>
    </contour>
  </outline>
</glyph>
<glyph name="Q" format="1">
  <advance width="756"/>
  <unicode hex="0051"/>
  <outline>
    <contour>
      <point x="766" y="427" type="qcurve" smooth="yes"/>
      <point x="766" y="351"/>
      <point x="699" y="184"/>
      <point x="562" y="51"/>
      <point x="500" y="23" type="qcurve" smooth="yes"/>
      <point x="489" y="18"/>
      <point x="488" y="7"/>
      <point x="494" y="2" type="qcurve" smooth="yes"/>
      <point x="535" y="-38"/>
      <point x="657" y="-112"/>
      <point x="740" y="-135" type="qcurve" smooth="yes"/>
      <point x="744" y="-136"/>
      <point x="744" y="-149"/>
      <point x="730" y="-177"/>
      <point x="721" y="-175" type="qcurve" smooth="yes"/>
      <point x="620" y="-154"/>
      <point x="391" y="-79"/>
      <point x="167" y="22"/>
      <point x="87" y="138"/>
      <point x="87" y="220" type="qcurve" smooth="yes"/>
      <point x="87" y="397"/>
      <point x="354" y="676"/>
      <point x="524" y="676" type="qcurve" smooth="yes"/>
      <point x="645" y="676"/>
      <point x="766" y="531"/>
    </contour>
    <contour>
      <point x="650" y="427" type="qcurve" smooth="yes"/>
      <point x="650" y="512"/>
      <point x="608" y="574" type="qcurve" smooth="yes"/>
      <point x="567" y="635"/>
      <point x="509" y="635" type="qcurve" smooth="yes"/>
      <point x="446" y="635"/>
      <point x="308" y="538"/>
      <point x="206" y="341"/>
      <point x="206" y="235" type="qcurve" smooth="yes"/>
      <point x="206" y="140"/>
      <point x="289" y="31"/>
      <point x="349" y="31" type="qcurve" smooth="yes"/>
      <point x="477" y="31"/>
      <point x="650" y="290"/>
    </contour>
  </outline>
</glyph>
<glyph name="R" format="1">
  <advance width="675"/>
  <unicode hex="0052"/>
  <outline>
    <contour>
      <point x="684" y="516" type="qcurve" smooth="yes"/>
      <point x="684" y="445"/>
      <point x="574" y="332"/>
      <point x="479" y="306" type="qcurve" smooth="yes"/>
      <point x="469" y="303"/>
      <point x="472" y="283"/>
      <point x="472" y="280" type="qcurve" smooth="yes"/>
      <point x="488" y="210"/>
      <point x="557" y="90" type="qcurve" smooth="yes"/>
      <point x="600" y="15"/>
      <point x="650" y="16" type="qcurve" smooth="yes"/>
      <point x="658" y="16"/>
      <point x="657" y="3" type="qcurve" smooth="yes"/>
      <point x="657" y="-10"/>
      <point x="647" y="-10" type="qcurve" smooth="yes"/>
      <point x="622" y="-12"/>
      <point x="601" y="-12" type="qcurve" smooth="yes"/>
      <point x="535" y="-12"/>
      <point x="465" y="24"/>
      <point x="415" y="83"/>
      <point x="403" y="114" type="qcurve" smooth="yes"/>
      <point x="355" y="235" type="line" smooth="yes"/>
      <point x="342" y="267"/>
      <point x="330" y="279" type="qcurve" smooth="yes"/>
      <point x="322" y="286"/>
      <point x="294" y="286"/>
      <point x="276" y="289"/>
      <point x="271" y="286" type="qcurve" smooth="yes"/>
      <point x="267" y="283"/>
      <point x="266" y="276" type="qcurve" smooth="yes"/>
      <point x="212" y="99" type="line" smooth="yes"/>
      <point x="208" y="87"/>
      <point x="208" y="74" type="qcurve" smooth="yes"/>
      <point x="208" y="42"/>
      <point x="285" y="42" type="qcurve" smooth="yes"/>
      <point x="288" y="42"/>
      <point x="288" y="28"/>
      <point x="279" y="-4"/>
      <point x="272" y="-4" type="qcurve" smooth="yes"/>
      <point x="234" y="0"/>
      <point x="29" y="0"/>
      <point x="-8" y="-4" type="qcurve" smooth="yes"/>
      <point x="-12" y="-4"/>
      <point x="-12" y="9"/>
      <point x="-4" y="42"/>
      <point x="4" y="42" type="qcurve" smooth="yes"/>
      <point x="46" y="42"/>
      <point x="87" y="62"/>
      <point x="98" y="99" type="qcurve" smooth="yes"/>
      <point x="238" y="565" type="line" smooth="yes"/>
      <point x="242" y="578"/>
      <point x="242" y="586" type="qcurve" smooth="yes"/>
      <point x="242" y="617"/>
      <point x="169" y="617" type="qcurve" smooth="yes"/>
      <point x="166" y="617"/>
      <point x="165" y="631"/>
      <point x="174" y="663"/>
      <point x="181" y="663" type="qcurve" smooth="yes"/>
      <point x="251" y="660"/>
      <point x="336" y="660"/>
      <point x="438" y="663"/>
      <point x="502" y="663" type="qcurve" smooth="yes"/>
      <point x="566" y="663"/>
      <point x="684" y="587"/>
    </contour>
    <contour>
      <point x="555" y="519" type="qcurve" smooth="yes"/>
      <point x="555" y="561"/>
      <point x="483" y="624"/>
      <point x="392" y="624" type="qcurve" smooth="yes"/>
      <point x="375" y="624"/>
      <point x="368" y="616"/>
      <point x="367" y="613" type="qcurve" smooth="yes"/>
      <point x="285" y="343" type="line" smooth="yes"/>
      <point x="284" y="340"/>
      <point x="284" y="335"/>
      <point x="286" y="333" type="qcurve" smooth="yes"/>
      <point x="294" y="325"/>
      <point x="332" y="324" type="qcurve" smooth="yes"/>
      <point x="420" y="324"/>
      <point x="555" y="436"/>
    </contour>
  </outline>
</glyph>
<glyph name="S" format="1">
  <advance width="508"/>
  <unicode hex="0053"/>
  <outline>
    <contour>
      <point x="506" y="260" type="qcurve" smooth="yes"/>
      <point x="506" y="149"/>
      <point x="337" y="-13"/>
      <point x="229" y="-13" type="qcurve" smooth="yes"/>
      <point x="170" y="-13"/>
      <point x="105" y="5"/>
      <point x="51" y="35" type="qcurve"/>
      <point x="51" y="57" type="line" smooth="yes"/>
      <point x="51" y="128"/>
      <point x="69" y="188" type="qcurve" smooth="yes"/>
      <point x="72" y="200"/>
      <point x="120" y="199"/>
      <point x="118" y="189" type="qcurve" smooth="yes"/>
      <point x="115" y="173"/>
      <point x="114" y="158" type="qcurve" smooth="yes"/>
      <point x="114" y="110"/>
      <point x="176" y="31"/>
      <point x="250" y="31" type="qcurve" smooth="yes"/>
      <point x="301" y="31"/>
      <point x="386" y="130"/>
      <point x="386" y="185" type="qcurve" smooth="yes"/>
      <point x="386" y="245"/>
      <point x="300" y="279" type="qcurve" smooth="yes"/>
      <point x="255" y="297" type="line" smooth="yes"/>
      <point x="144" y="342"/>
      <point x="145" y="432" type="qcurve" smooth="yes"/>
      <point x="145" y="532"/>
      <point x="301" y="676"/>
      <point x="410" y="676" type="qcurve" smooth="yes"/>
      <point x="467" y="676"/>
      <point x="534" y="661"/>
      <point x="559" y="661" type="qcurve"/>
      <point x="560" y="599"/>
      <point x="544" y="522" type="qcurve" smooth="yes"/>
      <point x="542" y="512"/>
      <point x="496" y="513"/>
      <point x="496" y="521" type="qcurve" smooth="yes"/>
      <point x="496" y="534" type="line" smooth="yes"/>
      <point x="494" y="636"/>
      <point x="392" y="635" type="qcurve" smooth="yes"/>
      <point x="339" y="635"/>
      <point x="257" y="542"/>
      <point x="257" y="489" type="qcurve" smooth="yes"/>
      <point x="257" y="437"/>
      <point x="338" y="410" type="qcurve" smooth="yes"/>
      <point x="390" y="394" type="line" smooth="yes"/>
      <point x="506" y="356"/>
    </contour>
  </outline>
</glyph>
<glyph name="T" format="1">
  <advance width="628"/>
  <unicode hex="0054"/>
  <outline>
    <contour>
      <point x="238" y="99" type="qcurve" smooth="yes"/>
      <point x="386" y="600" type="line" smooth="yes"/>
      <point x="394" y="617"/>
      <point x="374" y="617" type="qcurve" smooth="yes"/>
      <point x="327" y="617" type="line" smooth="yes"/>
      <point x="206" y="617"/>
      <point x="168" y="492" type="qcurve" smooth="yes"/>
      <point x="166" y="484"/>
      <point x="116" y="483"/>
      <point x="118" y="492" type="qcurve" smooth="yes"/>
      <point x="164" y="644" type="line" smooth="yes"/>
      <point x="168" y="657"/>
      <point x="183" y="662"/>
      <point x="241" y="662" type="qcurve" smooth="yes"/>
      <point x="300" y="661"/>
      <point x="642" y="660"/>
      <point x="715" y="663" type="qcurve" smooth="yes"/>
      <point x="754" y="663"/>
      <point x="748" y="644" type="qcurve" smooth="yes"/>
      <point x="703" y="492" type="line" smooth="yes"/>
      <point x="701" y="484"/>
      <point x="652" y="484"/>
      <point x="654" y="492" type="qcurve" smooth="yes"/>
      <point x="662" y="518"/>
      <point x="662" y="537" type="qcurve" smooth="yes"/>
      <point x="662" y="563"/>
      <point x="624" y="617"/>
      <point x="570" y="617" type="qcurve" smooth="yes"/>
      <point x="517" y="617" type="line" smooth="yes"/>
      <point x="505" y="617"/>
      <point x="500" y="603" type="qcurve" smooth="yes"/>
      <point x="352" y="99" type="line" smooth="yes"/>
      <point x="349" y="89"/>
      <point x="349" y="66"/>
      <point x="373" y="42"/>
      <point x="421" y="42" type="qcurve" smooth="yes"/>
      <point x="424" y="42"/>
      <point x="425" y="27"/>
      <point x="417" y="-3"/>
      <point x="409" y="-3" type="qcurve" smooth="yes"/>
      <point x="362" y="0"/>
      <point x="176" y="0"/>
      <point x="126" y="-3" type="qcurve" smooth="yes"/>
      <point x="123" y="-3"/>
      <point x="123" y="18"/>
      <point x="135" y="42"/>
      <point x="138" y="42" type="qcurve" smooth="yes"/>
      <point x="183" y="42"/>
      <point x="227" y="62"/>
    </contour>
  </outline>
</glyph>
<glyph name="U" format="1">
  <advance width="726"/>
  <unicode hex="0055"/>
  <outline>
    <contour>
      <point x="545" y="691" type="move" name="Anchor-0"/>
    </contour>
    <contour>
      <point x="717" y="425" type="line" smooth="yes"/>
      <point x="648" y="198"/>
      <point x="580" y="79"/>
      <point x="442" y="-13"/>
      <point x="324" y="-13" type="qcurve" smooth="yes"/>
      <point x="216" y="-13"/>
      <point x="118" y="62"/>
      <point x="118" y="128" type="qcurve" smooth="yes"/>
      <point x="118" y="191"/>
      <point x="142" y="271" type="qcurve" smooth="yes"/>
      <point x="230" y="564" type="line" smooth="yes"/>
      <point x="235" y="580"/>
      <point x="235" y="592" type="qcurve" smooth="yes"/>
      <point x="235" y="605"/>
      <point x="206" y="620"/>
      <point x="169" y="620" type="qcurve" smooth="yes"/>
      <point x="165" y="620"/>
      <point x="165" y="634"/>
      <point x="174" y="666"/>
      <point x="181" y="666" type="qcurve" smooth="yes"/>
      <point x="209" y="663"/>
      <point x="422" y="663"/>
      <point x="451" y="666" type="qcurve" smooth="yes"/>
      <point x="454" y="666"/>
      <point x="454" y="653"/>
      <point x="445" y="620"/>
      <point x="438" y="620" type="qcurve" smooth="yes"/>
      <point x="382" y="620"/>
      <point x="354" y="594"/>
      <point x="345" y="563" type="qcurve" smooth="yes"/>
      <point x="275" y="331" type="line" smooth="yes"/>
      <point x="230" y="181"/>
      <point x="229" y="74"/>
      <point x="308" y="31"/>
      <point x="351" y="31" type="qcurve" smooth="yes"/>
      <point x="437" y="31"/>
      <point x="557" y="124"/>
      <point x="594" y="247" type="qcurve" smooth="yes"/>
      <point x="689" y="563" type="line" smooth="yes"/>
      <point x="693" y="576"/>
      <point x="693" y="584" type="qcurve" smooth="yes"/>
      <point x="693" y="620"/>
      <point x="622" y="620" type="qcurve" smooth="yes"/>
      <point x="619" y="620"/>
      <point x="619" y="633"/>
      <point x="629" y="666"/>
      <point x="635" y="666" type="qcurve" smooth="yes"/>
      <point x="663" y="663"/>
      <point x="835" y="663"/>
      <point x="864" y="666" type="qcurve" smooth="yes"/>
      <point x="868" y="666"/>
      <point x="868" y="654"/>
      <point x="858" y="620"/>
      <point x="852" y="620" type="qcurve" smooth="yes"/>
      <point x="800" y="620"/>
      <point x="767" y="588"/>
      <point x="759" y="563" type="qcurve" smooth="yes"/>
    </contour>
  </outline>
</glyph>
<glyph name="V" format="1">
  <advance width="659"/>
  <unicode hex="0056"/>
  <outline>
    <contour>
      <point x="494" y="321" type="qcurve" smooth="yes"/>
      <point x="265" y="-7" type="line" smooth="yes"/>
      <point x="257" y="-18"/>
      <point x="243" y="-19" type="qcurve" smooth="yes"/>
      <point x="222" y="-19"/>
      <point x="219" y="17" type="qcurve" smooth="yes"/>
      <point x="183" y="563" type="line" smooth="yes"/>
      <point x="181" y="601"/>
      <point x="155" y="620"/>
      <point x="121" y="620" type="qcurve" smooth="yes"/>
      <point x="117" y="620"/>
      <point x="117" y="634"/>
      <point x="123" y="666"/>
      <point x="129" y="666" type="qcurve" smooth="yes"/>
      <point x="157" y="663"/>
      <point x="352" y="663"/>
      <point x="379" y="666" type="qcurve" smooth="yes"/>
      <point x="383" y="666"/>
      <point x="384" y="650"/>
      <point x="377" y="620"/>
      <point x="371" y="620" type="qcurve" smooth="yes"/>
      <point x="324" y="620"/>
      <point x="293" y="594"/>
      <point x="295" y="563" type="qcurve" smooth="yes"/>
      <point x="320" y="187" type="line" smooth="yes"/>
      <point x="320" y="176"/>
      <point x="325" y="175" type="qcurve" smooth="yes"/>
      <point x="329" y="175"/>
      <point x="334" y="183" type="qcurve" smooth="yes"/>
      <point x="475" y="385" type="line" smooth="yes"/>
      <point x="539" y="478"/>
      <point x="591" y="560" type="qcurve" smooth="yes"/>
      <point x="610" y="589"/>
      <point x="610" y="601" type="qcurve" smooth="yes"/>
      <point x="610" y="621"/>
      <point x="567" y="620" type="qcurve" smooth="yes"/>
      <point x="563" y="620"/>
      <point x="563" y="634"/>
      <point x="574" y="666"/>
      <point x="580" y="666" type="qcurve" smooth="yes"/>
      <point x="608" y="663"/>
      <point x="773" y="663"/>
      <point x="801" y="666" type="qcurve" smooth="yes"/>
      <point x="804" y="666"/>
      <point x="805" y="654"/>
      <point x="794" y="620"/>
      <point x="788" y="620" type="qcurve" smooth="yes"/>
      <point x="712" y="620"/>
      <point x="687" y="587" type="qcurve" smooth="yes"/>
      <point x="601" y="475"/>
    </contour>
  </outline>
</glyph>
<glyph name="W" format="1">
  <advance width="973"/>
  <unicode hex="0057"/>
  <outline>
    <contour>
      <point x="811" y="318" type="qcurve" smooth="yes"/>
      <point x="578" y="-1" type="line" smooth="yes"/>
      <point x="565" y="-19"/>
      <point x="552" y="-19" type="qcurve" smooth="yes"/>
      <point x="532" y="-19"/>
      <point x="527" y="17" type="qcurve" smooth="yes"/>
      <point x="495" y="228" type="line" smooth="yes"/>
      <point x="493" y="240"/>
      <point x="489" y="240" type="qcurve" smooth="yes"/>
      <point x="486" y="240"/>
      <point x="477" y="228" type="qcurve" smooth="yes"/>
      <point x="308" y="-1" type="line" smooth="yes"/>
      <point x="295" y="-19"/>
      <point x="282" y="-19" type="qcurve" smooth="yes"/>
      <point x="262" y="-19"/>
      <point x="256" y="17" type="qcurve" smooth="yes"/>
      <point x="173" y="563" type="line" smooth="yes"/>
      <point x="167" y="601"/>
      <point x="146" y="620"/>
      <point x="112" y="620" type="qcurve" smooth="yes"/>
      <point x="108" y="620"/>
      <point x="107" y="634"/>
      <point x="114" y="666"/>
      <point x="120" y="666" type="qcurve" smooth="yes"/>
      <point x="148" y="663"/>
      <point x="310" y="663"/>
      <point x="337" y="666" type="qcurve" smooth="yes"/>
      <point x="342" y="666"/>
      <point x="342" y="648"/>
      <point x="334" y="620"/>
      <point x="329" y="620" type="qcurve" smooth="yes"/>
      <point x="283" y="620"/>
      <point x="283" y="597" type="qcurve" smooth="yes"/>
      <point x="283" y="582"/>
      <point x="286" y="563" type="qcurve" smooth="yes"/>
      <point x="346" y="171" type="line" smooth="yes"/>
      <point x="347" y="160"/>
      <point x="356" y="160" type="qcurve" smooth="yes"/>
      <point x="364" y="160"/>
      <point x="372" y="171" type="qcurve" smooth="yes"/>
      <point x="457" y="287" type="line" smooth="yes"/>
      <point x="477" y="314"/>
      <point x="477" y="327" type="qcurve" smooth="yes"/>
      <point x="477" y="350"/>
      <point x="475" y="365" type="qcurve" smooth="yes"/>
      <point x="444" y="563" type="line" smooth="yes"/>
      <point x="439" y="599"/>
      <point x="417" y="620"/>
      <point x="390" y="620" type="qcurve" smooth="yes"/>
      <point x="386" y="620"/>
      <point x="385" y="637"/>
      <point x="393" y="666"/>
      <point x="398" y="666" type="qcurve" smooth="yes"/>
      <point x="426" y="663"/>
      <point x="584" y="663"/>
      <point x="612" y="666" type="qcurve" smooth="yes"/>
      <point x="616" y="666"/>
      <point x="616" y="650"/>
      <point x="609" y="620"/>
      <point x="604" y="620" type="qcurve" smooth="yes"/>
      <point x="554" y="620"/>
      <point x="554" y="596" type="qcurve" smooth="yes"/>
      <point x="554" y="581"/>
      <point x="557" y="563" type="qcurve" smooth="yes"/>
      <point x="571" y="470" type="line" smooth="yes"/>
      <point x="573" y="456"/>
      <point x="577" y="457" type="qcurve" smooth="yes"/>
      <point x="581" y="457"/>
      <point x="591" y="470" type="qcurve" smooth="yes"/>
      <point x="657" y="560" type="line" smooth="yes"/>
      <point x="683" y="596"/>
      <point x="683" y="620"/>
      <point x="646" y="620" type="qcurve" smooth="yes"/>
      <point x="642" y="620"/>
      <point x="641" y="634"/>
      <point x="651" y="666"/>
      <point x="658" y="666" type="qcurve" smooth="yes"/>
      <point x="686" y="663"/>
      <point x="829" y="663"/>
      <point x="857" y="666" type="qcurve" smooth="yes"/>
      <point x="860" y="666"/>
      <point x="860" y="654"/>
      <point x="850" y="620"/>
      <point x="844" y="620" type="qcurve" smooth="yes"/>
      <point x="767" y="620"/>
      <point x="746" y="591" type="qcurve" smooth="yes"/>
      <point x="605" y="400" type="line" smooth="yes"/>
      <point x="590" y="379"/>
      <point x="590" y="345"/>
      <point x="592" y="331" type="qcurve" smooth="yes"/>
      <point x="617" y="171" type="line" smooth="yes"/>
      <point x="618" y="160"/>
      <point x="625" y="160" type="qcurve" smooth="yes"/>
      <point x="634" y="160"/>
      <point x="643" y="171" type="qcurve" smooth="yes"/>
      <point x="706" y="250"/>
      <point x="927" y="560" type="qcurve" smooth="yes"/>
      <point x="948" y="591"/>
      <point x="949" y="604" type="qcurve" smooth="yes"/>
      <point x="949" y="620"/>
      <point x="907" y="620" type="qcurve" smooth="yes"/>
      <point x="904" y="620"/>
      <point x="904" y="632"/>
      <point x="915" y="666"/>
      <point x="920" y="666" type="qcurve" smooth="yes"/>
      <point x="948" y="663"/>
      <point x="1095" y="663"/>
      <point x="1123" y="666" type="qcurve" smooth="yes"/>
      <point x="1127" y="666"/>
      <point x="1127" y="654"/>
      <point x="1117" y="620"/>
      <point x="1110" y="620" type="qcurve" smooth="yes"/>
      <point x="1041" y="620"/>
      <point x="1014" y="585" type="qcurve" smooth="yes"/>
      <point x="895" y="434"/>
    </contour>
  </outline>
</glyph>
<glyph name="X" format="1">
  <advance width="672"/>
  <unicode hex="0058"/>
  <outline>
    <contour>
      <point x="84" y="88" type="qcurve" smooth="yes"/>
      <point x="324" y="314" type="line" smooth="yes"/>
      <point x="331" y="320"/>
      <point x="331" y="329" type="qcurve" smooth="yes"/>
      <point x="331" y="334"/>
      <point x="328" y="340" type="qcurve" smooth="yes"/>
      <point x="242" y="552" type="line" smooth="yes"/>
      <point x="227" y="588"/>
      <point x="187" y="620"/>
      <point x="145" y="620" type="qcurve" smooth="yes"/>
      <point x="139" y="620"/>
      <point x="147" y="666"/>
      <point x="154" y="666" type="qcurve" smooth="yes"/>
      <point x="182" y="663"/>
      <point x="409" y="663"/>
      <point x="437" y="666" type="qcurve" smooth="yes"/>
      <point x="444" y="666"/>
      <point x="433" y="620"/>
      <point x="426" y="620" type="qcurve" smooth="yes"/>
      <point x="355" y="620"/>
      <point x="355" y="588" type="qcurve" smooth="yes"/>
      <point x="355" y="576"/>
      <point x="361" y="562" type="qcurve" smooth="yes"/>
      <point x="411" y="426" type="line" smooth="yes"/>
      <point x="414" y="418"/>
      <point x="420" y="418" type="qcurve" smooth="yes"/>
      <point x="425" y="418"/>
      <point x="432" y="425" type="qcurve" smooth="yes"/>
      <point x="576" y="562" type="line" smooth="yes"/>
      <point x="610" y="594"/>
      <point x="610" y="608" type="qcurve" smooth="yes"/>
      <point x="610" y="620"/>
      <point x="577" y="620" type="qcurve" smooth="yes"/>
      <point x="571" y="620"/>
      <point x="582" y="666"/>
      <point x="589" y="666" type="qcurve" smooth="yes"/>
      <point x="617" y="663"/>
      <point x="773" y="663"/>
      <point x="801" y="666" type="qcurve" smooth="yes"/>
      <point x="804" y="666"/>
      <point x="805" y="654"/>
      <point x="796" y="620"/>
      <point x="789" y="620" type="qcurve" smooth="yes"/>
      <point x="736" y="620"/>
      <point x="676" y="588"/>
      <point x="610" y="527" type="qcurve" smooth="yes"/>
      <point x="451" y="378" type="line" smooth="yes"/>
      <point x="441" y="368"/>
      <point x="441" y="360" type="qcurve" smooth="yes"/>
      <point x="441" y="353"/>
      <point x="444" y="347" type="qcurve" smooth="yes"/>
      <point x="534" y="107" type="line" smooth="yes"/>
      <point x="550" y="65"/>
      <point x="586" y="42"/>
      <point x="635" y="42" type="qcurve" smooth="yes"/>
      <point x="641" y="42"/>
      <point x="632" y="-4"/>
      <point x="625" y="-4" type="qcurve" smooth="yes"/>
      <point x="587" y="0"/>
      <point x="401" y="0"/>
      <point x="364" y="-4" type="qcurve" smooth="yes"/>
      <point x="357" y="-4"/>
      <point x="368" y="42"/>
      <point x="374" y="42" type="qcurve" smooth="yes"/>
      <point x="435" y="42"/>
      <point x="435" y="67" type="qcurve" smooth="yes"/>
      <point x="435" y="77"/>
      <point x="426" y="99" type="qcurve" smooth="yes"/>
      <point x="360" y="261" type="line" smooth="yes"/>
      <point x="356" y="271"/>
      <point x="349" y="271" type="qcurve" smooth="yes"/>
      <point x="343" y="271"/>
      <point x="333" y="261" type="qcurve" smooth="yes"/>
      <point x="211" y="145" type="line" smooth="yes"/>
      <point x="146" y="83"/>
      <point x="146" y="60" type="qcurve" smooth="yes"/>
      <point x="146" y="42"/>
      <point x="190" y="42" type="qcurve" smooth="yes"/>
      <point x="197" y="42"/>
      <point x="187" y="-4"/>
      <point x="180" y="-4" type="qcurve" smooth="yes"/>
      <point x="142" y="0"/>
      <point x="-21" y="0"/>
      <point x="-58" y="-4" type="qcurve" smooth="yes"/>
      <point x="-62" y="-4"/>
      <point x="-62" y="9"/>
      <point x="-54" y="42"/>
      <point x="-47" y="42" type="qcurve" smooth="yes"/>
      <point x="3" y="42"/>
      <point x="55" y="61"/>
    </contour>
  </outline>
</glyph>
<glyph name="Y" format="1">
  <advance width="619"/>
  <unicode hex="0059"/>
  <outline>
    <contour>
      <point x="463" y="691" type="move" name="Anchor-0"/>
    </contour>
    <contour>
      <point x="212" y="106" type="qcurve" smooth="yes"/>
      <point x="250" y="231" type="line" smooth="yes"/>
      <point x="262" y="272"/>
      <point x="262" y="303"/>
      <point x="252" y="331" type="qcurve" smooth="yes"/>
      <point x="178" y="556" type="line" smooth="yes"/>
      <point x="165" y="596"/>
      <point x="135" y="620"/>
      <point x="101" y="620" type="qcurve" smooth="yes"/>
      <point x="97" y="620"/>
      <point x="97" y="633"/>
      <point x="104" y="666"/>
      <point x="111" y="666" type="qcurve" smooth="yes"/>
      <point x="139" y="663"/>
      <point x="330" y="663"/>
      <point x="358" y="666" type="qcurve" smooth="yes"/>
      <point x="366" y="666"/>
      <point x="354" y="620"/>
      <point x="348" y="620" type="qcurve" smooth="yes"/>
      <point x="289" y="620"/>
      <point x="289" y="593" type="qcurve" smooth="yes"/>
      <point x="289" y="582"/>
      <point x="294" y="565" type="qcurve" smooth="yes"/>
      <point x="358" y="368" type="line" smooth="yes"/>
      <point x="362" y="357"/>
      <point x="375" y="357"/>
      <point x="384" y="367" type="qcurve" smooth="yes"/>
      <point x="573" y="565" type="line" smooth="yes"/>
      <point x="596" y="590"/>
      <point x="596" y="603" type="qcurve" smooth="yes"/>
      <point x="596" y="620"/>
      <point x="550" y="620" type="qcurve" smooth="yes"/>
      <point x="543" y="620"/>
      <point x="556" y="666"/>
      <point x="562" y="666" type="qcurve" smooth="yes"/>
      <point x="590" y="663"/>
      <point x="742" y="663"/>
      <point x="771" y="666" type="qcurve" smooth="yes"/>
      <point x="775" y="666"/>
      <point x="774" y="653"/>
      <point x="767" y="620"/>
      <point x="759" y="620" type="qcurve" smooth="yes"/>
      <point x="709" y="620"/>
      <point x="656" y="586"/>
      <point x="585" y="510" type="qcurve" smooth="yes"/>
      <point x="400" y="313" type="line" smooth="yes"/>
      <point x="381" y="293"/>
      <point x="368" y="248" type="qcurve" smooth="yes"/>
      <point x="325" y="98" type="line" smooth="yes"/>
      <point x="321" y="85"/>
      <point x="321" y="73" type="qcurve" smooth="yes"/>
      <point x="321" y="42"/>
      <point x="382" y="42" type="qcurve" smooth="yes"/>
      <point x="389" y="42"/>
      <point x="377" y="-4"/>
      <point x="370" y="-4" type="qcurve" smooth="yes"/>
      <point x="333" y="0"/>
      <point x="150" y="0"/>
      <point x="113" y="-4" type="qcurve" smooth="yes"/>
      <point x="107" y="-4"/>
      <point x="118" y="42"/>
      <point x="125" y="42" type="qcurve" smooth="yes"/>
      <point x="166" y="42"/>
      <point x="200" y="65"/>
    </contour>
  </outline>
</glyph>
<glyph name="Z" format="1">
  <advance width="641"/>
  <unicode hex="005A"/>
  <outline>
    <contour>
      <point x="-5" y="50" type="qcurve" smooth="yes"/>
      <point x="582" y="600" type="line" smooth="yes"/>
      <point x="591" y="607"/>
      <point x="589" y="621"/>
      <point x="576" y="621" type="qcurve" smooth="yes"/>
      <point x="317" y="621" type="line" smooth="yes"/>
      <point x="293" y="621"/>
      <point x="245" y="588"/>
      <point x="173" y="500"/>
      <point x="163" y="477" type="qcurve" smooth="yes"/>
      <point x="160" y="469"/>
      <point x="130" y="474"/>
      <point x="134" y="483" type="qcurve" smooth="yes"/>
      <point x="170" y="570"/>
      <point x="195" y="648" type="qcurve" smooth="yes"/>
      <point x="201" y="667"/>
      <point x="225" y="667" type="qcurve" smooth="yes"/>
      <point x="233" y="667"/>
      <point x="278" y="660"/>
      <point x="542" y="660" type="qcurve"/>
      <point x="739" y="664" type="line" smooth="yes"/>
      <point x="763" y="664"/>
      <point x="763" y="643" type="qcurve" smooth="yes"/>
      <point x="763" y="628"/>
      <point x="750" y="616" type="qcurve" smooth="yes"/>
      <point x="165" y="63" type="line" smooth="yes"/>
      <point x="157" y="56"/>
      <point x="161" y="42"/>
      <point x="174" y="42" type="qcurve" smooth="yes"/>
      <point x="336" y="42"/>
      <point x="465" y="48" type="qcurve" smooth="yes"/>
      <point x="515" y="50"/>
      <point x="557" y="104" type="qcurve" smooth="yes"/>
      <point x="586" y="143"/>
      <point x="603" y="172" type="qcurve" smooth="yes"/>
      <point x="607" y="179"/>
      <point x="636" y="169"/>
      <point x="632" y="163" type="qcurve" smooth="yes"/>
      <point x="603" y="113"/>
      <point x="589" y="72" type="qcurve" smooth="yes"/>
      <point x="575" y="30"/>
      <point x="565" y="2" type="qcurve" smooth="yes"/>
      <point x="559" y="-17"/>
      <point x="548" y="-16" type="qcurve" smooth="yes"/>
      <point x="492" y="-6"/>
      <point x="406" y="0"/>
      <point x="202" y="0" type="qcurve" smooth="yes"/>
      <point x="11" y="0" type="line" smooth="yes"/>
      <point x="-15" y="0"/>
      <point x="-15" y="28" type="qcurve" smooth="yes"/>
      <point x="-15" y="40"/>
    </contour>
  </outline>
</glyph>
<glyph name="bracketleft" format="1">
  <advance width="353"/>
  <unicode hex="005B"/>
  <outline>
    <contour>
      <point x="539" y="747" type="line" smooth="yes"/>
      <point x="546" y="747"/>
      <point x="530" y="700"/>
      <point x="523" y="700" type="qcurve" smooth="yes"/>
      <point x="388" y="700" type="line" smooth="yes"/>
      <point x="379" y="700"/>
      <point x="375" y="689" type="qcurve" smooth="yes"/>
      <point x="145" y="-112" type="line" smooth="yes"/>
      <point x="141" y="-126"/>
      <point x="148" y="-126" type="qcurve" smooth="yes"/>
      <point x="295" y="-126" type="line" smooth="yes"/>
      <point x="302" y="-126"/>
      <point x="290" y="-173"/>
      <point x="282" y="-173" type="qcurve" smooth="yes"/>
      <point x="35" y="-173" type="line" smooth="yes"/>
      <point x="23" y="-173"/>
      <point x="26" y="-162" type="qcurve" smooth="yes"/>
      <point x="285" y="738" type="line" smooth="yes"/>
      <point x="287" y="747"/>
      <point x="297" y="747" type="qcurve" smooth="yes"/>
    </contour>
  </outline>
</glyph>
<glyph name="backslash" format="1">
  <advance width="349"/>
  <unicode hex="005C"/>
  <outline>
    <contour>
      <point x="365" y="27" type="line" smooth="yes"/>
      <point x="367" y="21"/>
      <point x="336" y="1"/>
      <point x="305" y="-7"/>
      <point x="300" y="-2" type="qcurve" smooth="yes"/>
      <point x="-6" y="686" type="line" smooth="yes"/>
      <point x="-12" y="698"/>
      <point x="53" y="727"/>
      <point x="58" y="715" type="qcurve" smooth="yes"/>
    </contour>
  </outline>
</glyph>
<glyph name="bracketright" format="1">
  <advance width="353"/>
  <unicode hex="005D"/>
  <outline>
    <contour>
      <point x="406" y="738" type="qcurve" smooth="yes"/>
      <point x="148" y="-162" type="line" smooth="yes"/>
      <point x="145" y="-173"/>
      <point x="135" y="-173" type="qcurve" smooth="yes"/>
      <point x="-113" y="-173" type="line" smooth="yes"/>
      <point x="-120" y="-173"/>
      <point x="-108" y="-126"/>
      <point x="-101" y="-126" type="qcurve" smooth="yes"/>
      <point x="48" y="-126" type="line" smooth="yes"/>
      <point x="55" y="-126"/>
      <point x="58" y="-114" type="qcurve" smooth="yes"/>
      <point x="288" y="689" type="line" smooth="yes"/>
      <point x="292" y="700"/>
      <point x="283" y="700" type="qcurve" smooth="yes"/>
      <point x="146" y="700" type="line" smooth="yes"/>
      <point x="138" y="700"/>
      <point x="150" y="747"/>
      <point x="158" y="747" type="qcurve" smooth="yes"/>
      <point x="399" y="747" type="line" smooth="yes"/>
      <point x="409" y="747"/>
    </contour>
  </outline>
</glyph>
<glyph name="asciicircum" format="1">
  <advance width="500"/>
  <unicode hex="005E"/>
  <outline>
    <contour>
      <point x="495" y="268" type="line"/>
      <point x="415" y="268" type="line"/>
      <point x="272" y="569" type="line"/>
      <point x="266" y="569" type="line"/>
      <point x="122" y="268" type="line"/>
      <point x="46" y="268" type="line"/>
      <point x="254" y="685" type="line"/>
      <point x="287" y="685" type="line"/>
    </contour>
  </outline>
</glyph>
<glyph name="underscore" format="1">
  <advance width="500"/>
  <unicode hex="005F"/>
  <outline>
    <contour>
      <point x="518" y="-130" type="line"/>
      <point x="-18" y="-130" type="line"/>
      <point x="-18" y="-71" type="line"/>
      <point x="518" y="-71" type="line"/>
    </contour>
  </outline>
</glyph>
<glyph name="grave" format="1">
  <advance width="447"/>
  <unicode hex="0060"/>
  <outline>
    <contour>
      <point x="57" y="595" type="line" smooth="yes"/>
      <point x="42" y="609"/>
      <point x="82" y="651"/>
      <point x="104" y="651" type="qcurve" smooth="yes"/>
      <point x="116" y="651"/>
      <point x="122" y="642" type="qcurve" smooth="yes"/>
      <point x="224" y="489" type="line" smooth="yes"/>
      <point x="234" y="474"/>
      <point x="230" y="464" type="qcurve" smooth="yes"/>
      <point x="226" y="453"/>
      <point x="215" y="454" type="qcurve" smooth="yes"/>
      <point x="204" y="454"/>
      <point x="194" y="462" type="qcurve" smooth="yes"/>
    </contour>
  </outline>
</glyph>
<glyph name="b" format="1">
  <advance width="453"/>
  <unicode hex="0062"/>
  <outline>
    <contour>
      <point x="130" y="-37" type="move" name="Anchor-1"/>
    </contour>
    <contour>
      <point x="447" y="297" type="qcurve" smooth="yes"/>
      <point x="447" y="176"/>
      <point x="265" y="-13"/>
      <point x="132" y="-13" type="qcurve" smooth="yes"/>
      <point x="44" y="-13"/>
      <point x="43" y="85" type="qcurve" smooth="yes"/>
      <point x="43" y="106"/>
      <point x="49" y="128" type="qcurve" smooth="yes"/>
      <point x="160" y="593" type="line" smooth="yes"/>
      <point x="164" y="613"/>
      <point x="165" y="626" type="qcurve" smooth="yes"/>
      <point x="165" y="664"/>
      <point x="134" y="664" type="qcurve" smooth="yes"/>
      <point x="124" y="664"/>
      <point x="125" y="699"/>
      <point x="134" y="699" type="qcurve" smooth="yes"/>
      <point x="174" y="699"/>
      <point x="270" y="726"/>
      <point x="274" y="726" type="qcurve" smooth="yes"/>
      <point x="285" y="726"/>
      <point x="285" y="715" type="qcurve" smooth="yes"/>
      <point x="285" y="712"/>
      <point x="283" y="707" type="qcurve" smooth="yes"/>
      <point x="191" y="319" type="line"/>
      <point x="199" y="315" type="line"/>
      <point x="281" y="416"/>
      <point x="347" y="416" type="qcurve" smooth="yes"/>
      <point x="447" y="416"/>
    </contour>
    <contour>
      <point x="340" y="302" type="qcurve" smooth="yes"/>
      <point x="340" y="357"/>
      <point x="308" y="357" type="qcurve" smooth="yes"/>
      <point x="270" y="357"/>
      <point x="172" y="222"/>
      <point x="142" y="116"/>
      <point x="142" y="93" type="qcurve" smooth="yes"/>
      <point x="142" y="31"/>
      <point x="176" y="31" type="qcurve" smooth="yes"/>
      <point x="243" y="31"/>
      <point x="340" y="210"/>
    </contour>
  </outline>
</glyph>
<glyph name="c" format="1">
  <advance width="362"/>
  <unicode hex="0063"/>
  <outline>
    <contour>
      <point x="158" y="-37" type="move" name="Anchor-1"/>
    </contour>
    <contour>
      <point x="291" y="439" type="move" name="Anchor-0"/>
    </contour>
    <contour>
      <point x="307" y="55" type="qcurve" smooth="yes"/>
      <point x="250" y="-13"/>
      <point x="163" y="-13" type="qcurve" smooth="yes"/>
      <point x="111" y="-13"/>
      <point x="45" y="65"/>
      <point x="45" y="129" type="qcurve" smooth="yes"/>
      <point x="45" y="228"/>
      <point x="198" y="416"/>
      <point x="287" y="416" type="qcurve" smooth="yes"/>
      <point x="326" y="416"/>
      <point x="381" y="384"/>
      <point x="381" y="360" type="qcurve" smooth="yes"/>
      <point x="381" y="342"/>
      <point x="349" y="314"/>
      <point x="331" y="314" type="qcurve" smooth="yes"/>
      <point x="310" y="314"/>
      <point x="302" y="329" type="qcurve"/>
      <point x="300" y="352"/>
      <point x="289" y="364" type="qcurve" smooth="yes"/>
      <point x="278" y="376"/>
      <point x="262" y="376" type="qcurve" smooth="yes"/>
      <point x="215" y="376"/>
      <point x="147" y="234"/>
      <point x="147" y="161" type="qcurve" smooth="yes"/>
      <point x="147" y="113"/>
      <point x="178" y="44"/>
      <point x="209" y="44" type="qcurve" smooth="yes"/>
      <point x="235" y="44"/>
      <point x="276" y="69"/>
      <point x="284" y="77" type="qcurve" smooth="yes"/>
      <point x="288" y="81"/>
      <point x="302" y="73"/>
      <point x="311" y="59"/>
    </contour>
  </outline>
</glyph>
<glyph name="d" format="1">
  <advance width="480"/>
  <unicode hex="0064"/>
  <outline>
    <contour>
      <point x="153" y="-37" type="move" name="Anchor-1"/>
    </contour>
    <contour>
      <point x="388" y="111" type="line" smooth="yes"/>
      <point x="383" y="88"/>
      <point x="382" y="80" type="qcurve" smooth="yes"/>
      <point x="382" y="69"/>
      <point x="390" y="69" type="qcurve" smooth="yes"/>
      <point x="404" y="69"/>
      <point x="436" y="111" type="qcurve" smooth="yes"/>
      <point x="439" y="115"/>
      <point x="455" y="107"/>
      <point x="466" y="92"/>
      <point x="463" y="88" type="qcurve" smooth="yes"/>
      <point x="391" y="-13"/>
      <point x="329" y="-13" type="qcurve" smooth="yes"/>
      <point x="301" y="-13"/>
      <point x="282" y="22"/>
      <point x="282" y="54" type="qcurve" smooth="yes"/>
      <point x="282" y="64"/>
      <point x="291" y="105" type="qcurve"/>
      <point x="285" y="108" type="line"/>
      <point x="243" y="59"/>
      <point x="152" y="-13"/>
      <point x="109" y="-13" type="qcurve" smooth="yes"/>
      <point x="68" y="-13"/>
      <point x="31" y="49"/>
      <point x="31" y="84" type="qcurve" smooth="yes"/>
      <point x="31" y="182"/>
      <point x="209" y="416"/>
      <point x="309" y="416" type="qcurve" smooth="yes"/>
      <point x="336" y="416"/>
      <point x="362" y="401" type="qcurve"/>
      <point x="407" y="591" type="line" smooth="yes"/>
      <point x="412" y="612"/>
      <point x="412" y="627" type="qcurve" smooth="yes"/>
      <point x="412" y="664"/>
      <point x="382" y="664" type="qcurve" smooth="yes"/>
      <point x="373" y="664"/>
      <point x="373" y="699"/>
      <point x="382" y="699" type="qcurve" smooth="yes"/>
      <point x="423" y="699"/>
      <point x="517" y="726"/>
      <point x="521" y="726" type="qcurve" smooth="yes"/>
      <point x="531" y="726"/>
      <point x="531" y="717" type="qcurve" smooth="yes"/>
      <point x="531" y="714"/>
      <point x="530" y="707" type="qcurve" smooth="yes"/>
    </contour>
    <contour>
      <point x="349" y="347" type="line"/>
      <point x="329" y="376"/>
      <point x="300" y="376" type="qcurve" smooth="yes"/>
      <point x="244" y="376"/>
      <point x="139" y="179"/>
      <point x="139" y="100" type="qcurve" smooth="yes"/>
      <point x="139" y="54"/>
      <point x="162" y="54" type="qcurve" smooth="yes"/>
      <point x="190" y="54"/>
      <point x="310" y="183"/>
      <point x="318" y="217" type="qcurve" smooth="yes"/>
    </contour>
  </outline>
</glyph>
<glyph name="e" format="1">
  <advance width="366"/>
  <unicode hex="0065"/>
  <outline>
    <contour>
      <point x="142" y="-37" type="move" name="Anchor-1"/>
    </contour>
    <contour>
      <point x="303" y="439" type="move" name="Anchor-0"/>
    </contour>
    <contour>
      <point x="380" y="348" type="qcurve" smooth="yes"/>
      <point x="380" y="289"/>
      <point x="241" y="196"/>
      <point x="146" y="174" type="qcurve"/>
      <point x="138" y="137"/>
      <point x="138" y="123" type="qcurve" smooth="yes"/>
      <point x="138" y="51"/>
      <point x="183" y="51" type="qcurve" smooth="yes"/>
      <point x="207" y="51"/>
      <point x="268" y="89"/>
      <point x="281" y="101" type="qcurve" smooth="yes"/>
      <point x="285" y="103"/>
      <point x="298" y="96"/>
      <point x="308" y="84"/>
      <point x="305" y="80" type="qcurve" smooth="yes"/>
      <point x="234" y="-13"/>
      <point x="155" y="-13" type="qcurve" smooth="yes"/>
      <point x="38" y="-13"/>
      <point x="38" y="113" type="qcurve" smooth="yes"/>
      <point x="38" y="207"/>
      <point x="209" y="416"/>
      <point x="298" y="416" type="qcurve" smooth="yes"/>
      <point x="380" y="416"/>
    </contour>
    <contour>
      <point x="281" y="336" type="qcurve" smooth="yes"/>
      <point x="281" y="368"/>
      <point x="259" y="368" type="qcurve" smooth="yes"/>
      <point x="234" y="368"/>
      <point x="180" y="283"/>
      <point x="159" y="219" type="qcurve"/>
      <point x="202" y="233"/>
      <point x="281" y="298"/>
    </contour>
  </outline>
</glyph>
<glyph name="f" format="1">
  <advance width="304"/>
  <unicode hex="0066"/>
  <outline>
    <contour>
      <point x="144" y="-47" type="line" smooth="yes"/>
      <point x="134" y="-99"/>
      <point x="86" y="-213"/>
      <point x="0" y="-269"/>
      <point x="-47" y="-269" type="qcurve" smooth="yes"/>
      <point x="-90" y="-269"/>
      <point x="-140" y="-229"/>
      <point x="-140" y="-207" type="qcurve" smooth="yes"/>
      <point x="-140" y="-185"/>
      <point x="-112" y="-156"/>
      <point x="-95" y="-156" type="qcurve" smooth="yes"/>
      <point x="-66" y="-156"/>
      <point x="-36" y="-218"/>
      <point x="-21" y="-218" type="qcurve" smooth="yes"/>
      <point x="1" y="-218"/>
      <point x="22" y="-173"/>
      <point x="32" y="-122" type="qcurve" smooth="yes"/>
      <point x="130" y="360" type="line"/>
      <point x="42" y="360" type="line" smooth="yes"/>
      <point x="38" y="360"/>
      <point x="38" y="367" type="qcurve" smooth="yes"/>
      <point x="38" y="382"/>
      <point x="48" y="402" type="qcurve" smooth="yes"/>
      <point x="53" y="412"/>
      <point x="58" y="412" type="qcurve" smooth="yes"/>
      <point x="140" y="412" type="line"/>
      <point x="173" y="587"/>
      <point x="292" y="715"/>
      <point x="390" y="715" type="qcurve" smooth="yes"/>
      <point x="440" y="715"/>
      <point x="501" y="661"/>
      <point x="501" y="619" type="qcurve" smooth="yes"/>
      <point x="501" y="561"/>
      <point x="455" y="561" type="qcurve" smooth="yes"/>
      <point x="434" y="561"/>
      <point x="405" y="584"/>
      <point x="405" y="623" type="qcurve" smooth="yes"/>
      <point x="405" y="675"/>
      <point x="365" y="675" type="qcurve" smooth="yes"/>
      <point x="333" y="675"/>
      <point x="264" y="582"/>
      <point x="237" y="412" type="qcurve"/>
      <point x="362" y="412" type="line" smooth="yes"/>
      <point x="366" y="412"/>
      <point x="366" y="406" type="qcurve" smooth="yes"/>
      <point x="366" y="394"/>
      <point x="354" y="370" type="qcurve" smooth="yes"/>
      <point x="349" y="360"/>
      <point x="345" y="360" type="qcurve" smooth="yes"/>
      <point x="226" y="360" type="line"/>
    </contour>
  </outline>
</glyph>
<glyph name="g" format="1">
  <advance width="423"/>
  <unicode hex="0067"/>
  <outline>
    <contour>
      <point x="286" y="439" type="move" name="Anchor-0"/>
    </contour>
    <contour>
      <point x="475" y="368" type="qcurve" smooth="yes"/>
      <point x="475" y="324"/>
      <point x="444" y="324" type="qcurve" smooth="yes"/>
      <point x="427" y="324"/>
      <point x="376" y="344" type="qcurve"/>
      <point x="383" y="326"/>
      <point x="383" y="257"/>
      <point x="343" y="167"/>
      <point x="267" y="104"/>
      <point x="216" y="94" type="qcurve" smooth="yes"/>
      <point x="188" y="88"/>
      <point x="187" y="87" type="qcurve" smooth="yes"/>
      <point x="162" y="71"/>
      <point x="162" y="34"/>
      <point x="234" y="2" type="qcurve" smooth="yes"/>
      <point x="289" y="-22"/>
      <point x="393" y="-93"/>
      <point x="393" y="-201"/>
      <point x="234" y="-273"/>
      <point x="132" y="-273" type="qcurve" smooth="yes"/>
      <point x="46" y="-273"/>
      <point x="-52" y="-204"/>
      <point x="-52" y="-116"/>
      <point x="64" y="-54"/>
      <point x="116" y="-37" type="qcurve"/>
      <point x="70" y="-13"/>
      <point x="70" y="16" type="qcurve" smooth="yes"/>
      <point x="70" y="49"/>
      <point x="143" y="96" type="qcurve"/>
      <point x="42" y="124"/>
      <point x="42" y="295"/>
      <point x="185" y="416"/>
      <point x="282" y="416" type="qcurve" smooth="yes"/>
      <point x="304" y="416"/>
      <point x="335" y="402" type="qcurve" smooth="yes"/>
      <point x="367" y="388"/>
      <point x="384" y="387" type="qcurve" smooth="yes"/>
      <point x="393" y="387"/>
      <point x="439" y="397"/>
      <point x="449" y="397" type="qcurve" smooth="yes"/>
      <point x="475" y="397"/>
    </contour>
    <contour>
      <point x="296" y="349" type="qcurve" smooth="yes"/>
      <point x="296" y="369"/>
      <point x="276" y="369" type="qcurve" smooth="yes"/>
      <point x="231" y="369"/>
      <point x="131" y="222"/>
      <point x="131" y="156" type="qcurve" smooth="yes"/>
      <point x="131" y="136"/>
      <point x="156" y="136" type="qcurve" smooth="yes"/>
      <point x="203" y="136"/>
      <point x="296" y="283"/>
    </contour>
    <contour>
      <point x="291" y="-158" type="qcurve" smooth="yes"/>
      <point x="291" y="-134"/>
      <point x="180" y="-63"/>
      <point x="131" y="-63"/>
      <point x="54" y="-117"/>
      <point x="54" y="-183"/>
      <point x="146" y="-220"/>
      <point x="238" y="-220"/>
      <point x="291" y="-191"/>
    </contour>
  </outline>
</glyph>
<glyph name="h" format="1">
  <advance width="459"/>
  <unicode hex="0068"/>
  <outline>
    <contour>
      <point x="150" y="-37" type="move" name="Anchor-1"/>
    </contour>
    <contour>
      <point x="455" y="298" type="qcurve" smooth="yes"/>
      <point x="455" y="215"/>
      <point x="342" y="-13"/>
      <point x="255" y="-13" type="qcurve" smooth="yes"/>
      <point x="226" y="-13"/>
      <point x="185" y="22"/>
      <point x="185" y="45" type="qcurve" smooth="yes"/>
      <point x="185" y="69"/>
      <point x="210" y="100"/>
      <point x="233" y="100" type="qcurve" smooth="yes"/>
      <point x="263" y="100"/>
      <point x="281" y="44"/>
      <point x="309" y="44"/>
      <point x="335" y="119"/>
      <point x="356" y="238"/>
      <point x="356" y="287" type="qcurve" smooth="yes"/>
      <point x="356" y="352"/>
      <point x="312" y="352" type="qcurve" smooth="yes"/>
      <point x="268" y="352"/>
      <point x="196" y="242" type="qcurve" smooth="yes"/>
      <point x="177" y="213"/>
      <point x="153" y="117" type="qcurve" smooth="yes"/>
      <point x="123" y="-2" type="line" smooth="yes"/>
      <point x="120" y="-13"/>
      <point x="74" y="-13" type="qcurve" smooth="yes"/>
      <point x="28" y="-13"/>
      <point x="28" y="5" type="qcurve" smooth="yes"/>
      <point x="28" y="7" type="line"/>
      <point x="169" y="594" type="line" smooth="yes"/>
      <point x="174" y="614"/>
      <point x="174" y="628" type="qcurve" smooth="yes"/>
      <point x="174" y="664"/>
      <point x="143" y="664" type="qcurve" smooth="yes"/>
      <point x="133" y="664"/>
      <point x="134" y="699"/>
      <point x="143" y="699" type="qcurve" smooth="yes"/>
      <point x="185" y="699"/>
      <point x="280" y="726"/>
      <point x="284" y="726" type="qcurve" smooth="yes"/>
      <point x="296" y="726"/>
      <point x="292" y="707" type="qcurve" smooth="yes"/>
      <point x="200" y="317" type="line"/>
      <point x="208" y="312" type="line"/>
      <point x="283" y="416"/>
      <point x="357" y="416" type="qcurve" smooth="yes"/>
      <point x="455" y="416"/>
    </contour>
  </outline>
</glyph>
<glyph name="i" format="1">
  <advance width="260"/>
  <unicode hex="0069"/>
  <outline>
    <contour>
      <point x="101" y="-37" type="move" name="Anchor-1"/>
    </contour>
    <contour>
      <point x="162" y="88" type="line" smooth="yes"/>
      <point x="160" y="81"/>
      <point x="160" y="77" type="qcurve" smooth="yes"/>
      <point x="160" y="69"/>
      <point x="185" y="69"/>
      <point x="216" y="108" type="qcurve" smooth="yes"/>
      <point x="221" y="115"/>
      <point x="234" y="103" type="qcurve" smooth="yes"/>
      <point x="244" y="94"/>
      <point x="245" y="89" type="qcurve" smooth="yes"/>
      <point x="245" y="87"/>
      <point x="243" y="85" type="qcurve" smooth="yes"/>
      <point x="212" y="46"/>
      <point x="134" y="-13"/>
      <point x="107" y="-13" type="qcurve" smooth="yes"/>
      <point x="58" y="-13"/>
      <point x="58" y="48" type="qcurve" smooth="yes"/>
      <point x="58" y="65"/>
      <point x="63" y="82" type="qcurve" smooth="yes"/>
      <point x="135" y="316" type="line" smooth="yes"/>
      <point x="137" y="322"/>
      <point x="137" y="326" type="qcurve" smooth="yes"/>
      <point x="137" y="336"/>
      <point x="118" y="336"/>
      <point x="80" y="296" type="qcurve" smooth="yes"/>
      <point x="74" y="290"/>
      <point x="62" y="303" type="qcurve" smooth="yes"/>
      <point x="53" y="312"/>
      <point x="53" y="316" type="qcurve" smooth="yes"/>
      <point x="53" y="317"/>
      <point x="54" y="320" type="qcurve" smooth="yes"/>
      <point x="85" y="358"/>
      <point x="162" y="416"/>
      <point x="189" y="416" type="qcurve" smooth="yes"/>
      <point x="240" y="416"/>
      <point x="240" y="354" type="qcurve" smooth="yes"/>
      <point x="240" y="342"/>
      <point x="234" y="323" type="qcurve" smooth="yes"/>
    </contour>
    <contour>
      <point x="310" y="557" type="qcurve" smooth="yes"/>
      <point x="310" y="531"/>
      <point x="268" y="493"/>
      <point x="242" y="493" type="qcurve" smooth="yes"/>
      <point x="173" y="493"/>
      <point x="173" y="567" type="qcurve" smooth="yes"/>
      <point x="173" y="591"/>
      <point x="216" y="630"/>
      <point x="242" y="630" type="qcurve" smooth="yes"/>
      <point x="310" y="630"/>
    </contour>
  </outline>
</glyph>
<glyph name="j" format="1">
  <advance width="239"/>
  <unicode hex="006A"/>
  <outline>
    <contour>
      <point x="167" y="70" type="line" smooth="yes"/>
      <point x="152" y="0"/>
      <point x="102" y="-146"/>
      <point x="-10" y="-270"/>
      <point x="-102" y="-270" type="qcurve" smooth="yes"/>
      <point x="-122" y="-270"/>
      <point x="-152" y="-246"/>
      <point x="-152" y="-225" type="qcurve" smooth="yes"/>
      <point x="-152" y="-205"/>
      <point x="-121" y="-180"/>
      <point x="-101" y="-180" type="qcurve" smooth="yes"/>
      <point x="-86" y="-180"/>
      <point x="-50" y="-218"/>
      <point x="-37" y="-218" type="qcurve" smooth="yes"/>
      <point x="-20" y="-218"/>
      <point x="15" y="-163"/>
      <point x="27" y="-112" type="qcurve" smooth="yes"/>
      <point x="129" y="316" type="line" smooth="yes"/>
      <point x="130" y="322"/>
      <point x="130" y="326" type="qcurve" smooth="yes"/>
      <point x="130" y="336"/>
      <point x="106" y="336"/>
      <point x="73" y="295" type="qcurve" smooth="yes"/>
      <point x="68" y="289"/>
      <point x="55" y="301" type="qcurve" smooth="yes"/>
      <point x="45" y="310"/>
      <point x="45" y="314" type="qcurve" smooth="yes"/>
      <point x="45" y="316"/>
      <point x="47" y="318" type="qcurve" smooth="yes"/>
      <point x="128" y="416"/>
      <point x="186" y="416" type="qcurve" smooth="yes"/>
      <point x="230" y="416"/>
      <point x="230" y="356" type="qcurve" smooth="yes"/>
      <point x="230" y="341"/>
      <point x="227" y="325" type="qcurve" smooth="yes"/>
    </contour>
    <contour>
      <point x="292" y="557" type="qcurve" smooth="yes"/>
      <point x="292" y="531"/>
      <point x="249" y="493"/>
      <point x="224" y="493" type="qcurve" smooth="yes"/>
      <point x="155" y="493"/>
      <point x="154" y="567" type="qcurve" smooth="yes"/>
      <point x="154" y="591"/>
      <point x="197" y="630"/>
      <point x="224" y="630" type="qcurve" smooth="yes"/>
      <point x="292" y="630"/>
    </contour>
  </outline>
</glyph>
<glyph name="k" format="1">
  <advance width="453"/>
  <unicode hex="006B"/>
  <outline>
    <contour>
      <point x="158" y="-37" type="move" name="Anchor-1"/>
    </contour>
    <contour>
      <point x="423" y="345" type="qcurve" smooth="yes"/>
      <point x="423" y="308"/>
      <point x="332" y="223"/>
      <point x="282" y="197" type="qcurve" smooth="yes"/>
      <point x="276" y="194"/>
      <point x="276" y="183"/>
      <point x="281" y="176" type="qcurve" smooth="yes"/>
      <point x="339" y="95" type="line" smooth="yes"/>
      <point x="376" y="44"/>
      <point x="403" y="44" type="qcurve" smooth="yes"/>
      <point x="420" y="44"/>
      <point x="439" y="64" type="qcurve" smooth="yes"/>
      <point x="440" y="65"/>
      <point x="443" y="65" type="qcurve" smooth="yes"/>
      <point x="448" y="65"/>
      <point x="465" y="50"/>
      <point x="465" y="45" type="qcurve" smooth="yes"/>
      <point x="465" y="43"/>
      <point x="464" y="42" type="qcurve" smooth="yes"/>
      <point x="416" y="-13"/>
      <point x="365" y="-13" type="qcurve" smooth="yes"/>
      <point x="323" y="-13"/>
      <point x="278" y="14"/>
      <point x="252" y="53" type="qcurve" smooth="yes"/>
      <point x="185" y="156" type="line" smooth="yes"/>
      <point x="180" y="166"/>
      <point x="168" y="166" type="qcurve" smooth="yes"/>
      <point x="163" y="166"/>
      <point x="160" y="153" type="qcurve" smooth="yes"/>
      <point x="123" y="-3" type="line" smooth="yes"/>
      <point x="120" y="-13"/>
      <point x="24" y="-13"/>
      <point x="28" y="6" type="qcurve" smooth="yes"/>
      <point x="170" y="593" type="line" smooth="yes"/>
      <point x="174" y="612"/>
      <point x="174" y="621" type="qcurve" smooth="yes"/>
      <point x="174" y="664"/>
      <point x="143" y="664" type="qcurve" smooth="yes"/>
      <point x="133" y="664"/>
      <point x="134" y="699"/>
      <point x="143" y="699" type="qcurve" smooth="yes"/>
      <point x="184" y="699"/>
      <point x="280" y="726"/>
      <point x="284" y="726" type="qcurve" smooth="yes"/>
      <point x="296" y="726"/>
      <point x="292" y="707" type="qcurve" smooth="yes"/>
      <point x="207" y="350" type="line"/>
      <point x="215" y="346" type="line"/>
      <point x="239" y="374"/>
      <point x="313" y="416"/>
      <point x="345" y="416" type="qcurve" smooth="yes"/>
      <point x="374" y="416"/>
      <point x="423" y="385"/>
    </contour>
    <contour>
      <point x="322" y="334" type="qcurve" smooth="yes"/>
      <point x="322" y="361"/>
      <point x="304" y="361" type="qcurve" smooth="yes"/>
      <point x="257" y="361"/>
      <point x="205" y="298" type="qcurve" smooth="yes"/>
      <point x="190" y="280"/>
      <point x="187" y="267" type="qcurve" smooth="yes"/>
      <point x="173" y="207" type="line" smooth="yes"/>
      <point x="172" y="204"/>
      <point x="172" y="199" type="qcurve" smooth="yes"/>
      <point x="172" y="192"/>
      <point x="185" y="192" type="qcurve" smooth="yes"/>
      <point x="235" y="192"/>
      <point x="322" y="288"/>
    </contour>
  </outline>
</glyph>
<glyph name="l" format="1">
  <advance width="242"/>
  <unicode hex="006C"/>
  <outline>
    <contour>
      <point x="82" y="-37" type="move" name="Anchor-1"/>
    </contour>
    <contour>
      <point x="145" y="95" type="line" smooth="yes"/>
      <point x="143" y="85"/>
      <point x="142" y="81" type="qcurve" smooth="yes"/>
      <point x="142" y="69"/>
      <point x="152" y="69" type="qcurve" smooth="yes"/>
      <point x="169" y="69"/>
      <point x="197" y="111" type="qcurve" smooth="yes"/>
      <point x="198" y="114"/>
      <point x="202" y="114" type="qcurve" smooth="yes"/>
      <point x="207" y="114"/>
      <point x="227" y="98"/>
      <point x="227" y="93" type="qcurve" smooth="yes"/>
      <point x="227" y="91"/>
      <point x="225" y="89" type="qcurve" smooth="yes"/>
      <point x="148" y="-13"/>
      <point x="88" y="-13" type="qcurve" smooth="yes"/>
      <point x="42" y="-13"/>
      <point x="42" y="49" type="qcurve" smooth="yes"/>
      <point x="42" y="62"/>
      <point x="45" y="76" type="qcurve" smooth="yes"/>
      <point x="166" y="591" type="line" smooth="yes"/>
      <point x="171" y="612"/>
      <point x="171" y="627" type="qcurve" smooth="yes"/>
      <point x="171" y="664"/>
      <point x="141" y="664" type="qcurve" smooth="yes"/>
      <point x="131" y="664"/>
      <point x="132" y="699"/>
      <point x="141" y="699" type="qcurve" smooth="yes"/>
      <point x="182" y="699"/>
      <point x="276" y="726"/>
      <point x="280" y="726" type="qcurve" smooth="yes"/>
      <point x="294" y="726"/>
      <point x="289" y="707" type="qcurve" smooth="yes"/>
    </contour>
  </outline>
</glyph>
<glyph name="m" format="1">
  <advance width="744"/>
  <unicode hex="006D"/>
  <outline>
    <contour>
      <point x="318" y="-37" type="move" name="Anchor-1"/>
    </contour>
    <contour>
      <point x="438" y="439" type="move" name="Anchor-0"/>
    </contour>
    <contour>
      <point x="649" y="113" type="line" smooth="yes"/>
      <point x="639" y="80"/>
      <point x="639" y="76" type="qcurve" smooth="yes"/>
      <point x="639" y="68"/>
      <point x="663" y="68"/>
      <point x="701" y="111" type="qcurve" smooth="yes"/>
      <point x="703" y="113"/>
      <point x="706" y="113" type="qcurve" smooth="yes"/>
      <point x="711" y="113"/>
      <point x="729" y="96"/>
      <point x="729" y="91" type="qcurve" smooth="yes"/>
      <point x="729" y="89"/>
      <point x="727" y="87" type="qcurve" smooth="yes"/>
      <point x="644" y="-13"/>
      <point x="583" y="-13" type="qcurve" smooth="yes"/>
      <point x="536" y="-13"/>
      <point x="536" y="53" type="qcurve" smooth="yes"/>
      <point x="536" y="63"/>
      <point x="542" y="82" type="qcurve" smooth="yes"/>
      <point x="604" y="283" type="line" smooth="yes"/>
      <point x="616" y="323"/>
      <point x="616" y="343" type="qcurve" smooth="yes"/>
      <point x="616" y="363"/>
      <point x="603" y="363" type="qcurve" smooth="yes"/>
      <point x="579" y="363"/>
      <point x="511" y="280"/>
      <point x="439" y="157"/>
      <point x="372" y="-4" type="qcurve" smooth="yes"/>
      <point x="367" y="-15"/>
      <point x="271" y="-16"/>
      <point x="276" y="0" type="qcurve" smooth="yes"/>
      <point x="356" y="261" type="line" smooth="yes"/>
      <point x="377" y="329"/>
      <point x="377" y="345" type="qcurve" smooth="yes"/>
      <point x="377" y="363"/>
      <point x="365" y="363" type="qcurve" smooth="yes"/>
      <point x="346" y="363"/>
      <point x="287" y="300"/>
      <point x="213" y="184"/>
      <point x="132" y="-2" type="qcurve" smooth="yes"/>
      <point x="127" y="-13"/>
      <point x="33" y="-13"/>
      <point x="36" y="1" type="qcurve" smooth="yes"/>
      <point x="129" y="300" type="line" smooth="yes"/>
      <point x="135" y="319"/>
      <point x="135" y="324" type="qcurve" smooth="yes"/>
      <point x="135" y="336"/>
      <point x="112" y="336"/>
      <point x="80" y="296" type="qcurve" smooth="yes"/>
      <point x="78" y="294"/>
      <point x="76" y="293" type="qcurve" smooth="yes"/>
      <point x="71" y="293"/>
      <point x="53" y="311"/>
      <point x="53" y="316" type="qcurve" smooth="yes"/>
      <point x="53" y="318"/>
      <point x="54" y="320" type="qcurve" smooth="yes"/>
      <point x="134" y="416"/>
      <point x="191" y="416" type="qcurve" smooth="yes"/>
      <point x="235" y="416"/>
      <point x="235" y="363" type="qcurve" smooth="yes"/>
      <point x="235" y="347"/>
      <point x="230" y="330" type="qcurve" smooth="yes"/>
      <point x="205" y="246" type="line"/>
      <point x="210" y="244" type="line"/>
      <point x="249" y="314"/>
      <point x="350" y="416"/>
      <point x="398" y="416" type="qcurve" smooth="yes"/>
      <point x="463" y="416"/>
      <point x="463" y="351" type="qcurve" smooth="yes"/>
      <point x="463" y="322"/>
      <point x="444" y="255" type="qcurve"/>
      <point x="442" y="246" type="line"/>
      <point x="447" y="244" type="line"/>
      <point x="546" y="416"/>
      <point x="641" y="416" type="qcurve" smooth="yes"/>
      <point x="710" y="416"/>
      <point x="710" y="347" type="qcurve" smooth="yes"/>
      <point x="710" y="314"/>
      <point x="696" y="267" type="qcurve" smooth="yes"/>
    </contour>
  </outline>
</glyph>
<glyph name="n" format="1">
  <advance width="500"/>
  <unicode hex="006E"/>
  <outline>
    <contour>
      <point x="208" y="-37" type="move" name="Anchor-1"/>
    </contour>
    <contour>
      <point x="356" y="439" type="move" name="Anchor-0"/>
    </contour>
    <contour>
      <point x="406" y="113" type="line" smooth="yes"/>
      <point x="396" y="81"/>
      <point x="396" y="79" type="qcurve" smooth="yes"/>
      <point x="396" y="69"/>
      <point x="418" y="69"/>
      <point x="455" y="110" type="qcurve" smooth="yes"/>
      <point x="456" y="112"/>
      <point x="459" y="112" type="qcurve" smooth="yes"/>
      <point x="464" y="112"/>
      <point x="483" y="95"/>
      <point x="483" y="89" type="qcurve" smooth="yes"/>
      <point x="483" y="87"/>
      <point x="482" y="86" type="qcurve" smooth="yes"/>
      <point x="403" y="-13"/>
      <point x="337" y="-13" type="qcurve" smooth="yes"/>
      <point x="293" y="-13"/>
      <point x="293" y="49" type="qcurve" smooth="yes"/>
      <point x="293" y="65"/>
      <point x="298" y="82" type="qcurve" smooth="yes"/>
      <point x="359" y="283" type="line" smooth="yes"/>
      <point x="374" y="333"/>
      <point x="374" y="347" type="qcurve" smooth="yes"/>
      <point x="374" y="363"/>
      <point x="365" y="363" type="qcurve" smooth="yes"/>
      <point x="317" y="363"/>
      <point x="170" y="104"/>
      <point x="133" y="-2" type="qcurve" smooth="yes"/>
      <point x="129" y="-13"/>
      <point x="33" y="-13"/>
      <point x="36" y="-1" type="qcurve" smooth="yes"/>
      <point x="131" y="303" type="line" smooth="yes"/>
      <point x="136" y="320"/>
      <point x="136" y="325" type="qcurve" smooth="yes"/>
      <point x="136" y="336"/>
      <point x="114" y="336"/>
      <point x="80" y="296" type="qcurve" smooth="yes"/>
      <point x="78" y="294"/>
      <point x="76" y="294" type="qcurve" smooth="yes"/>
      <point x="71" y="294"/>
      <point x="53" y="311"/>
      <point x="53" y="316" type="qcurve" smooth="yes"/>
      <point x="53" y="318"/>
      <point x="54" y="320" type="qcurve" smooth="yes"/>
      <point x="137" y="416"/>
      <point x="192" y="416" type="qcurve" smooth="yes"/>
      <point x="235" y="416"/>
      <point x="235" y="365" type="qcurve" smooth="yes"/>
      <point x="235" y="347"/>
      <point x="227" y="325" type="qcurve" smooth="yes"/>
      <point x="199" y="246" type="line"/>
      <point x="205" y="244" type="line"/>
      <point x="303" y="416"/>
      <point x="396" y="416" type="qcurve" smooth="yes"/>
      <point x="466" y="416"/>
      <point x="466" y="347" type="qcurve" smooth="yes"/>
      <point x="466" y="312"/>
      <point x="452" y="267" type="qcurve" smooth="yes"/>
    </contour>
  </outline>
</glyph>
<glyph name="o" format="1">
  <advance width="462"/>
  <unicode hex="006F"/>
  <outline>
    <contour>
      <point x="173" y="-37" type="move" name="Anchor-1"/>
    </contour>
    <contour>
      <point x="316" y="439" type="move" name="Anchor-0"/>
    </contour>
    <contour>
      <point x="444" y="258" type="qcurve" smooth="yes"/>
      <point x="444" y="156"/>
      <point x="299" y="-13"/>
      <point x="191" y="-13" type="qcurve" smooth="yes"/>
      <point x="123" y="-13"/>
      <point x="55" y="82"/>
      <point x="55" y="154" type="qcurve" smooth="yes"/>
      <point x="55" y="247"/>
      <point x="214" y="416"/>
      <point x="308" y="416" type="qcurve" smooth="yes"/>
      <point x="376" y="416"/>
      <point x="444" y="328"/>
    </contour>
    <contour>
      <point x="357" y="307" type="qcurve" smooth="yes"/>
      <point x="357" y="365"/>
      <point x="313" y="365" type="qcurve" smooth="yes"/>
      <point x="262" y="365"/>
      <point x="144" y="169"/>
      <point x="144" y="99" type="qcurve" smooth="yes"/>
      <point x="144" y="42"/>
      <point x="191" y="42" type="qcurve" smooth="yes"/>
      <point x="237" y="42"/>
      <point x="357" y="238"/>
    </contour>
  </outline>
</glyph>
<glyph name="p" format="1">
  <advance width="444"/>
  <unicode hex="0070"/>
  <outline>
    <contour>
      <point x="440" y="252" type="qcurve" smooth="yes"/>
      <point x="440" y="150"/>
      <point x="265" y="-13"/>
      <point x="164" y="-13" type="qcurve" smooth="yes"/>
      <point x="154" y="-13"/>
      <point x="136" y="-11" type="qcurve"/>
      <point x="91" y="-196" type="line" smooth="yes"/>
      <point x="89" y="-204"/>
      <point x="89" y="-210" type="qcurve" smooth="yes"/>
      <point x="89" y="-236"/>
      <point x="146" y="-237" type="qcurve" smooth="yes"/>
      <point x="151" y="-237"/>
      <point x="151" y="-244" type="qcurve" smooth="yes"/>
      <point x="151" y="-252"/>
      <point x="142" y="-273"/>
      <point x="136" y="-273" type="qcurve" smooth="yes"/>
      <point x="96" y="-269"/>
      <point x="-33" y="-269"/>
      <point x="-73" y="-273" type="qcurve" smooth="yes"/>
      <point x="-77" y="-273"/>
      <point x="-77" y="-268" type="qcurve" smooth="yes"/>
      <point x="-77" y="-260"/>
      <point x="-69" y="-237"/>
      <point x="-62" y="-237" type="qcurve" smooth="yes"/>
      <point x="-14" y="-237"/>
      <point x="-5" y="-200" type="qcurve" smooth="yes"/>
      <point x="123" y="327" type="line"/>
      <point x="102" y="316"/>
      <point x="67" y="287" type="qcurve" smooth="yes"/>
      <point x="66" y="286"/>
      <point x="63" y="286" type="qcurve" smooth="yes"/>
      <point x="58" y="286"/>
      <point x="42" y="303"/>
      <point x="42" y="309" type="qcurve" smooth="yes"/>
      <point x="42" y="311"/>
      <point x="43" y="312" type="qcurve" smooth="yes"/>
      <point x="86" y="354"/>
      <point x="134" y="379" type="qcurve"/>
      <point x="159" y="494" type="line" smooth="yes"/>
      <point x="162" y="510"/>
      <point x="225" y="527"/>
      <point x="244" y="527" type="qcurve" smooth="yes"/>
      <point x="265" y="527"/>
      <point x="262" y="514" type="qcurve" smooth="yes"/>
      <point x="238" y="410" type="line"/>
      <point x="264" y="412"/>
      <point x="271" y="412" type="qcurve" smooth="yes"/>
      <point x="343" y="412"/>
      <point x="440" y="326"/>
    </contour>
    <contour>
      <point x="335" y="235" type="qcurve" smooth="yes"/>
      <point x="335" y="289"/>
      <point x="297" y="362"/>
      <point x="252" y="362" type="qcurve" smooth="yes"/>
      <point x="240" y="362"/>
      <point x="225" y="359" type="qcurve"/>
      <point x="151" y="55" type="line" smooth="yes"/>
      <point x="149" y="46"/>
      <point x="149" y="39" type="qcurve" smooth="yes"/>
      <point x="149" y="27"/>
      <point x="166" y="27" type="qcurve" smooth="yes"/>
      <point x="234" y="27"/>
      <point x="335" y="162"/>
    </contour>
  </outline>
</glyph>
<glyph name="q" format="1">
  <advance width="478"/>
  <unicode hex="0071"/>
  <outline>
    <contour>
      <point x="346" y="439" type="move" name="Anchor-0"/>
    </contour>
    <contour>
      <point x="350" y="-180" type="line" smooth="yes"/>
      <point x="349" y="-186"/>
      <point x="349" y="-192" type="qcurve" smooth="yes"/>
      <point x="349" y="-213"/>
      <point x="374" y="-213" type="qcurve" smooth="yes"/>
      <point x="384" y="-213"/>
      <point x="397" y="-211" type="qcurve" smooth="yes"/>
      <point x="402" y="-210"/>
      <point x="402" y="-220" type="qcurve" smooth="yes"/>
      <point x="402" y="-249"/>
      <point x="386" y="-249" type="qcurve" smooth="yes"/>
      <point x="307" y="-249"/>
      <point x="184" y="-273" type="qcurve" smooth="yes"/>
      <point x="179" y="-273"/>
      <point x="179" y="-265" type="qcurve" smooth="yes"/>
      <point x="179" y="-235"/>
      <point x="200" y="-233" type="qcurve" smooth="yes"/>
      <point x="242" y="-230"/>
      <point x="254" y="-182" type="qcurve" smooth="yes"/>
      <point x="328" y="126" type="line"/>
      <point x="323" y="130" type="line"/>
      <point x="272" y="70"/>
      <point x="159" y="-13"/>
      <point x="114" y="-13" type="qcurve" smooth="yes"/>
      <point x="72" y="-13"/>
      <point x="31" y="42"/>
      <point x="31" y="78" type="qcurve" smooth="yes"/>
      <point x="31" y="184"/>
      <point x="214" y="416"/>
      <point x="344" y="416" type="qcurve" smooth="yes"/>
      <point x="380" y="416"/>
      <point x="405" y="381" type="qcurve"/>
      <point x="435" y="433" type="line" smooth="yes"/>
      <point x="440" y="442"/>
      <point x="452" y="442" type="qcurve" smooth="yes"/>
      <point x="505" y="442"/>
      <point x="496" y="410" type="qcurve" smooth="yes"/>
      <point x="454" y="252" type="line"/>
    </contour>
    <contour>
      <point x="361" y="306" type="qcurve" smooth="yes"/>
      <point x="361" y="376"/>
      <point x="320" y="376" type="qcurve" smooth="yes"/>
      <point x="259" y="376"/>
      <point x="139" y="149"/>
      <point x="139" y="73" type="qcurve" smooth="yes"/>
      <point x="139" y="48"/>
      <point x="163" y="48" type="qcurve" smooth="yes"/>
      <point x="186" y="48"/>
      <point x="291" y="140"/>
      <point x="321" y="189" type="qcurve" smooth="yes"/>
      <point x="361" y="254"/>
    </contour>
  </outline>
</glyph>
<glyph name="r" format="1">
  <advance width="375"/>
  <unicode hex="0072"/>
  <outline>
    <contour>
      <point x="156" y="-37" type="move" name="Anchor-1"/>
    </contour>
    <contour>
      <point x="277" y="439" type="move" name="Anchor-0"/>
    </contour>
    <contour>
      <point x="415" y="361" type="qcurve" smooth="yes"/>
      <point x="415" y="337"/>
      <point x="391" y="310"/>
      <point x="371" y="310" type="qcurve" smooth="yes"/>
      <point x="349" y="310"/>
      <point x="318" y="338"/>
      <point x="306" y="338" type="qcurve" smooth="yes"/>
      <point x="278" y="338"/>
      <point x="188" y="147"/>
      <point x="149" y="-2" type="qcurve" smooth="yes"/>
      <point x="146" y="-13"/>
      <point x="53" y="-13"/>
      <point x="53" y="4" type="qcurve" smooth="yes"/>
      <point x="53" y="7" type="line"/>
      <point x="113" y="292" type="line" smooth="yes"/>
      <point x="119" y="322"/>
      <point x="119" y="327" type="qcurve" smooth="yes"/>
      <point x="119" y="336"/>
      <point x="97" y="336"/>
      <point x="64" y="291" type="qcurve" smooth="yes"/>
      <point x="63" y="289"/>
      <point x="59" y="289" type="qcurve" smooth="yes"/>
      <point x="54" y="289"/>
      <point x="45" y="295" type="qcurve" smooth="yes"/>
      <point x="34" y="303"/>
      <point x="34" y="309" type="qcurve" smooth="yes"/>
      <point x="34" y="310"/>
      <point x="35" y="312" type="qcurve" smooth="yes"/>
      <point x="79" y="370"/>
      <point x="147" y="416"/>
      <point x="175" y="416" type="qcurve" smooth="yes"/>
      <point x="216" y="416"/>
      <point x="216" y="369" type="qcurve" smooth="yes"/>
      <point x="216" y="351"/>
      <point x="212" y="334" type="qcurve" smooth="yes"/>
      <point x="199" y="277" type="line"/>
      <point x="205" y="275" type="line"/>
      <point x="275" y="416"/>
      <point x="348" y="416" type="qcurve" smooth="yes"/>
      <point x="375" y="416"/>
      <point x="415" y="385"/>
    </contour>
  </outline>
</glyph>
<glyph name="s" format="1">
  <advance width="301"/>
  <unicode hex="0073"/>
  <outline>
    <contour>
      <point x="104" y="-37" type="move" name="Anchor-1"/>
    </contour>
    <contour>
      <point x="231" y="439" type="move" name="Anchor-0"/>
    </contour>
    <contour>
      <point x="311" y="345" type="qcurve" smooth="yes"/>
      <point x="311" y="330"/>
      <point x="286" y="302"/>
      <point x="272" y="302" type="qcurve" smooth="yes"/>
      <point x="234" y="302"/>
      <point x="199" y="364"/>
      <point x="169" y="364" type="qcurve" smooth="yes"/>
      <point x="158" y="364"/>
      <point x="144" y="349"/>
      <point x="144" y="339" type="qcurve" smooth="yes"/>
      <point x="144" y="314"/>
      <point x="265" y="176"/>
      <point x="265" y="68"/>
      <point x="174" y="-13"/>
      <point x="105" y="-13" type="qcurve" smooth="yes"/>
      <point x="69" y="-13"/>
      <point x="20" y="31"/>
      <point x="20" y="52" type="qcurve" smooth="yes"/>
      <point x="20" y="73"/>
      <point x="42" y="105"/>
      <point x="65" y="105" type="qcurve" smooth="yes"/>
      <point x="100" y="105"/>
      <point x="141" y="47"/>
      <point x="168" y="47" type="qcurve" smooth="yes"/>
      <point x="199" y="47"/>
      <point x="199" y="78" type="qcurve" smooth="yes"/>
      <point x="199" y="99"/>
      <point x="86" y="225"/>
      <point x="86" y="281" type="qcurve" smooth="yes"/>
      <point x="86" y="344"/>
      <point x="167" y="416"/>
      <point x="228" y="416" type="qcurve" smooth="yes"/>
      <point x="261" y="416"/>
      <point x="311" y="369"/>
    </contour>
  </outline>
</glyph>
<glyph name="t" format="1">
  <advance width="294"/>
  <unicode hex="0074"/>
  <outline>
    <contour>
      <point x="99" y="-37" type="move" name="Anchor-1"/>
    </contour>
    <contour>
      <point x="152" y="114" type="line" smooth="yes"/>
      <point x="145" y="92"/>
      <point x="145" y="79" type="qcurve" smooth="yes"/>
      <point x="145" y="61"/>
      <point x="158" y="61" type="qcurve" smooth="yes"/>
      <point x="189" y="61"/>
      <point x="269" y="155" type="qcurve" smooth="yes"/>
      <point x="270" y="157"/>
      <point x="273" y="157" type="qcurve" smooth="yes"/>
      <point x="278" y="157"/>
      <point x="286" y="148" type="qcurve" smooth="yes"/>
      <point x="299" y="136"/>
      <point x="294" y="130" type="qcurve" smooth="yes"/>
      <point x="244" y="60"/>
      <point x="154" y="-13"/>
      <point x="102" y="-13" type="qcurve" smooth="yes"/>
      <point x="73" y="-13"/>
      <point x="41" y="27"/>
      <point x="41" y="51" type="qcurve" smooth="yes"/>
      <point x="41" y="72"/>
      <point x="46" y="88" type="qcurve" smooth="yes"/>
      <point x="127" y="348" type="line"/>
      <point x="49" y="348" type="line" smooth="yes"/>
      <point x="41" y="348"/>
      <point x="43" y="366" type="qcurve" smooth="yes"/>
      <point x="45" y="385"/>
      <point x="58" y="387" type="qcurve" smooth="yes"/>
      <point x="144" y="405" type="line"/>
      <point x="212" y="501" type="line" smooth="yes"/>
      <point x="214" y="504"/>
      <point x="226" y="504" type="qcurve" smooth="yes"/>
      <point x="265" y="504"/>
      <point x="265" y="486" type="qcurve" smooth="yes"/>
      <point x="265" y="483"/>
      <point x="264" y="479" type="qcurve" smooth="yes"/>
      <point x="239" y="400" type="line"/>
      <point x="356" y="400" type="line" smooth="yes"/>
      <point x="360" y="400"/>
      <point x="360" y="385"/>
      <point x="352" y="348"/>
      <point x="345" y="348" type="qcurve" smooth="yes"/>
      <point x="224" y="348" type="line"/>
    </contour>
  </outline>
</glyph>
<glyph name="u" format="1">
  <advance width="497"/>
  <unicode hex="0075"/>
  <outline>
    <contour>
      <point x="185" y="-37" type="move" name="Anchor-1"/>
    </contour>
    <contour>
      <point x="303" y="439" type="move" name="Anchor-0"/>
    </contour>
    <contour>
      <point x="402" y="113" type="line" smooth="yes"/>
      <point x="392" y="81"/>
      <point x="392" y="79" type="qcurve" smooth="yes"/>
      <point x="392" y="69"/>
      <point x="418" y="69"/>
      <point x="454" y="110" type="qcurve" smooth="yes"/>
      <point x="455" y="111"/>
      <point x="458" y="111" type="qcurve" smooth="yes"/>
      <point x="463" y="111"/>
      <point x="472" y="104" type="qcurve" smooth="yes"/>
      <point x="481" y="95"/>
      <point x="481" y="89" type="qcurve" smooth="yes"/>
      <point x="481" y="88"/>
      <point x="480" y="86" type="qcurve" smooth="yes"/>
      <point x="399" y="-13"/>
      <point x="341" y="-13" type="qcurve" smooth="yes"/>
      <point x="289" y="-13"/>
      <point x="289" y="46" type="qcurve" smooth="yes"/>
      <point x="289" y="63"/>
      <point x="295" y="83" type="qcurve" smooth="yes"/>
      <point x="317" y="157" type="line"/>
      <point x="268" y="90"/>
      <point x="154" y="-13"/>
      <point x="119" y="-13" type="qcurve" smooth="yes"/>
      <point x="58" y="-13"/>
      <point x="58" y="47" type="qcurve" smooth="yes"/>
      <point x="58" y="71"/>
      <point x="68" y="102" type="qcurve" smooth="yes"/>
      <point x="130" y="301" type="line" smooth="yes"/>
      <point x="137" y="324"/>
      <point x="137" y="327" type="qcurve" smooth="yes"/>
      <point x="137" y="336"/>
      <point x="119" y="336"/>
      <point x="106" y="325" type="qcurve" smooth="yes"/>
      <point x="93" y="314"/>
      <point x="79" y="295" type="qcurve" smooth="yes"/>
      <point x="77" y="293"/>
      <point x="75" y="292" type="qcurve" smooth="yes"/>
      <point x="70" y="292"/>
      <point x="52" y="308"/>
      <point x="52" y="314" type="qcurve" smooth="yes"/>
      <point x="52" y="316"/>
      <point x="53" y="318" type="qcurve" smooth="yes"/>
      <point x="129" y="416"/>
      <point x="195" y="416" type="qcurve" smooth="yes"/>
      <point x="239" y="416"/>
      <point x="239" y="355" type="qcurve" smooth="yes"/>
      <point x="239" y="337"/>
      <point x="231" y="312" type="qcurve" smooth="yes"/>
      <point x="184" y="162" type="line" smooth="yes"/>
      <point x="166" y="104"/>
      <point x="166" y="85" type="qcurve" smooth="yes"/>
      <point x="166" y="65"/>
      <point x="177" y="65" type="qcurve" smooth="yes"/>
      <point x="202" y="65"/>
      <point x="302" y="198"/>
      <point x="327" y="245" type="qcurve" smooth="yes"/>
      <point x="372" y="328"/>
      <point x="395" y="405" type="qcurve" smooth="yes"/>
      <point x="398" y="416"/>
      <point x="441" y="416" type="qcurve" smooth="yes"/>
      <point x="496" y="416"/>
      <point x="490" y="399" type="qcurve" smooth="yes"/>
    </contour>
  </outline>
</glyph>
<glyph name="v" format="1">
  <advance width="411"/>
  <unicode hex="0076"/>
  <outline>
    <contour>
      <point x="128" y="-37" type="move" name="Anchor-1"/>
    </contour>
    <contour>
      <point x="283" y="439" type="move" name="Anchor-0"/>
    </contour>
    <contour>
      <point x="424" y="345" type="qcurve" smooth="yes"/>
      <point x="424" y="278"/>
      <point x="343" y="102"/>
      <point x="197" y="-13"/>
      <point x="133" y="-13" type="qcurve" smooth="yes"/>
      <point x="102" y="-13"/>
      <point x="68" y="14"/>
      <point x="55" y="60"/>
      <point x="63" y="85" type="qcurve" smooth="yes"/>
      <point x="125" y="284" type="line" smooth="yes"/>
      <point x="136" y="320"/>
      <point x="136" y="324" type="qcurve" smooth="yes"/>
      <point x="136" y="336"/>
      <point x="128" y="336" type="qcurve" smooth="yes"/>
      <point x="112" y="336"/>
      <point x="80" y="296" type="qcurve" smooth="yes"/>
      <point x="75" y="290"/>
      <point x="62" y="302" type="qcurve" smooth="yes"/>
      <point x="53" y="311"/>
      <point x="53" y="316" type="qcurve" smooth="yes"/>
      <point x="53" y="318"/>
      <point x="54" y="320" type="qcurve" smooth="yes"/>
      <point x="138" y="416"/>
      <point x="195" y="416" type="qcurve" smooth="yes"/>
      <point x="217" y="416"/>
      <point x="239" y="382"/>
      <point x="239" y="356" type="qcurve" smooth="yes"/>
      <point x="239" y="339"/>
      <point x="234" y="323" type="qcurve" smooth="yes"/>
      <point x="166" y="105" type="line" smooth="yes"/>
      <point x="159" y="83"/>
      <point x="163" y="64" type="qcurve" smooth="yes"/>
      <point x="168" y="43"/>
      <point x="189" y="43" type="qcurve" smooth="yes"/>
      <point x="232" y="43"/>
      <point x="341" y="205"/>
      <point x="341" y="277" type="qcurve" smooth="yes"/>
      <point x="341" y="322"/>
      <point x="317" y="366" type="qcurve"/>
      <point x="317" y="416"/>
      <point x="365" y="416" type="qcurve" smooth="yes"/>
      <point x="394" y="416"/>
      <point x="424" y="374"/>
    </contour>
  </outline>
</glyph>
<glyph name="w" format="1">
  <advance width="614"/>
  <unicode hex="0077"/>
  <outline>
    <contour>
      <point x="233" y="-37" type="move" name="Anchor-1"/>
    </contour>
    <contour>
      <point x="387" y="439" type="move" name="Anchor-0"/>
    </contour>
    <contour>
      <point x="627" y="345" type="qcurve" smooth="yes"/>
      <point x="627" y="286"/>
      <point x="544" y="102"/>
      <point x="398" y="-13"/>
      <point x="336" y="-13" type="qcurve" smooth="yes"/>
      <point x="309" y="-13"/>
      <point x="291" y="-1" type="qcurve" smooth="yes"/>
      <point x="273" y="12"/>
      <point x="266" y="37" type="qcurve"/>
      <point x="195" y="-13"/>
      <point x="133" y="-13" type="qcurve" smooth="yes"/>
      <point x="97" y="-13"/>
      <point x="58" y="22"/>
      <point x="58" y="51" type="qcurve" smooth="yes"/>
      <point x="58" y="66"/>
      <point x="64" y="85" type="qcurve" smooth="yes"/>
      <point x="125" y="283" type="line" smooth="yes"/>
      <point x="136" y="320"/>
      <point x="136" y="336"/>
      <point x="114" y="336"/>
      <point x="80" y="296" type="qcurve" smooth="yes"/>
      <point x="78" y="294"/>
      <point x="70" y="294"/>
      <point x="53" y="311"/>
      <point x="53" y="317" type="qcurve" smooth="yes"/>
      <point x="53" y="320"/>
      <point x="55" y="322" type="qcurve" smooth="yes"/>
      <point x="138" y="416"/>
      <point x="195" y="416" type="qcurve" smooth="yes"/>
      <point x="239" y="416"/>
      <point x="239" y="358" type="qcurve" smooth="yes"/>
      <point x="239" y="337"/>
      <point x="234" y="322" type="qcurve" smooth="yes"/>
      <point x="166" y="104" type="line" smooth="yes"/>
      <point x="162" y="91"/>
      <point x="162" y="77" type="qcurve" smooth="yes"/>
      <point x="162" y="43"/>
      <point x="188" y="43" type="qcurve" smooth="yes"/>
      <point x="211" y="43"/>
      <point x="248" y="82"/>
      <point x="285" y="145"/>
      <point x="298" y="186" type="qcurve" smooth="yes"/>
      <point x="363" y="402" type="line" smooth="yes"/>
      <point x="367" y="416"/>
      <point x="459" y="416"/>
      <point x="459" y="405" type="qcurve" smooth="yes"/>
      <point x="459" y="402" type="line"/>
      <point x="367" y="103" type="line" smooth="yes"/>
      <point x="363" y="89"/>
      <point x="363" y="79" type="qcurve" smooth="yes"/>
      <point x="363" y="43"/>
      <point x="432" y="43"/>
      <point x="543" y="200"/>
      <point x="543" y="274" type="qcurve" smooth="yes"/>
      <point x="543" y="321"/>
      <point x="519" y="363" type="qcurve"/>
      <point x="519" y="416"/>
      <point x="569" y="416" type="qcurve" smooth="yes"/>
      <point x="601" y="416"/>
      <point x="627" y="370"/>
    </contour>
  </outline>
</glyph>
<glyph name="x" format="1">
  <advance width="439"/>
  <unicode hex="0078"/>
  <outline>
    <contour>
      <point x="169" y="-37" type="move" name="Anchor-1"/>
    </contour>
    <contour>
      <point x="274" y="439" type="move" name="Anchor-0"/>
    </contour>
    <contour>
      <point x="466" y="363" type="qcurve" smooth="yes"/>
      <point x="466" y="306"/>
      <point x="424" y="306" type="qcurve" smooth="yes"/>
      <point x="407" y="306"/>
      <point x="391" y="344"/>
      <point x="379" y="344" type="qcurve" smooth="yes"/>
      <point x="360" y="344"/>
      <point x="335" y="310" type="qcurve" smooth="yes"/>
      <point x="271" y="223" type="line"/>
      <point x="319" y="129" type="line" smooth="yes"/>
      <point x="344" y="79"/>
      <point x="356" y="79" type="qcurve" smooth="yes"/>
      <point x="369" y="79"/>
      <point x="391" y="129" type="qcurve" smooth="yes"/>
      <point x="393" y="134"/>
      <point x="408" y="134"/>
      <point x="421" y="127"/>
      <point x="420" y="122" type="qcurve" smooth="yes"/>
      <point x="394" y="-13"/>
      <point x="333" y="-13" type="qcurve" smooth="yes"/>
      <point x="291" y="-13"/>
      <point x="250" y="61" type="qcurve" smooth="yes"/>
      <point x="208" y="138" type="line"/>
      <point x="160" y="72" type="line" smooth="yes"/>
      <point x="99" y="-13"/>
      <point x="49" y="-13" type="qcurve" smooth="yes"/>
      <point x="28" y="-13"/>
      <point x="2" y="10"/>
      <point x="2" y="30" type="qcurve" smooth="yes"/>
      <point x="2" y="57"/>
      <point x="28" y="97"/>
      <point x="45" y="97" type="qcurve" smooth="yes"/>
      <point x="62" y="97"/>
      <point x="84" y="61"/>
      <point x="87" y="61" type="qcurve" smooth="yes"/>
      <point x="104" y="61"/>
      <point x="123" y="88" type="qcurve" smooth="yes"/>
      <point x="188" y="177" type="line"/>
      <point x="134" y="282" type="line" smooth="yes"/>
      <point x="114" y="327"/>
      <point x="105" y="327" type="qcurve" smooth="yes"/>
      <point x="98" y="327"/>
      <point x="80" y="297"/>
      <point x="73" y="283" type="qcurve" smooth="yes"/>
      <point x="72" y="280"/>
      <point x="62" y="280"/>
      <point x="41" y="293"/>
      <point x="43" y="300" type="qcurve" smooth="yes"/>
      <point x="94" y="416"/>
      <point x="139" y="416" type="qcurve" smooth="yes"/>
      <point x="176" y="416"/>
      <point x="205" y="357" type="qcurve" smooth="yes"/>
      <point x="252" y="262" type="line"/>
      <point x="296" y="323" type="line" smooth="yes"/>
      <point x="363" y="416"/>
      <point x="413" y="416" type="qcurve" smooth="yes"/>
      <point x="441" y="416"/>
      <point x="466" y="388"/>
    </contour>
  </outline>
</glyph>
<glyph name="y" format="1">
  <advance width="381"/>
  <unicode hex="0079"/>
  <outline>
    <contour>
      <point x="252" y="439" type="move" name="Anchor-0"/>
    </contour>
    <contour>
      <point x="395" y="373" type="qcurve" smooth="yes"/>
      <point x="395" y="342"/>
      <point x="348" y="175"/>
      <point x="268" y="17"/>
      <point x="153" y="-183"/>
      <point x="50" y="-271"/>
      <point x="-2" y="-271" type="qcurve" smooth="yes"/>
      <point x="-32" y="-271"/>
      <point x="-74" y="-241"/>
      <point x="-74" y="-218" type="qcurve" smooth="yes"/>
      <point x="-74" y="-193"/>
      <point x="-48" y="-165"/>
      <point x="-25" y="-165" type="qcurve" smooth="yes"/>
      <point x="-5" y="-165"/>
      <point x="23" y="-211"/>
      <point x="63" y="-211"/>
      <point x="129" y="-142"/>
      <point x="155" y="-37"/>
      <point x="155" y="35" type="qcurve" smooth="yes"/>
      <point x="155" y="162"/>
      <point x="133" y="335"/>
      <point x="106" y="335" type="qcurve" smooth="yes"/>
      <point x="85" y="335"/>
      <point x="57" y="280" type="qcurve" smooth="yes"/>
      <point x="56" y="277"/>
      <point x="45" y="276"/>
      <point x="23" y="289"/>
      <point x="26" y="295" type="qcurve" smooth="yes"/>
      <point x="80" y="416"/>
      <point x="145" y="416" type="qcurve" smooth="yes"/>
      <point x="193" y="416"/>
      <point x="246" y="254"/>
      <point x="246" y="151" type="qcurve" smooth="yes"/>
      <point x="246" y="103"/>
      <point x="241" y="58" type="qcurve"/>
      <point x="247" y="56" type="line"/>
      <point x="276" y="113"/>
      <point x="316" y="267"/>
      <point x="316" y="315" type="qcurve" smooth="yes"/>
      <point x="316" y="342"/>
      <point x="303" y="371" type="qcurve"/>
      <point x="303" y="416"/>
      <point x="395" y="416"/>
    </contour>
  </outline>
</glyph>
<glyph name="z" format="1">
  <advance width="447"/>
  <unicode hex="007A"/>
  <outline>
    <contour>
      <point x="199" y="-37" type="move" name="Anchor-1"/>
    </contour>
    <contour>
      <point x="289" y="439" type="move" name="Anchor-0"/>
    </contour>
    <contour>
      <point x="195" y="102" type="line"/>
      <point x="197" y="93" type="line"/>
      <point x="217" y="89" type="line" smooth="yes"/>
      <point x="269" y="80"/>
      <point x="348" y="35"/>
      <point x="356" y="35" type="qcurve" smooth="yes"/>
      <point x="386" y="35"/>
      <point x="386" y="62" type="qcurve" smooth="yes"/>
      <point x="386" y="71"/>
      <point x="357" y="100"/>
      <point x="357" y="124" type="qcurve" smooth="yes"/>
      <point x="357" y="160"/>
      <point x="404" y="160" type="qcurve" smooth="yes"/>
      <point x="424" y="160"/>
      <point x="451" y="127"/>
      <point x="451" y="105" type="qcurve" smooth="yes"/>
      <point x="451" y="54"/>
      <point x="372" y="-29"/>
      <point x="325" y="-29" type="qcurve" smooth="yes"/>
      <point x="302" y="-29"/>
      <point x="230" y="0"/>
      <point x="156" y="32"/>
      <point x="139" y="32" type="qcurve" smooth="yes"/>
      <point x="99" y="32"/>
      <point x="72" y="-10" type="qcurve" smooth="yes"/>
      <point x="70" y="-13"/>
      <point x="63" y="-13" type="qcurve" smooth="yes"/>
      <point x="53" y="-13"/>
      <point x="36" y="6" type="qcurve" smooth="yes"/>
      <point x="18" y="26"/>
      <point x="18" y="37" type="qcurve" smooth="yes"/>
      <point x="18" y="42"/>
      <point x="21" y="45" type="qcurve" smooth="yes"/>
      <point x="274" y="302" type="line" smooth="yes"/>
      <point x="280" y="308"/>
      <point x="280" y="313" type="qcurve" smooth="yes"/>
      <point x="280" y="320"/>
      <point x="270" y="324" type="qcurve" smooth="yes"/>
      <point x="224" y="342"/>
      <point x="166" y="340" type="qcurve" smooth="yes"/>
      <point x="140" y="339"/>
      <point x="140" y="329" type="qcurve" smooth="yes"/>
      <point x="140" y="325"/>
      <point x="172" y="295"/>
      <point x="172" y="277" type="qcurve" smooth="yes"/>
      <point x="172" y="235"/>
      <point x="125" y="234" type="qcurve" smooth="yes"/>
      <point x="75" y="234"/>
      <point x="75" y="289" type="qcurve" smooth="yes"/>
      <point x="75" y="338"/>
      <point x="167" y="411"/>
      <point x="224" y="411" type="qcurve" smooth="yes"/>
      <point x="250" y="411"/>
      <point x="342" y="384"/>
      <point x="363" y="384" type="qcurve" smooth="yes"/>
      <point x="388" y="384"/>
      <point x="398" y="396" type="qcurve" smooth="yes"/>
      <point x="418" y="417" type="line" smooth="yes"/>
      <point x="421" y="420"/>
      <point x="426" y="420" type="qcurve" smooth="yes"/>
      <point x="434" y="420"/>
      <point x="448" y="406" type="qcurve" smooth="yes"/>
      <point x="462" y="391"/>
      <point x="462" y="383" type="qcurve" smooth="yes"/>
      <point x="462" y="379"/>
      <point x="459" y="376" type="qcurve" smooth="yes"/>
    </contour>
  </outline>
</glyph>
<glyph name="braceleft" format="1">
  <advance width="382"/>
  <unicode hex="007B"/>
  <outline>
    <contour>
      <point x="544" y="729" type="qcurve" smooth="yes"/>
      <point x="551" y="729"/>
      <point x="541" y="692"/>
      <point x="534" y="692" type="qcurve" smooth="yes"/>
      <point x="468" y="692"/>
      <point x="399" y="648"/>
      <point x="380" y="578" type="qcurve" smooth="yes"/>
      <point x="349" y="464" type="line" smooth="yes"/>
      <point x="339" y="427"/>
      <point x="327" y="391"/>
      <point x="303" y="344"/>
      <point x="269" y="314"/>
      <point x="243" y="301" type="qcurve"/>
      <point x="275" y="278"/>
      <point x="282" y="203"/>
      <point x="265" y="149" type="qcurve" smooth="yes"/>
      <point x="230" y="19" type="line" smooth="yes"/>
      <point x="208" y="-69"/>
      <point x="242" y="-119"/>
      <point x="317" y="-119" type="qcurve" smooth="yes"/>
      <point x="324" y="-119"/>
      <point x="314" y="-156"/>
      <point x="307" y="-156" type="qcurve" smooth="yes"/>
      <point x="296" y="-156" type="line" smooth="yes"/>
      <point x="263" y="-156"/>
      <point x="230" y="-155"/>
      <point x="176" y="-149"/>
      <point x="152" y="-138"/>
      <point x="121" y="-115"/>
      <point x="113" y="-81"/>
      <point x="114" y="-30"/>
      <point x="123" y="3" type="qcurve" smooth="yes"/>
      <point x="178" y="210" type="line" smooth="yes"/>
      <point x="189" y="250"/>
      <point x="164" y="286"/>
      <point x="124" y="286" type="qcurve" smooth="yes"/>
      <point x="116" y="286"/>
      <point x="124" y="316"/>
      <point x="132" y="316" type="qcurve" smooth="yes"/>
      <point x="172" y="316"/>
      <point x="216" y="351"/>
      <point x="226" y="389" type="qcurve" smooth="yes"/>
      <point x="269" y="548" type="line" smooth="yes"/>
      <point x="278" y="581"/>
      <point x="298" y="633"/>
      <point x="325" y="671"/>
      <point x="348" y="697"/>
      <point x="387" y="714"/>
      <point x="416" y="724"/>
      <point x="471" y="728"/>
      <point x="508" y="729"/>
    </contour>
  </outline>
</glyph>
<glyph name="braceright" format="1">
  <advance width="382"/>
  <unicode hex="007D"/>
  <outline>
    <contour>
      <point x="425" y="316" type="qcurve" smooth="yes"/>
      <point x="432" y="316"/>
      <point x="424" y="286"/>
      <point x="417" y="286" type="qcurve" smooth="yes"/>
      <point x="377" y="286"/>
      <point x="333" y="250"/>
      <point x="322" y="210" type="qcurve" smooth="yes"/>
      <point x="266" y="3" type="line" smooth="yes"/>
      <point x="258" y="-26"/>
      <point x="238" y="-73"/>
      <point x="210" y="-105"/>
      <point x="185" y="-129"/>
      <point x="145" y="-143"/>
      <point x="117" y="-152"/>
      <point x="66" y="-155"/>
      <point x="38" y="-156"/>
      <point x="8" y="-156" type="qcurve" smooth="yes"/>
      <point x="-3" y="-156" type="line" smooth="yes"/>
      <point x="-10" y="-156"/>
      <point x="-1" y="-119"/>
      <point x="7" y="-119" type="qcurve" smooth="yes"/>
      <point x="82" y="-119"/>
      <point x="144" y="-67"/>
      <point x="168" y="19" type="qcurve" smooth="yes"/>
      <point x="202" y="149" type="line" smooth="yes"/>
      <point x="219" y="210"/>
      <point x="261" y="278"/>
      <point x="305" y="301" type="qcurve"/>
      <point x="270" y="325"/>
      <point x="268" y="408"/>
      <point x="287" y="464" type="qcurve"/>
      <point x="317" y="578" type="line" smooth="yes"/>
      <point x="336" y="648"/>
      <point x="291" y="692"/>
      <point x="224" y="692" type="qcurve" smooth="yes"/>
      <point x="217" y="692"/>
      <point x="227" y="729"/>
      <point x="234" y="729" type="qcurve" smooth="yes"/>
      <point x="270" y="729"/>
      <point x="306" y="728"/>
      <point x="359" y="724"/>
      <point x="383" y="714"/>
      <point x="413" y="697"/>
      <point x="422" y="671"/>
      <point x="429" y="633"/>
      <point x="421" y="581"/>
      <point x="412" y="548" type="qcurve" smooth="yes"/>
      <point x="370" y="389" type="line" smooth="yes"/>
      <point x="359" y="351"/>
      <point x="385" y="316"/>
    </contour>
  </outline>
</glyph>
<glyph name="asciitilde" format="1">
  <advance width="362"/>
  <unicode hex="007E"/>
  <outline>
    <contour>
      <point x="359" y="253" type="qcurve" smooth="yes"/>
      <point x="355" y="249"/>
      <point x="323" y="212"/>
      <point x="300" y="190"/>
      <point x="258" y="169"/>
      <point x="235" y="169" type="qcurve" smooth="yes"/>
      <point x="210" y="169"/>
      <point x="114" y="214"/>
      <point x="92" y="214" type="qcurve" smooth="yes"/>
      <point x="69" y="214"/>
      <point x="29" y="179" type="qcurve" smooth="yes"/>
      <point x="22" y="172"/>
      <point x="-3" y="196"/>
      <point x="3" y="203" type="qcurve" smooth="yes"/>
      <point x="6" y="206"/>
      <point x="30" y="235"/>
      <point x="45" y="249"/>
      <point x="73" y="270"/>
      <point x="107" y="280"/>
      <point x="127" y="280" type="qcurve" smooth="yes"/>
      <point x="153" y="280"/>
      <point x="245" y="236"/>
      <point x="264" y="236" type="qcurve" smooth="yes"/>
      <point x="278" y="236"/>
      <point x="301" y="247"/>
      <point x="327" y="270"/>
      <point x="332" y="274" type="qcurve" smooth="yes"/>
      <point x="339" y="279"/>
      <point x="364" y="259"/>
    </contour>
  </outline>
</glyph>
<glyph name="exclamdown" format="1">
  <advance width="290"/>
  <unicode hex="00A1"/>
  <outline>
    <contour>
      <point x="279" y="317"/>
      <point x="233" y="272"/>
      <point x="201" y="272" type="qcurve" smooth="yes"/>
      <point x="170" y="272"/>
      <point x="124" y="318"/>
      <point x="124" y="349" type="qcurve" smooth="yes"/>
      <point x="124" y="381"/>
      <point x="169" y="426"/>
      <point x="233" y="426"/>
      <point x="279" y="381"/>
    </contour>
    <contour>
      <point x="179" y="195" type="qcurve" smooth="yes"/>
      <point x="102" y="-196"/>
      <point x="101" y="-201" type="qcurve" smooth="yes"/>
      <point x="93" y="-230"/>
      <point x="45" y="-270"/>
      <point x="20" y="-270" type="qcurve" smooth="yes"/>
      <point x="-56" y="-270"/>
      <point x="-31" y="-191" type="qcurve" smooth="yes"/>
      <point x="-28" y="-181"/>
      <point x="114" y="153"/>
      <point x="132" y="197" type="qcurve" smooth="yes"/>
      <point x="135" y="204"/>
      <point x="159" y="208"/>
      <point x="180" y="201"/>
    </contour>
  </outline>
</glyph>
<glyph name="cent" format="1">
  <advance width="429"/>
  <unicode hex="00A2"/>
  <outline>
    <contour>
      <point x="476" y="503" type="qcurve" smooth="yes"/>
      <point x="477" y="490"/>
      <point x="462" y="453"/>
      <point x="447" y="442" type="qcurve" smooth="yes"/>
      <point x="407" y="410"/>
      <point x="388" y="439" type="qcurve"/>
      <point x="381" y="460" type="line" smooth="yes"/>
      <point x="374" y="481"/>
      <point x="363" y="490" type="qcurve"/>
      <point x="228" y="185" type="line"/>
      <point x="246" y="175"/>
      <point x="263" y="175" type="qcurve" smooth="yes"/>
      <point x="293" y="175"/>
      <point x="339" y="186"/>
      <point x="360" y="200"/>
      <point x="372" y="206" type="qcurve" smooth="yes"/>
      <point x="384" y="213"/>
      <point x="399" y="170"/>
      <point x="388" y="165" type="qcurve" smooth="yes"/>
      <point x="386" y="164"/>
      <point x="341" y="139"/>
      <point x="306" y="123"/>
      <point x="238" y="107"/>
      <point x="203" y="107" type="qcurve" smooth="yes"/>
      <point x="193" y="107" type="line"/>
      <point x="152" y="14" type="line" smooth="yes"/>
      <point x="149" y="8"/>
      <point x="98" y="18"/>
      <point x="100" y="24" type="qcurve" smooth="yes"/>
      <point x="142" y="119" type="line"/>
      <point x="104" y="136"/>
      <point x="58" y="207"/>
      <point x="58" y="255" type="qcurve" smooth="yes"/>
      <point x="58" y="305"/>
      <point x="109" y="411"/>
      <point x="148" y="451" type="qcurve" smooth="yes"/>
      <point x="231" y="537"/>
      <point x="332" y="546" type="qcurve"/>
      <point x="373" y="640" type="line" smooth="yes"/>
      <point x="376" y="647"/>
      <point x="427" y="636"/>
      <point x="425" y="630" type="qcurve" smooth="yes"/>
      <point x="387" y="545" type="line"/>
      <point x="465" y="536"/>
    </contour>
    <contour>
      <point x="310" y="497" type="line"/>
      <point x="260" y="482"/>
      <point x="178" y="347"/>
      <point x="178" y="289" type="qcurve" smooth="yes"/>
      <point x="178" y="257"/>
      <point x="191" y="228" type="qcurve"/>
    </contour>
  </outline>
</glyph>
<glyph name="sterling" format="1">
  <advance width="527"/>
  <unicode hex="00A3"/>
  <outline>
    <contour>
      <point x="556" y="570" type="qcurve" smooth="yes"/>
      <point x="556" y="556"/>
      <point x="529" y="511"/>
      <point x="509" y="511" type="qcurve" smooth="yes"/>
      <point x="498" y="511"/>
      <point x="480" y="540"/>
      <point x="467" y="575"/>
      <point x="434" y="604"/>
      <point x="411" y="604" type="qcurve" smooth="yes"/>
      <point x="384" y="604"/>
      <point x="345" y="534"/>
      <point x="332" y="441"/>
      <point x="322" y="348"/>
      <point x="322" y="324" type="qcurve"/>
      <point x="463" y="324" type="line" smooth="yes"/>
      <point x="470" y="324"/>
      <point x="462" y="279"/>
      <point x="455" y="279" type="qcurve" smooth="yes"/>
      <point x="315" y="279" type="line"/>
      <point x="307" y="229"/>
      <point x="238" y="129"/>
      <point x="192" y="96" type="qcurve"/>
      <point x="227" y="101"/>
      <point x="297" y="68"/>
      <point x="356" y="30"/>
      <point x="374" y="30" type="qcurve" smooth="yes"/>
      <point x="388" y="30"/>
      <point x="400" y="58"/>
      <point x="397" y="90"/>
      <point x="398" y="102" type="qcurve" smooth="yes"/>
      <point x="398" y="149"/>
      <point x="439" y="149" type="qcurve" smooth="yes"/>
      <point x="466" y="149"/>
      <point x="494" y="111"/>
      <point x="494" y="89" type="qcurve" smooth="yes"/>
      <point x="494" y="50"/>
      <point x="427" y="-6"/>
      <point x="352" y="-26"/>
      <point x="319" y="-26" type="qcurve" smooth="yes"/>
      <point x="285" y="-26"/>
      <point x="218" y="-2"/>
      <point x="138" y="38"/>
      <point x="114" y="47" type="qcurve"/>
      <point x="98" y="43"/>
      <point x="81" y="22"/>
      <point x="75" y="1"/>
      <point x="52" y="-15"/>
      <point x="31" y="-15" type="qcurve" smooth="yes"/>
      <point x="11" y="-15"/>
      <point x="-22" y="6"/>
      <point x="-22" y="25" type="qcurve" smooth="yes"/>
      <point x="-22" y="41"/>
      <point x="8" y="69"/>
      <point x="54" y="86"/>
      <point x="93" y="96"/>
      <point x="111" y="98" type="qcurve" smooth="yes"/>
      <point x="149" y="103"/>
      <point x="195" y="218"/>
      <point x="200" y="279" type="qcurve"/>
      <point x="94" y="279" type="line" smooth="yes"/>
      <point x="86" y="279"/>
      <point x="98" y="324"/>
      <point x="105" y="324" type="qcurve" smooth="yes"/>
      <point x="206" y="324" type="line"/>
      <point x="213" y="380"/>
      <point x="227" y="452"/>
      <point x="266" y="547"/>
      <point x="295" y="578" type="qcurve" smooth="yes"/>
      <point x="360" y="646"/>
      <point x="443" y="646" type="qcurve" smooth="yes"/>
      <point x="556" y="646"/>
    </contour>
  </outline>
</glyph>
<glyph name="currency" format="1">
  <advance width="500"/>
  <unicode hex="00A4"/>
  <outline>
    <contour>
      <point x="462" y="255"/>
      <point x="419" y="198" type="qcurve"/>
      <point x="457" y="160" type="line" smooth="yes"/>
      <point x="462" y="155"/>
      <point x="421" y="114"/>
      <point x="416" y="119" type="qcurve" smooth="yes"/>
      <point x="378" y="157" type="line"/>
      <point x="321" y="114"/>
      <point x="251" y="114" type="qcurve" smooth="yes"/>
      <point x="180" y="114"/>
      <point x="123" y="158" type="qcurve"/>
      <point x="84" y="119" type="line" smooth="yes"/>
      <point x="79" y="114"/>
      <point x="38" y="155"/>
      <point x="43" y="160" type="qcurve" smooth="yes"/>
      <point x="82" y="199" type="line"/>
      <point x="39" y="255"/>
      <point x="39" y="397"/>
      <point x="82" y="453" type="qcurve"/>
      <point x="43" y="492" type="line" smooth="yes"/>
      <point x="38" y="497"/>
      <point x="79" y="538"/>
      <point x="84" y="533" type="qcurve" smooth="yes"/>
      <point x="123" y="494" type="line"/>
      <point x="180" y="538"/>
      <point x="250" y="538" type="qcurve" smooth="yes"/>
      <point x="321" y="538"/>
      <point x="378" y="495" type="qcurve"/>
      <point x="416" y="533" type="line" smooth="yes"/>
      <point x="421" y="538"/>
      <point x="462" y="497"/>
      <point x="457" y="492" type="qcurve" smooth="yes"/>
      <point x="419" y="454" type="line"/>
      <point x="462" y="397"/>
    </contour>
    <contour>
      <point x="403" y="389"/>
      <point x="314" y="478"/>
      <point x="250" y="478" type="qcurve" smooth="yes"/>
      <point x="187" y="478"/>
      <point x="98" y="389"/>
      <point x="98" y="263"/>
      <point x="143" y="218" type="qcurve" smooth="yes"/>
      <point x="187" y="174"/>
      <point x="250" y="174" type="qcurve" smooth="yes"/>
      <point x="314" y="174"/>
      <point x="358" y="218" type="qcurve" smooth="yes"/>
      <point x="403" y="263"/>
    </contour>
  </outline>
</glyph>
<glyph name="yen" format="1">
  <advance width="619"/>
  <unicode hex="00A5"/>
  <outline>
    <contour>
      <point x="212" y="106" type="qcurve" smooth="yes"/>
      <point x="249" y="227" type="line"/>
      <point x="78" y="228" type="line" smooth="yes"/>
      <point x="70" y="228"/>
      <point x="85" y="278"/>
      <point x="91" y="277" type="qcurve" smooth="yes"/>
      <point x="263" y="277" type="line"/>
      <point x="262" y="300"/>
      <point x="252" y="331" type="qcurve" smooth="yes"/>
      <point x="240" y="367" type="line"/>
      <point x="115" y="368" type="line" smooth="yes"/>
      <point x="108" y="368"/>
      <point x="122" y="418"/>
      <point x="129" y="417" type="qcurve" smooth="yes"/>
      <point x="223" y="417" type="line"/>
      <point x="178" y="556" type="line" smooth="yes"/>
      <point x="168" y="588"/>
      <point x="135" y="620"/>
      <point x="101" y="620" type="qcurve" smooth="yes"/>
      <point x="94" y="620"/>
      <point x="104" y="666"/>
      <point x="111" y="666" type="qcurve" smooth="yes"/>
      <point x="139" y="663"/>
      <point x="330" y="663"/>
      <point x="358" y="666" type="qcurve" smooth="yes"/>
      <point x="366" y="666"/>
      <point x="354" y="620"/>
      <point x="348" y="620" type="qcurve" smooth="yes"/>
      <point x="307" y="620"/>
      <point x="283" y="599"/>
      <point x="294" y="565" type="qcurve" smooth="yes"/>
      <point x="358" y="368" type="line" smooth="yes"/>
      <point x="366" y="346"/>
      <point x="384" y="367" type="qcurve" smooth="yes"/>
      <point x="573" y="565" type="line" smooth="yes"/>
      <point x="602" y="596"/>
      <point x="589" y="620"/>
      <point x="550" y="620" type="qcurve" smooth="yes"/>
      <point x="543" y="620"/>
      <point x="556" y="666"/>
      <point x="562" y="666" type="qcurve" smooth="yes"/>
      <point x="590" y="663"/>
      <point x="742" y="663"/>
      <point x="771" y="666" type="qcurve" smooth="yes"/>
      <point x="778" y="666"/>
      <point x="767" y="620"/>
      <point x="759" y="620" type="qcurve" smooth="yes"/>
      <point x="710" y="620"/>
      <point x="655" y="585"/>
      <point x="585" y="510" type="qcurve" smooth="yes"/>
      <point x="498" y="417" type="line"/>
      <point x="590" y="418" type="line" smooth="yes"/>
      <point x="596" y="418"/>
      <point x="584" y="368"/>
      <point x="576" y="367" type="qcurve" smooth="yes"/>
      <point x="451" y="367" type="line"/>
      <point x="400" y="313" type="line" smooth="yes"/>
      <point x="384" y="297"/>
      <point x="378" y="277" type="qcurve"/>
      <point x="553" y="278" type="line" smooth="yes"/>
      <point x="559" y="278"/>
      <point x="546" y="228"/>
      <point x="539" y="227" type="qcurve" smooth="yes"/>
      <point x="362" y="227" type="line"/>
      <point x="325" y="98" type="line" smooth="yes"/>
      <point x="315" y="64"/>
      <point x="341" y="42"/>
      <point x="382" y="42" type="qcurve" smooth="yes"/>
      <point x="389" y="42"/>
      <point x="377" y="-4"/>
      <point x="370" y="-4" type="qcurve" smooth="yes"/>
      <point x="333" y="0"/>
      <point x="150" y="0"/>
      <point x="113" y="-4" type="qcurve" smooth="yes"/>
      <point x="107" y="-4"/>
      <point x="118" y="42"/>
      <point x="125" y="42" type="qcurve" smooth="yes"/>
      <point x="166" y="42"/>
      <point x="201" y="69"/>
    </contour>
  </outline>
</glyph>
<glyph name="brokenbar" format="1">
  <advance width="283"/>
  <unicode hex="00A6"/>
  <outline>
    <contour>
      <point x="228" y="388" type="line"/>
      <point x="133" y="388" type="line"/>
      <point x="133" y="670" type="line"/>
      <point x="228" y="670" type="line"/>
    </contour>
    <contour>
      <point x="228" y="53" type="line"/>
      <point x="133" y="53" type="line"/>
      <point x="133" y="336" type="line"/>
      <point x="228" y="336" type="line"/>
    </contour>
  </outline>
</glyph>
